<svg width="224" height="138" viewBox="0 0 224 138" fill="none" xmlns="http://www.w3.org/2000/svg">
<path d="M199.022 116.863V108.58H204.221V109.656H200.273V112.179H203.95V113.251H200.273V115.787H204.269V116.863H199.022Z" fill="white"/>
<path d="M190.173 110.756C190.13 110.373 189.951 110.076 189.638 109.866C189.325 109.653 188.931 109.546 188.456 109.546C188.116 109.546 187.822 109.6 187.573 109.708C187.325 109.813 187.132 109.959 186.994 110.145C186.86 110.328 186.792 110.537 186.792 110.772C186.792 110.969 186.838 111.139 186.93 111.281C187.024 111.424 187.147 111.544 187.298 111.641C187.452 111.736 187.617 111.815 187.792 111.88C187.968 111.942 188.136 111.993 188.298 112.034L189.108 112.244C189.372 112.309 189.644 112.396 189.922 112.507C190.2 112.617 190.457 112.763 190.695 112.944C190.933 113.124 191.124 113.348 191.27 113.615C191.418 113.882 191.493 114.201 191.493 114.573C191.493 115.043 191.371 115.459 191.128 115.823C190.888 116.187 190.538 116.474 190.08 116.685C189.623 116.895 189.071 117 188.424 117C187.803 117 187.266 116.902 186.812 116.705C186.359 116.508 186.004 116.229 185.747 115.868C185.491 115.504 185.349 115.072 185.322 114.573H186.577C186.602 114.873 186.699 115.122 186.869 115.322C187.042 115.518 187.262 115.665 187.529 115.762C187.799 115.857 188.094 115.904 188.416 115.904C188.769 115.904 189.084 115.849 189.359 115.738C189.637 115.625 189.856 115.469 190.015 115.269C190.174 115.067 190.254 114.831 190.254 114.561C190.254 114.316 190.184 114.115 190.043 113.959C189.906 113.802 189.718 113.673 189.48 113.57C189.246 113.468 188.98 113.378 188.683 113.3L187.703 113.033C187.039 112.852 186.513 112.586 186.124 112.236C185.738 111.885 185.545 111.422 185.545 110.845C185.545 110.367 185.675 109.951 185.934 109.595C186.193 109.239 186.544 108.963 186.986 108.766C187.429 108.566 187.928 108.467 188.484 108.467C189.046 108.467 189.541 108.565 189.97 108.762C190.402 108.959 190.742 109.23 190.991 109.575C191.239 109.917 191.368 110.311 191.379 110.756H190.173Z" fill="white"/>
<path d="M172.333 116.863H171.005L173.989 108.58H175.434L178.418 116.863H177.09L174.746 110.084H174.681L172.333 116.863ZM172.556 113.619H176.863V114.671H172.556V113.619Z" fill="white"/>
<path d="M158.138 116.863V108.58H161.175C161.763 108.58 162.25 108.677 162.636 108.871C163.022 109.063 163.311 109.323 163.503 109.652C163.694 109.978 163.79 110.346 163.79 110.756C163.79 111.101 163.727 111.392 163.6 111.629C163.473 111.864 163.303 112.053 163.09 112.196C162.879 112.336 162.647 112.438 162.393 112.503V112.584C162.669 112.597 162.937 112.686 163.199 112.851C163.464 113.012 163.682 113.243 163.855 113.542C164.028 113.842 164.114 114.205 164.114 114.634C164.114 115.057 164.014 115.438 163.814 115.775C163.617 116.109 163.312 116.375 162.899 116.571C162.486 116.765 161.959 116.863 161.316 116.863H158.138ZM159.389 115.791H161.195C161.794 115.791 162.223 115.675 162.482 115.443C162.741 115.211 162.871 114.921 162.871 114.574C162.871 114.312 162.805 114.072 162.673 113.854C162.54 113.635 162.351 113.461 162.106 113.332C161.863 113.203 161.574 113.138 161.239 113.138H159.389V115.791ZM159.389 112.163H161.065C161.346 112.163 161.598 112.109 161.822 112.001C162.049 111.894 162.229 111.743 162.361 111.548C162.496 111.352 162.563 111.12 162.563 110.853C162.563 110.51 162.443 110.223 162.203 109.991C161.963 109.76 161.594 109.644 161.098 109.644H159.389V112.163Z" fill="white"/>
<path d="M144.821 116.863H143.493L146.477 108.58H147.922L150.906 116.863H149.578L147.234 110.084H147.169L144.821 116.863ZM145.043 113.619H149.351V114.671H145.043V113.619Z" fill="white"/>
<path d="M130.25 109.656V108.58H136.668V109.656H134.08V116.863H132.833V109.656H130.25Z" fill="white"/>
<path d="M117.342 116.863H116.014L118.998 108.58H120.443L123.427 116.863H122.099L119.755 110.084H119.69L117.342 116.863ZM117.565 113.619H121.872V114.671H117.565V113.619Z" fill="white"/>
<path d="M105.063 116.863H102.379V108.58H105.148C105.96 108.58 106.658 108.746 107.241 109.077C107.824 109.406 108.271 109.88 108.581 110.497C108.894 111.112 109.051 111.849 109.051 112.709C109.051 113.572 108.893 114.313 108.577 114.933C108.264 115.554 107.811 116.031 107.217 116.365C106.623 116.697 105.905 116.863 105.063 116.863ZM103.63 115.771H104.994C105.626 115.771 106.151 115.652 106.569 115.415C106.988 115.175 107.301 114.828 107.508 114.375C107.716 113.92 107.82 113.364 107.82 112.709C107.82 112.059 107.716 111.508 107.508 111.055C107.303 110.602 106.997 110.258 106.589 110.024C106.182 109.789 105.676 109.672 105.071 109.672H103.63V115.771Z" fill="white"/>
<path d="M76.9846 116.863V108.58H82.1832V109.656H78.2357V112.179H81.912V113.251H78.2357V115.787H82.2318V116.863H76.9846Z" fill="white"/>
<path d="M69.453 111.273H68.1898C68.1412 111.004 68.0508 110.766 67.9185 110.562C67.7862 110.357 67.6243 110.183 67.4326 110.04C67.241 109.897 67.0264 109.789 66.7889 109.716C66.5541 109.644 66.3044 109.607 66.0399 109.607C65.5621 109.607 65.1343 109.727 64.7564 109.967C64.3812 110.207 64.0843 110.559 63.8657 111.023C63.6498 111.486 63.5418 112.053 63.5418 112.721C63.5418 113.395 63.6498 113.964 63.8657 114.428C64.0843 114.892 64.3826 115.242 64.7605 115.479C65.1384 115.717 65.5635 115.835 66.0358 115.835C66.2976 115.835 66.546 115.8 66.7808 115.73C67.0183 115.657 67.2329 115.551 67.4245 115.411C67.6162 115.27 67.7781 115.099 67.9104 114.897C68.0454 114.692 68.1385 114.458 68.1898 114.193L69.453 114.197C69.3855 114.604 69.2546 114.979 69.0602 115.322C68.8686 115.661 68.6216 115.955 68.3193 116.203C68.0197 116.449 67.6769 116.639 67.2909 116.774C66.905 116.908 66.4839 116.976 66.0277 116.976C65.3097 116.976 64.67 116.806 64.1086 116.466C63.5472 116.124 63.1045 115.634 62.7806 114.998C62.4594 114.362 62.2988 113.603 62.2988 112.721C62.2988 111.837 62.4608 111.078 62.7847 110.444C63.1086 109.808 63.5512 109.32 64.1127 108.98C64.6741 108.638 65.3124 108.467 66.0277 108.467C66.4677 108.467 66.878 108.53 67.2585 108.657C67.6418 108.781 67.986 108.964 68.291 109.207C68.596 109.447 68.8484 109.741 69.0481 110.088C69.2478 110.434 69.3828 110.829 69.453 111.273Z" fill="white"/>
<path d="M54.7064 108.58V116.863H53.5566L49.3418 110.788H49.2649V116.863H48.0139V108.58H49.1718L53.3906 114.662H53.4675V108.58H54.7064Z" fill="white"/>
<path d="M34.6965 116.863H33.3685L36.3524 108.58H37.7978L40.7818 116.863H39.4538L37.1095 110.084H37.0448L34.6965 116.863ZM34.9192 113.619H39.227V114.671H34.9192V113.619Z" fill="white"/>
<path d="M22.4177 116.863H19.7333V108.58H22.5027C23.3151 108.58 24.0129 108.746 24.5959 109.077C25.1789 109.406 25.6256 109.88 25.936 110.497C26.2491 111.112 26.4057 111.849 26.4057 112.709C26.4057 113.572 26.2478 114.313 25.932 114.933C25.6189 115.554 25.1654 116.031 24.5716 116.365C23.9778 116.697 23.2598 116.863 22.4177 116.863ZM20.9844 115.771H22.3488C22.9804 115.771 23.5054 115.652 23.9238 115.415C24.3422 115.175 24.6553 114.828 24.8631 114.375C25.0709 113.92 25.1749 113.364 25.1749 112.709C25.1749 112.059 25.0709 111.508 24.8631 111.055C24.658 110.602 24.3516 110.258 23.944 110.024C23.5365 109.789 23.0304 109.672 22.4258 109.672H20.9844V115.771Z" fill="white"/>
<path fill-rule="evenodd" clip-rule="evenodd" d="M110.196 21H85V91.4H109.99C117.149 91.4 123.299 89.9906 128.44 87.1719C133.603 84.3531 137.561 80.3083 140.315 75.0375C143.092 69.7667 144.48 63.4646 144.48 56.1313C144.48 48.8208 143.092 42.5417 140.315 37.2937C137.561 32.0458 133.626 28.024 128.509 25.2281C123.391 22.4094 117.287 21 110.196 21ZM109.37 78.6469H99.9044V33.7531H109.405C113.811 33.7531 117.517 34.5323 120.523 36.0906C123.529 37.649 125.789 40.0781 127.304 43.3781C128.841 46.6781 129.61 50.9292 129.61 56.1313C129.61 61.3792 128.841 65.6646 127.304 68.9875C125.789 72.2875 123.517 74.7281 120.488 76.3094C117.482 77.8677 113.776 78.6469 109.37 78.6469Z" fill="url(#paint0_linear_308_717)"/>
<path d="M38.8973 91.4H14V21H39.1031C46.1676 21 52.2491 22.4094 57.3474 25.2281C62.4458 28.024 66.3667 32.0458 69.1102 37.2937C71.8766 42.5417 73.2597 48.8208 73.2597 56.1313C73.2597 63.4646 71.8766 69.7667 69.1102 75.0375C66.3667 80.3083 62.4229 84.3531 57.2788 87.1719C52.1576 89.9906 46.0304 91.4 38.8973 91.4ZM28.8492 78.6469H38.28C42.6696 78.6469 46.3619 77.8677 49.3569 76.3094C52.3748 74.7281 54.6382 72.2875 56.1471 68.9875C57.6789 65.6646 58.4448 61.3792 58.4448 56.1313C58.4448 50.9292 57.6789 46.6781 56.1471 43.3781C54.6382 40.0781 52.3862 37.649 49.3912 36.0906C46.3962 34.5323 42.7039 33.7531 38.3143 33.7531H28.8492V78.6469Z" fill="url(#paint1_linear_308_717)"/>
<path fill-rule="evenodd" clip-rule="evenodd" d="M184.121 21H156V91.4H186.007C191.266 91.4 195.689 90.5521 199.279 88.8562C202.868 87.1604 205.577 84.8573 207.406 81.9469C209.258 79.0135 210.184 75.6792 210.184 71.9437C210.184 68.4833 209.453 65.5042 207.989 63.0062C206.526 60.4855 204.617 58.526 202.262 57.1282C199.93 55.7302 197.427 54.974 194.752 54.8594V54.1719C197.198 53.6218 199.37 52.6937 201.268 51.3875C203.188 50.0583 204.697 48.3625 205.795 46.3C206.892 44.2146 207.441 41.7969 207.441 39.0469C207.441 35.5177 206.572 32.401 204.834 29.6969C203.097 26.9698 200.502 24.8385 197.05 23.3031C193.597 21.7677 189.288 21 184.121 21ZM182.955 79.2312H170.849V60.5312H183.298C185.676 60.5312 187.722 60.9552 189.436 61.8031C191.174 62.651 192.511 63.8198 193.449 65.3093C194.386 66.799 194.855 68.5177 194.855 70.4656C194.855 73.1239 193.906 75.2552 192.009 76.8594C190.111 78.4407 187.093 79.2312 182.955 79.2312ZM181.858 50.4594H170.849V33.0312H182.132C185.424 33.0312 187.962 33.8104 189.745 35.3688C191.551 36.9271 192.454 38.9781 192.454 41.5219C192.454 43.3782 191.986 44.9708 191.048 46.3C190.134 47.6292 188.876 48.6604 187.276 49.3938C185.698 50.1041 183.892 50.4594 181.858 50.4594Z" fill="url(#paint2_linear_308_717)"/>
<defs>
<linearGradient id="paint0_linear_308_717" x1="19.2983" y1="24.2" x2="181.33" y2="148.639" gradientUnits="userSpaceOnUse">
<stop stop-color="#FA005A"/>
<stop offset="1" stop-color="#AF96FA"/>
</linearGradient>
<linearGradient id="paint1_linear_308_717" x1="19.0983" y1="24.2" x2="181.13" y2="148.639" gradientUnits="userSpaceOnUse">
<stop stop-color="#FA005A"/>
<stop offset="1" stop-color="#AF96FA"/>
</linearGradient>
<linearGradient id="paint2_linear_308_717" x1="19.2883" y1="24.1999" x2="181.32" y2="148.639" gradientUnits="userSpaceOnUse">
<stop stop-color="#FA005A"/>
<stop offset="1" stop-color="#AF96FA"/>
</linearGradient>
</defs>
</svg>
