<svg width="197" height="96" viewBox="0 0 197 96" fill="none" xmlns="http://www.w3.org/2000/svg">
<path d="M185.022 95.8627V87.5801H190.221V88.6558H186.273V91.1794H189.95V92.2512H186.273V94.7869H190.269V95.8627H185.022Z" fill="black"/>
<path d="M176.173 89.7558C176.13 89.373 175.951 89.0764 175.638 88.8661C175.325 88.6531 174.931 88.5466 174.456 88.5466C174.116 88.5466 173.822 88.6005 173.573 88.7084C173.325 88.8135 173.132 88.9591 172.994 89.1452C172.86 89.3285 172.792 89.5374 172.792 89.772C172.792 89.9688 172.838 90.1387 172.93 90.2816C173.024 90.4245 173.147 90.5445 173.298 90.6415C173.452 90.7359 173.617 90.8154 173.792 90.8801C173.968 90.9421 174.136 90.9934 174.298 91.0338L175.108 91.2441C175.372 91.3088 175.644 91.3964 175.922 91.507C176.2 91.6175 176.457 91.7631 176.695 91.9438C176.933 92.1244 177.124 92.3482 177.27 92.6151C177.418 92.882 177.493 93.2015 177.493 93.5736C177.493 94.0427 177.371 94.4593 177.128 94.8233C176.888 95.1872 176.538 95.4744 176.08 95.6847C175.623 95.895 175.071 96.0001 174.424 96.0001C173.803 96.0001 173.266 95.9017 172.812 95.7049C172.359 95.5081 172.004 95.229 171.747 94.8677C171.491 94.5038 171.349 94.0724 171.322 93.5736H172.577C172.602 93.8729 172.699 94.1223 172.869 94.3218C173.042 94.5186 173.262 94.6655 173.529 94.7626C173.799 94.857 174.094 94.9041 174.416 94.9041C174.769 94.9041 175.084 94.8489 175.359 94.7383C175.637 94.6251 175.856 94.4687 176.015 94.2692C176.174 94.067 176.254 93.8311 176.254 93.5615C176.254 93.3161 176.184 93.1152 176.043 92.9589C175.906 92.8025 175.718 92.6731 175.48 92.5706C175.246 92.4682 174.98 92.3778 174.683 92.2997L173.703 92.0327C173.039 91.8521 172.513 91.5865 172.124 91.236C171.738 90.8855 171.545 90.4218 171.545 89.8448C171.545 89.3676 171.675 88.951 171.934 88.5951C172.193 88.2392 172.544 87.9629 172.986 87.7661C173.429 87.5666 173.928 87.4668 174.484 87.4668C175.046 87.4668 175.541 87.5652 175.97 87.762C176.402 87.9588 176.742 88.2298 176.991 88.5749C177.239 88.9173 177.368 89.311 177.379 89.7558H176.173Z" fill="black"/>
<path d="M158.333 95.8627H157.005L159.989 87.5801H161.434L164.418 95.8627H163.09L160.746 89.0845H160.681L158.333 95.8627ZM158.556 92.6192H162.863V93.6707H158.556V92.6192Z" fill="black"/>
<path d="M144.138 95.8627V87.5801H147.175C147.763 87.5801 148.25 87.6771 148.636 87.8713C149.022 88.0627 149.311 88.3229 149.503 88.6518C149.694 88.978 149.79 89.3461 149.79 89.7559C149.79 90.101 149.727 90.3922 149.6 90.6294C149.473 90.864 149.303 91.0527 149.09 91.1956C148.879 91.3358 148.647 91.4383 148.393 91.503V91.5839C148.669 91.5974 148.937 91.6863 149.199 91.8508C149.464 92.0126 149.682 92.2431 149.855 92.5424C150.028 92.8416 150.114 93.2056 150.114 93.6343C150.114 94.0576 150.014 94.4378 149.814 94.7748C149.617 95.1091 149.312 95.3747 148.899 95.5715C148.486 95.7656 147.959 95.8627 147.316 95.8627H144.138ZM145.389 94.7909H147.195C147.794 94.7909 148.223 94.675 148.482 94.4431C148.741 94.2113 148.871 93.9214 148.871 93.5736C148.871 93.3121 148.805 93.0721 148.673 92.8538C148.54 92.6354 148.351 92.4615 148.106 92.3321C147.863 92.2026 147.574 92.1379 147.239 92.1379H145.389V94.7909ZM145.389 91.1633H147.065C147.346 91.1633 147.598 91.1093 147.822 91.0015C148.049 90.8937 148.229 90.7427 148.361 90.5485C148.496 90.3517 148.563 90.1199 148.563 89.8529C148.563 89.5105 148.443 89.2234 148.203 88.9915C147.963 88.7596 147.594 88.6437 147.098 88.6437H145.389V91.1633Z" fill="black"/>
<path d="M130.821 95.8627H129.493L132.477 87.5801H133.922L136.906 95.8627H135.578L133.234 89.0845H133.169L130.821 95.8627ZM131.043 92.6192H135.351V93.6707H131.043V92.6192Z" fill="black"/>
<path d="M116.25 88.6558V87.5801H122.668V88.6558H120.08V95.8627H118.833V88.6558H116.25Z" fill="black"/>
<path d="M103.342 95.8627H102.014L104.998 87.5801H106.443L109.427 95.8627H108.099L105.755 89.0845H105.69L103.342 95.8627ZM103.565 92.6192H107.872V93.6707H103.565V92.6192Z" fill="black"/>
<path d="M91.063 95.8627H88.3787V87.5801H91.148C91.9605 87.5801 92.6582 87.7459 93.2412 88.0775C93.8242 88.4064 94.271 88.8796 94.5814 89.497C94.8945 90.1118 95.051 90.8492 95.051 91.7092C95.051 92.572 94.8931 93.3135 94.5773 93.9336C94.2642 94.5537 93.8108 95.0309 93.2169 95.3652C92.6231 95.6969 91.9051 95.8627 91.063 95.8627ZM89.6297 94.7707H90.9942C91.6258 94.7707 92.1508 94.6521 92.5691 94.4148C92.9875 94.1749 93.3006 93.8284 93.5084 93.3755C93.7163 92.9198 93.8202 92.3644 93.8202 91.7092C93.8202 91.0595 93.7163 90.5081 93.5084 90.0551C93.3033 89.6022 92.997 89.2584 92.5894 89.0239C92.1818 88.7893 91.6757 88.672 91.0711 88.672H89.6297V94.7707Z" fill="black"/>
<path d="M62.9846 95.8627V87.5801H68.1832V88.6558H64.2357V91.1794H67.912V92.2512H64.2357V94.7869H68.2318V95.8627H62.9846Z" fill="black"/>
<path d="M55.453 90.2735H54.1898C54.1412 90.0039 54.0508 89.7666 53.9185 89.5617C53.7862 89.3568 53.6243 89.1829 53.4327 89.04C53.241 88.8971 53.0264 88.7893 52.7889 88.7165C52.5541 88.6437 52.3044 88.6073 52.0399 88.6073C51.5621 88.6073 51.1343 88.7272 50.7564 88.9672C50.3812 89.2072 50.0843 89.559 49.8657 90.0228C49.6498 90.4865 49.5418 91.0527 49.5418 91.7213C49.5418 92.3954 49.6498 92.9643 49.8657 93.428C50.0843 93.8917 50.3826 94.2422 50.7605 94.4795C51.1384 94.7168 51.5635 94.8354 52.0358 94.8354C52.2976 94.8354 52.546 94.8003 52.7808 94.7302C53.0183 94.6574 53.2329 94.5509 53.4246 94.4107C53.6162 94.2705 53.7781 94.0993 53.9104 93.8971C54.0454 93.6922 54.1385 93.4577 54.1898 93.1934L55.453 93.1975C55.3855 93.6046 55.2546 93.9794 55.0602 94.3218C54.8686 94.6615 54.6216 94.9554 54.3193 95.2034C54.0197 95.4488 53.6769 95.6388 53.2909 95.7737C52.905 95.9085 52.4839 95.9759 52.0277 95.9759C51.3098 95.9759 50.6701 95.806 50.1086 95.4663C49.5472 95.1239 49.1045 94.6345 48.7806 93.9982C48.4594 93.3619 48.2988 92.603 48.2988 91.7213C48.2988 90.837 48.4608 90.078 48.7847 89.4444C49.1086 88.8081 49.5512 88.3201 50.1127 87.9804C50.6741 87.638 51.3125 87.4668 52.0277 87.4668C52.4677 87.4668 52.878 87.5302 53.2586 87.6569C53.6418 87.7809 53.986 87.9642 54.291 88.2069C54.596 88.4468 54.8484 88.7407 55.0481 89.0885C55.2478 89.4336 55.3828 89.8286 55.453 90.2735Z" fill="black"/>
<path d="M40.7064 87.5801V95.8627H39.5566L35.3418 89.7882H35.2649V95.8627H34.0138V87.5801H35.1718L39.3906 93.6626H39.4675V87.5801H40.7064Z" fill="black"/>
<path d="M20.6965 95.8627H19.3685L22.3524 87.5801H23.7978L26.7818 95.8627H25.4538L23.1096 89.0845H23.0448L20.6965 95.8627ZM20.9192 92.6192H25.227V93.6707H20.9192V92.6192Z" fill="black"/>
<path d="M8.41766 95.8627H5.73334V87.5801H8.50268C9.31513 87.5801 10.0129 87.7459 10.5959 88.0775C11.1789 88.4064 11.6256 88.8796 11.936 89.497C12.2491 90.1118 12.4057 90.8492 12.4057 91.7092C12.4057 92.572 12.2478 93.3135 11.932 93.9336C11.6189 94.5537 11.1654 95.0309 10.5716 95.3652C9.97777 95.6969 9.2598 95.8627 8.41766 95.8627ZM6.9844 94.7707H8.34883C8.98043 94.7707 9.50542 94.6521 9.92379 94.4148C10.3422 94.1749 10.6553 93.8284 10.8631 93.3755C11.0709 92.9198 11.1749 92.3644 11.1749 91.7092C11.1749 91.0595 11.0709 90.5081 10.8631 90.0551C10.658 89.6022 10.3516 89.2584 9.94404 89.0239C9.53646 88.7893 9.03037 88.672 8.42575 88.672H6.9844V94.7707Z" fill="black"/>
<path fill-rule="evenodd" clip-rule="evenodd" d="M96.1964 0H71V70.4H95.9899C103.149 70.4 109.299 68.9906 114.44 66.1719C119.603 63.3531 123.561 59.3083 126.315 54.0375C129.092 48.7667 130.48 42.4646 130.48 35.1313C130.48 27.8208 129.092 21.5417 126.315 16.2937C123.561 11.0458 119.626 7.02396 114.509 4.22813C109.391 1.40938 103.287 0 96.1964 0ZM95.3703 57.6469H85.9044V12.7531H95.4047C99.8106 12.7531 103.517 13.5323 106.523 15.0906C109.529 16.649 111.789 19.0781 113.304 22.3781C114.841 25.6781 115.61 29.9292 115.61 35.1313C115.61 40.3792 114.841 44.6646 113.304 47.9875C111.789 51.2875 109.517 53.7281 106.488 55.3094C103.482 56.8677 99.7762 57.6469 95.3703 57.6469Z" fill="url(#paint0_linear_364_205)"/>
<path d="M24.8973 70.4H0V0H25.1031C32.1676 0 38.2491 1.40938 43.3474 4.22813C48.4458 7.02396 52.3667 11.0458 55.1102 16.2937C57.8766 21.5417 59.2597 27.8208 59.2597 35.1313C59.2597 42.4646 57.8766 48.7667 55.1102 54.0375C52.3667 59.3083 48.4229 63.3531 43.2788 66.1719C38.1576 68.9906 32.0304 70.4 24.8973 70.4ZM14.8492 57.6469H24.28C28.6696 57.6469 32.3619 56.8677 35.3569 55.3094C38.3748 53.7281 40.6382 51.2875 42.1471 47.9875C43.6789 44.6646 44.4448 40.3792 44.4448 35.1313C44.4448 29.9292 43.6789 25.6781 42.1471 22.3781C40.6382 19.0781 38.3862 16.649 35.3912 15.0906C32.3962 13.5323 28.7039 12.7531 24.3143 12.7531H14.8492V57.6469Z" fill="url(#paint1_linear_364_205)"/>
<path fill-rule="evenodd" clip-rule="evenodd" d="M170.121 0H142V70.4H172.007C177.265 70.4 181.689 69.5521 185.279 67.8562C188.868 66.1604 191.577 63.8573 193.406 60.9469C195.258 58.0135 196.184 54.6792 196.184 50.9437C196.184 47.4833 195.453 44.5042 193.989 42.0063C192.526 39.4854 190.617 37.526 188.262 36.1281C185.93 34.7302 183.427 33.974 180.752 33.8594V33.1719C183.198 32.6219 185.37 31.6937 187.268 30.3875C189.188 29.0583 190.697 27.3625 191.795 25.3C192.892 23.2146 193.441 20.7969 193.441 18.0469C193.441 14.5177 192.572 11.401 190.834 8.69687C189.097 5.96979 186.502 3.83854 183.05 2.30313C179.597 0.767708 175.288 0 170.121 0ZM168.955 58.2312H156.849V39.5313H169.298C171.676 39.5313 173.722 39.9552 175.436 40.8031C177.174 41.651 178.511 42.8198 179.449 44.3094C180.386 45.799 180.855 47.5177 180.855 49.4656C180.855 52.124 179.906 54.2552 178.009 55.8594C176.111 57.4406 173.093 58.2312 168.955 58.2312ZM167.858 29.4594H156.849V12.0312H168.132C171.424 12.0312 173.962 12.8104 175.745 14.3687C177.551 15.9271 178.454 17.9781 178.454 20.5219C178.454 22.3781 177.986 23.9708 177.048 25.3C176.134 26.6292 174.876 27.6604 173.276 28.3937C171.698 29.1042 169.892 29.4594 167.858 29.4594Z" fill="url(#paint2_linear_364_205)"/>
<defs>
<linearGradient id="paint0_linear_364_205" x1="5.29831" y1="3.19996" x2="167.33" y2="127.639" gradientUnits="userSpaceOnUse">
<stop stop-color="#FA005A"/>
<stop offset="1" stop-color="#AF96FA"/>
</linearGradient>
<linearGradient id="paint1_linear_364_205" x1="5.09829" y1="3.19998" x2="167.13" y2="127.639" gradientUnits="userSpaceOnUse">
<stop stop-color="#FA005A"/>
<stop offset="1" stop-color="#AF96FA"/>
</linearGradient>
<linearGradient id="paint2_linear_364_205" x1="5.28832" y1="3.19993" x2="167.32" y2="127.639" gradientUnits="userSpaceOnUse">
<stop stop-color="#FA005A"/>
<stop offset="1" stop-color="#AF96FA"/>
</linearGradient>
</defs>
</svg>
