<?xml version="1.0" encoding="UTF-8" standalone="no"?>
<!-- Created with Inkscape (http://www.inkscape.org/) -->

<svg
   version="1.1"
   id="svg2"
   xml:space="preserve"
   width="576"
   height="317.33334"
   viewBox="0 0 576 317.33334"
   sodipodi:docname="spartak-moscow-seeklogo.com.eps"
   xmlns:inkscape="http://www.inkscape.org/namespaces/inkscape"
   xmlns:sodipodi="http://sodipodi.sourceforge.net/DTD/sodipodi-0.dtd"
   xmlns="http://www.w3.org/2000/svg"
   xmlns:svg="http://www.w3.org/2000/svg"><defs
     id="defs6" /><sodipodi:namedview
     id="namedview4"
     pagecolor="#ffffff"
     bordercolor="#666666"
     borderopacity="1.0"
     inkscape:pageshadow="2"
     inkscape:pageopacity="0.0"
     inkscape:pagecheckerboard="0" /><g
     id="g8"
     inkscape:groupmode="layer"
     inkscape:label="ink_ext_XXXXXX"
     transform="matrix(1.3333333,0,0,-1.3333333,0,317.33333)"><g
       id="g10"
       transform="scale(0.1)"><path
         d="M 2156.39,2372.74 4310.61,1189.46 2156.98,6.15625 2.14844,1189.44 2156.39,2372.74"
         style="fill:#ffffff;fill-opacity:1;fill-rule:evenodd;stroke:none"
         id="path12" /><path
         d="M 2156.39,2297.38 139.398,1189.45 2156.97,81.5313 4173.39,1189.45 l -2017,1107.93"
         style="fill:#e30c2c;fill-opacity:1;fill-rule:evenodd;stroke:none"
         id="path14" /><path
         d="m 2441.71,1631.86 72.35,39.7 h 46.37 v -279.1 h -49.91 l -2.06,5.84 c -39.86,111.59 -163.68,178.96 -274.36,199.02 -134.08,24.25 -272.76,-11.12 -365.04,-115.05 -142.35,-160.35 -134.33,-431.59 15.11,-585.094 75.81,-77.867 181.55,-121.969 289.35,-129.258 122.55,-8.152 240.65,30.758 337.17,106.07 4.24,3.34 8.4,6.633 12.56,10.09 l 4.69,3.871 92.9,-53.695 -8.4,-8.113 c -21.21,-20.422 -44.02,-39.157 -68.11,-56.246 C 2456,707.469 2351.62,668.969 2244.8,653.523 c -189.62,-27.421 -402.22,16.43 -546.34,148.364 -110.07,100.683 -160.71,235.123 -160.06,383.033 0.74,160.96 64.49,302.49 191.4,402.76 64.81,51.27 140.99,87.42 220.63,108.79 159.89,42.99 351.16,29.36 491.28,-64.61 z m -579.2,-143.79 c 197.12,222.07 579.9,121.23 654.19,-86.88 l 34.96,0.08 v 261.56 h -35.33 l -75.11,-41.26 c -298.29,205.43 -888.82,56.25 -894.05,-436.69 0.5,-555.11 721.06,-677.989 1059.21,-352.4 l -77.58,44.887 c -4.19,-3.5 -8.44,-6.961 -12.72,-10.254 -213.26,-166.523 -489.06,-129.172 -638.21,23.965 -155.77,160.062 -157.63,436.772 -15.36,596.992 z m 0,0 c 197.12,222.07 579.9,121.23 654.19,-86.88 l 34.96,0.08 v 261.56 h -35.33 l -75.11,-41.26 c -298.29,205.43 -888.82,56.25 -894.05,-436.69 0.5,-555.11 721.06,-677.989 1059.21,-352.4 l -77.58,44.848 c -4.19,-3.461 -8.44,-6.922 -12.72,-10.215 C 2302.82,700.59 2027.02,737.941 1877.87,891.078 1722.1,1051.14 1720.24,1327.85 1862.51,1488.07 Z M 2156.39,2175.9 360.52,1189.45 2156.93,203.043 3952.27,1189.45 Z M 2156.35,331.766 3718.92,1189.74 3196.17,1475.55 2070.42,856.488 c -51.97,18.328 -99.94,47.52 -138.56,87.133 -89.73,92.159 -118.72,237.349 -84.05,361.619 l 401.73,220.55 c 79.88,-20.84 168.13,-71.2 196.21,-149.89 l 17.87,-50.03 163.35,0.04 0.05,407.13 52.12,28.65 -522.75,285.77 -1560.171,-858.01 520.361,-285.731 360.1,197.741 c 23.22,-189.917 128.22,-332.886 273.99,-420.8 l -114.68,-63.082 520.36,-285.812"
         style="fill:#ffffff;fill-opacity:1;fill-rule:evenodd;stroke:none"
         id="path16" /></g></g></svg>
