<svg width="741" height="516" viewBox="0 0 741 516" fill="none" xmlns="http://www.w3.org/2000/svg">
<path d="M566.533 318.96V318.827H565.2V318.693H564.4V318.56H564V318.427H563.467V318.293H563.2V318.16H562.933V318.027H562.667V317.893H562.4V317.76H562.267V317.627H562.133V317.493H562V317.36H561.867V317.093H561.733V316.96H561.6V316.56H561.467V316.027H561.6V315.493H561.733V315.093H561.867V314.56H562V314.027H562.133V313.493H562.267V313.093H562.4V312.56H562.533V312.027H562.667V311.493H562.8V311.093H562.933V310.56H563.067V310.027H563.2V309.493H563.333V309.093H563.467V308.56H563.6V308.027H563.733V307.627H563.867V307.093H564V306.56H564.133V306.027H564.267V305.627H564.4V305.093H564.533V304.56H564.667V304.027H564.8V303.627H564.933V303.093H565.067V302.56H565.2V302.027H565.333V301.627H565.467V301.093H565.6V300.56H565.733V300.027H565.867V299.627H566V299.093H566.133V298.56H566.267V298.027H566.4V297.627H566.533V297.093H566.667V296.56H566.8V296.027H566.933V295.627H567.067V295.093H567.2V294.56H567.333V294.027H567.467V293.627H567.6V293.093H567.733V292.56H567.867V292.027H568V291.627H568.133V291.093H568.267V290.56H568.4V290.16H568.533V289.627H568.667V289.093H568.8V288.56H568.933V288.16H569.067V287.627H569.2V287.093H569.333V286.56H569.467V286.16H569.6V285.627H569.733V285.093H569.867V284.56H570V284.16H570.133V283.627H570.267V283.093H570.4V282.56H570.533V282.16H570.667V281.627H570.8V281.093H570.933V280.56H571.067V280.16H571.2V279.627H571.333V279.093H571.467V278.56H571.6V278.16H571.733V277.627H571.867V277.093H572V276.56H572.133V276.16H572.267V275.627H572.4V275.093H572.533V274.56H572.667V274.16H572.8V273.627H572.933V273.093H573.067V272.56H573.2V272.16H573.333V271.627H573.467V271.093H573.6V270.693H573.733V270.16H573.867V269.627H574V269.093H574.133V268.693H574.267V268.16H574.4V267.627H574.533V267.093H574.667V266.693H574.8V266.16H574.933V265.627H575.067V265.093H575.2V264.693H575.333V264.16H575.467V263.627H575.6V263.093H575.733V262.693H575.867V262.16H576V261.627H576.133V261.093H576.267V260.693H576.4V260.16H576.533V259.627H576.667V259.093H576.8V258.693H576.933V258.16H577.067V257.627H577.2V257.093H577.333V256.693H577.467V256.16H577.6V255.627H577.733V255.093H577.867V254.693H578V254.16H578.133V253.627H578.267V253.227H578.4V252.693H578.533V252.16H578.667V251.627H578.8V251.227H578.933V250.693H579.067V250.16H579.2V249.627H579.333V249.227H579.467V248.693H579.6V248.16H579.733V247.627H579.867V247.227H580V246.693H580.133V246.16H580.267V245.627H580.4V245.227H580.533V244.693H580.667V244.16H580.8V243.627H580.933V243.227H581.067V242.693H581.2V242.16H581.333V241.627H581.467V241.227H581.6V240.693H581.733V240.16H581.867V239.627H582V239.227H582.133V238.693H582.267V238.16H582.4V237.627H582.533V237.227H582.667V236.693H582.8V236.16H582.933V235.76H583.067V235.227H583.2V234.693H583.333V234.16H583.467V233.76H583.6V233.227H583.733V232.693H583.867V232.16H584V231.76H584.133V231.227H584.267V230.693H584.4V230.16H584.533V229.76H584.667V229.227H584.8V228.693H584.933V228.16H585.067V227.76H585.2V227.227H585.333V226.693H585.467V226.16H585.6V225.76H585.733V225.227H585.867V224.693H586V224.16H586.133V223.76H586.267V223.227H586.4V222.693H586.533V222.16H586.667V221.76H586.8V221.227H586.933V220.693H587.067V220.16H587.2V219.76H587.333V219.227H587.467V218.693H587.6V218.16H587.733V217.76H587.867V217.227H588V216.693H588.133V216.293H588.267V215.76H588.4V215.227H588.533V214.693H588.667V214.293H588.8V213.76H588.933V213.227H589.067V212.693H589.2V212.293H589.333V211.76H589.467V211.227H589.6V210.693H589.733V210.293H589.867V209.76H590V209.227H590.133V208.693H590.267V208.293H590.4V207.76H590.533V207.227H590.667V206.693H590.8V206.293H590.933V205.76H591.067V205.227H591.2V204.693H591.333V204.293H591.467V203.76H591.6V203.227H591.733V202.693H591.867V202.293H592V201.76H592.133V201.227H592.267V200.693H592.4V200.293H592.533V199.76H592.667V199.227H592.8V198.827H592.933V198.293H593.067V197.76H593.2V197.227H593.333V196.827H593.467V196.293H593.6V195.76H593.733V195.227H593.867V194.827H594V194.293H594.133V193.76H594.267V193.227H594.4V192.827H594.533V192.293H594.667V191.76H594.8V191.227H594.933V190.827H595.067V190.293H595.2V189.76H595.333V189.227H595.467V188.827H595.6V188.293H595.733V187.76H595.867V187.227H596V186.827H596.133V186.293H596.267V185.76H596.4V185.227H596.533V184.827H596.667V184.293H596.8V183.76H596.933V183.227H597.067V182.827H597.2V182.293H597.333V181.76H597.467V181.36H597.6V180.827H597.733V180.293H597.867V179.76H598V179.36H598.133V178.827H598.267V178.293H598.4V177.76H598.533V177.36H598.667V176.827H598.8V176.293H598.933V175.76H599.067V175.36H599.2V174.827H599.333V174.293H599.467V173.76H599.6V173.36H599.733V172.827H599.867V172.293H600V171.76H600.133V171.36H600.267V170.827H600.4V170.293H600.533V169.76H600.667V169.36H600.8V168.827H600.933V168.293H601.067V167.76H601.2V167.36H601.333V166.827H601.467V166.293H601.6V165.76H601.733V165.36H601.867V164.827H602V164.293H602.133V163.76H602.267V163.36H602.4V162.827H602.533V162.293H602.667V161.893H602.8V161.36H602.933V160.827H603.067V160.293H603.2V159.893H603.333V159.36H603.467V158.827H603.6V158.293H603.733V157.893H603.867V157.36H604V156.827H604.133V156.293H604.267V155.893H604.4V155.36H604.533V154.827H604.667V154.293H604.8V153.893H604.933V153.36H605.067V152.827H605.2V152.293H605.333V151.893H605.467V151.36H605.6V150.827H605.733V150.293H605.867V149.893H606V149.36H606.133V149.227H606.267V149.893H606.4V150.16H606.533V150.56H606.8V150.693H606.933V150.827H607.067V150.96H607.2V151.093H607.333V151.227H607.6V151.36H607.867V151.493H608.267V151.627H608.667V151.76H609.2V151.893H609.867V152.027H611.067V152.16H614.8V152.027H616.4V151.893H617.6V151.76H618.667V151.627H619.733V151.493H620.533V151.36H621.333V151.227H622.133V151.093H622.8V150.96H623.467V150.827H624.267V150.693H624.933V150.56H625.6V150.427H626.133V150.293H626.8V150.16H627.333V150.027H628V149.893H628.533V149.76H629.2V149.627H629.733V149.493H630.267V149.36H630.8V149.227H631.333V149.093H631.867V148.96H632.4V148.827H632.933V148.693H633.467V148.56H634V148.427H634.4V148.293H634.933V148.16H635.467V148.027H636V147.893H636.4V147.76H636.933V147.627H637.467V147.493H638V147.36H638.533V147.227H639.067V147.093H639.6V146.96H640V146.827H640.533V146.693H641.067V146.56H641.6V146.427H642.267V146.293H642.8V146.16H643.333V146.027H643.867V145.893H644.4V145.76H644.933V145.627H645.467V145.493H646V145.36H646.533V145.227H647.2V145.093H647.733V144.96H648.4V144.827H648.933V144.693H649.6V144.56H650.133V144.427H650.667V144.293H651.333V144.16H651.867V144.027H652.533V143.893H653.2V143.76H653.867V143.627H654.4V143.493H655.067V143.36H655.733V143.227H656.4V143.093H657.067V142.96H657.733V142.827H658.4V142.693H659.067V142.56H659.733V142.427H660.4V142.293H661.2V142.16H661.867V142.027H662.533V141.893H663.333V141.76H664V141.627H664.8V141.493H665.6V141.36H666.267V141.227H667.067V141.093H667.867V140.96H668.667V140.827H669.467V140.693H670.267V140.56H671.2V140.427H672V140.293H672.8V140.16H673.733V140.027H674.667V139.893H675.6V139.76H676.4V139.627H677.333V139.493H678.4V139.36H679.333V139.227H680.4V139.093H681.467V138.96H682.533V138.827H683.6V138.693H684.8V138.56H685.867V138.427H687.067V138.293H688.4V138.16H689.733V138.027H691.067V137.893H692.533V137.76H694V137.627H695.6V137.493H697.333V137.36H699.2V137.227H701.2V137.093H703.467V136.96H706.133V136.827H709.467V136.693H714.8V136.56H722.667V136.693H727.867V136.827H730.933V136.96H733.2V137.093H735.067V137.227H736.667V137.36H738.133V137.493H739.467V137.627H740.533V138.56H740.4V139.093H740.267V139.627H740.133V140.027H740V140.56H739.867V141.093H739.733V141.627H739.6V142.027H739.467V142.56H739.333V143.093H739.2V143.627H739.067V144.027H738.933V144.56H738.8V145.093H738.667V145.627H738.533V146.027H738.4V146.56H738.267V147.093H738.133V147.627H738V148.027H737.867V148.56H737.733V149.093H737.6V149.627H737.467V150.027H737.333V150.56H737.2V151.093H737.067V151.493H736.933V152.027H736.8V152.56H736.667V153.093H736.533V153.493H736.4V154.027H736.267V154.56H736.133V155.093H736V155.493H735.867V156.027H735.733V156.56H735.6V157.093H735.467V157.493H735.333V158.027H735.2V158.56H735.067V159.093H734.933V159.493H734.8V160.027H734.667V160.56H734.533V161.093H734.4V161.493H734.267V162.027H734.133V162.56H734V163.093H733.867V163.493H733.733V164.027H733.6V164.56H733.467V165.093H733.333V165.493H733.2V166.027H733.067V166.56H732.933V167.093H732.8V167.493H732.667V168.027H732.533V168.56H732.4V168.96H732.267V169.493H732.133V170.027H732V170.56H731.867V170.96H731.733V171.493H731.6V172.027H731.467V172.56H731.333V172.96H731.2V173.493H731.067V174.027H730.933V174.56H730.8V174.96H730.667V175.493H730.533V176.027H730.4V176.56H730.267V176.96H730.133V177.493H730V178.027H729.867V178.56H729.733V178.96H729.6V179.493H729.467V180.027H729.333V180.56H729.2V180.96H729.067V181.493H728.933V182.027H728.8V182.56H728.667V182.96H728.533V183.493H728.4V184.027H728.267V184.56H728.133V184.96H728V185.493H727.867V186.027H727.733V186.56H727.6V186.96H727.467V187.493H727.333V188.027H727.2V188.427H727.067V188.96H726.933V189.493H726.8V190.027H726.667V190.427H726.533V190.96H726.4V191.493H726.267V192.027H726.133V192.427H726V192.96H725.867V193.493H725.733V194.027H725.6V194.427H725.467V194.96H725.333V195.493H725.2V196.027H725.067V196.427H724.933V196.96H724.8V197.493H724.667V198.027H724.533V198.427H724.4V198.96H724.267V199.493H724.133V200.027H724V200.427H723.867V200.96H723.733V201.493H723.6V202.027H723.467V202.427H723.333V202.96H723.2V203.493H723.067V204.027H722.933V204.427H722.8V204.96H722.667V205.493H722.533V205.893H722.4V206.427H722.267V206.96H722.133V207.493H722V207.893H721.867V208.427H721.733V208.96H721.6V209.493H721.467V209.893H721.333V210.427H721.2V210.96H721.067V211.493H720.933V211.893H720.8V212.427H720.667V212.96H720.533V213.493H720.4V213.893H720.267V214.427H720.133V214.96H720V215.493H719.867V215.893H719.733V216.427H719.6V216.96H719.467V217.493H719.333V217.893H719.2V218.427H719.067V218.96H718.933V219.493H718.8V219.893H718.667V220.427H718.533V220.96H718.4V221.493H718.267V221.893H718.133V222.427H718V222.96H717.867V223.36H717.733V223.893H717.6V224.427H717.467V224.96H717.333V225.36H717.2V225.893H717.067V226.427H716.933V226.96H716.8V227.36H716.667V227.893H716.533V228.427H716.4V228.96H716.267V229.36H716.133V229.893H716V230.427H715.867V230.96H715.733V231.36H715.6V231.893H715.467V232.427H715.333V232.96H715.2V233.36H715.067V233.893H714.933V234.427H714.8V234.96H714.667V235.36H714.533V235.893H714.4V236.427H714.267V236.96H714.133V237.36H714V237.893H713.867V238.427H713.733V238.96H713.6V239.36H713.467V239.893H713.333V240.427H713.2V240.96H713.067V241.36H712.933V241.893H712.8V242.427H712.667V242.827H712.533V243.36H712.4V243.893H712.267V244.427H712.133V244.827H712V245.36H711.867V245.893H711.733V246.427H711.6V246.827H711.467V247.36H711.333V247.893H711.2V248.427H711.067V248.827H710.933V249.36H710.8V249.893H710.667V250.427H710.533V250.827H710.4V251.36H710.267V251.893H710.133V252.427H710V252.827H709.867V253.36H709.733V253.893H709.6V254.427H709.467V254.827H709.333V255.36H709.2V255.893H709.067V256.427H708.933V256.827H708.8V257.36H708.667V257.893H708.533V258.427H708.4V258.827H708.267V259.36H708.133V259.893H708V260.293H707.867V260.827H707.733V261.36H707.6V261.893H707.467V262.293H707.333V262.827H707.2V263.36H707.067V263.893H706.933V264.293H706.8V264.827H706.667V265.36H706.533V265.893H706.4V266.293H706.267V266.827H706.133V267.36H706V267.893H705.867V268.293H705.733V268.827H705.6V269.36H705.467V269.893H705.333V270.293H705.2V270.827H705.067V271.36H704.933V271.893H704.8V272.293H704.667V272.827H704.533V273.36H704.4V273.893H704.267V274.293H704.133V274.827H704V275.36H703.867V275.893H703.733V276.293H703.6V276.827H703.467V277.36H703.333V277.76H703.2V278.293H703.067V278.827H702.933V279.36H702.8V279.76H702.667V280.293H702.533V280.827H702.4V281.36H702.267V281.76H702.133V282.293H702V282.827H701.867V283.36H701.733V283.76H701.6V284.293H701.467V284.827H701.333V285.36H701.2V285.76H701.067V286.293H700.933V286.827H700.8V287.36H700.667V287.76H700.533V288.293H700.4V288.827H700.267V289.36H700.133V289.76H700V290.293H699.867V290.827H699.733V291.36H699.6V291.76H699.467V292.293H699.333V292.827H699.2V293.36H699.067V293.76H698.933V294.293H698.8V294.827H698.667V295.36H698.533V295.76H698.4V296.293H698.267V296.827H698.133V297.227H698V297.76H697.867V298.293H697.733V298.827H697.6V299.227H697.467V299.76H697.333V300.293H697.2V300.827H697.067V301.227H696.933V301.76H696.8V302.293H696.667V302.827H696.533V303.227H696.4V303.76H696.267V304.293H695.867V304.16H694.267V304.027H692.667V303.893H690.667V303.76H688.4V303.627H685.333V303.493H680.133V303.36H672.4V303.493H666.8V303.627H663.467V303.76H660.667V303.893H658.533V304.027H656.4V304.16H654.533V304.293H652.8V304.427H651.2V304.56H649.6V304.693H648.133V304.827H646.8V304.96H645.333V305.093H644.133V305.227H642.933V305.36H641.733V305.493H640.533V305.627H639.467V305.76H638.267V305.893H637.2V306.027H636.267V306.16H635.2V306.293H634.267V306.427H633.2V306.56H632.267V306.693H631.333V306.827H630.533V306.96H629.6V307.093H628.667V307.227H627.867V307.36H626.933V307.493H626.133V307.627H625.333V307.76H624.533V307.893H623.733V308.027H622.933V308.16H622.133V308.293H621.333V308.427H620.533V308.56H619.867V308.693H619.067V308.827H618.4V308.96H617.6V309.093H616.933V309.227H616.267V309.36H615.467V309.493H614.8V309.627H614.133V309.76H613.467V309.893H612.8V310.027H612.133V310.16H611.467V310.293H610.8V310.427H610.133V310.56H609.6V310.693H608.933V310.827H608.267V310.96H607.733V311.093H607.067V311.227H606.4V311.36H605.867V311.493H605.2V311.627H604.667V311.76H604V311.893H603.467V312.027H602.933V312.16H602.267V312.293H601.733V312.427H601.067V312.56H600.533V312.693H600V312.827H599.467V312.96H598.933V313.093H598.4V313.227H597.867V313.36H597.333V313.493H596.667V313.627H596.133V313.76H595.6V313.893H595.067V314.027H594.667V314.16H594.133V314.293H593.6V314.427H593.067V314.56H592.533V314.693H592V314.827H591.467V314.96H590.933V315.093H590.533V315.227H590V315.36H589.467V315.493H588.933V315.627H588.4V315.76H587.867V315.893H587.333V316.027H586.8V316.16H586.267V316.293H585.6V316.427H585.067V316.56H584.533V316.693H583.867V316.827H583.333V316.96H582.667V317.093H582V317.227H581.467V317.36H580.8V317.493H580V317.627H579.333V317.76H578.667V317.893H577.867V318.027H577.067V318.16H576.267V318.293H575.467V318.427H574.4V318.56H573.333V318.693H572V318.827H570.267V318.96" fill="url(#paint0_linear_283_420)"/>
<path d="M591.361 312.175C571.584 317.515 562.103 317.095 562.385 313.169L518.592 477.084C518.309 481.009 527.791 481.431 547.569 476.091C609.232 459.443 653.013 465.609 653.013 465.609L696.805 301.693C696.805 301.693 653.025 295.527 591.361 312.175Z" fill="url(#paint1_linear_283_420)"/>
<path d="M518.592 477.084C518.8 474.217 524.212 469.481 534.625 463.755C543.876 458.667 548.357 455.139 548.357 452.815L553.288 432.531L529.625 433.712L518.592 477.084" fill="url(#paint2_linear_283_420)"/>
<path d="M364.452 326.64C465.966 301.356 519.522 290.26 557.512 288.409C576.04 287.507 587.718 287.641 591.969 289.579L635.941 124.983C635.945 121.115 623.513 120.587 600.008 121.741C562.393 123.591 509.364 134.689 408.852 159.972C360.438 172.151 346.933 170.881 347.525 165.465L302.681 333.311C304.298 337.653 319.378 337.867 364.452 326.64" fill="url(#paint3_linear_283_420)"/>
<path d="M556.216 285.657C518.6 287.507 465.573 298.604 365.06 323.888C316.645 336.065 303.14 334.797 303.733 329.381L259.941 493.296C259.348 498.713 272.853 499.981 321.268 487.803C421.78 462.52 474.808 451.423 512.423 449.572C535.928 448.417 548.361 448.946 548.357 452.815L592.148 288.897C592.152 285.029 579.721 284.503 556.216 285.657" fill="url(#paint4_linear_283_420)"/>
<path d="M259.941 493.296C260.576 487.467 277.536 476.839 284.888 473.003C291.84 469.374 301.459 463.228 301.615 458.411L303.779 445.663L271.719 446.488L259.941 493.296" fill="url(#paint5_linear_283_420)"/>
<path d="M303.221 291.116C328.875 289.472 341.061 291.043 345.533 294.024L389.2 130.58C389.361 125.572 379.288 122.005 345.339 124.208C278.74 128.523 87.585 187.72 87.585 187.72L43.0698 354.339C57.5313 349.947 238.472 295.26 303.221 291.116" fill="url(#paint6_linear_283_420)"/>
<path d="M301.6 458.273C301.6 458.319 301.615 458.364 301.615 458.411L301.641 458.307C301.627 458.295 301.615 458.284 301.6 458.273" fill="url(#paint7_linear_283_420)"/>
<path d="M301.547 288.123C234.948 292.439 43.7921 351.636 43.7921 351.636L0 515.552C0 515.552 191.156 456.353 257.753 452.039C291.703 449.837 301.776 453.403 301.615 458.411L345.408 294.496C345.568 289.488 335.496 285.92 301.547 288.123Z" fill="url(#paint8_linear_283_420)"/>
<path d="M309.344 263.933C308.244 270.623 307.919 276.663 307.827 279.648H270.372V236.397H276.963C282.38 257.136 302.495 262.644 309.344 263.933ZM270.372 205.099V84.4773C275.537 92.02 284.972 107.563 288.369 124.692C290.296 140.977 293.588 168.209 295.327 182.571C290.691 185.156 280.423 192.181 276.967 205.099H270.372ZM385.289 310.453C383.137 317.172 379.288 325.649 372.475 333.18V310.453H385.289ZM349.372 310.453V333.18C342.56 325.645 338.715 317.168 336.565 310.453H349.372ZM360.924 205.343C363.565 213.715 368.852 228.955 376 242.116C370.66 245.695 363.608 250.477 360.924 252.296C358.24 250.477 351.188 245.695 345.847 242.116C352.996 228.955 358.283 213.715 360.924 205.343ZM346.497 279.399H331.531C331.983 275.091 332.683 271.945 333.389 269.419C339.26 270.764 343.657 274.109 346.497 279.399ZM390.316 279.399H375.355C378.195 274.109 382.591 270.764 388.463 269.419C389.145 271.865 389.861 275.061 390.316 279.399ZM451.475 236.397V279.648H414.017C413.924 276.663 413.6 270.623 412.499 263.933C419.349 262.644 439.468 257.136 444.892 236.397H451.475ZM451.475 84.4867V205.099H444.888C441.424 192.177 431.157 185.156 426.521 182.571C428.26 168.209 431.55 140.98 433.454 124.841C436.864 107.628 446.309 92.0427 451.475 84.4867ZM471.552 28.2547C471.073 28.476 423.641 51.172 410.644 113.959L401.043 198.324L401.061 209.673L403.608 208.871C403.619 208.867 404.904 208.469 407.425 208.469C408.96 208.469 420.805 211.031 423.471 220.533C421.065 229.865 411.589 232.9 407.301 232.9C404.028 232.9 402.721 232.587 402.301 232.441C399.789 228.795 374.528 190.675 373.977 135.361C374.128 115.492 374.888 97.032 375.557 80.7427C376.084 67.9987 376.535 56.9933 376.535 48.6827C376.535 48.124 376.524 47.1493 376.467 46.0267C376.505 43.9 376.535 41.864 376.535 39.9974C376.535 33.1747 375.155 15.7733 362.376 1.61467L360.924 0.0053591L359.472 1.61467C346.696 15.7693 345.316 33.1747 345.316 39.9974C345.316 41.86 345.343 43.904 345.389 45.896C345.328 47.1494 345.316 48.124 345.316 48.6827C345.316 56.9933 345.767 68.0027 346.291 80.7467C346.96 97.032 347.72 115.492 347.869 135.327C347.331 189.616 322.961 227.419 319.579 232.435C319.18 232.572 317.884 232.9 314.548 232.9C310.259 232.9 300.781 229.865 298.377 220.533C301.045 211.031 312.888 208.469 314.421 208.469C316.936 208.469 318.224 208.864 318.228 208.864L320.808 209.735L320.797 198.103L311.172 113.783C298.209 51.172 250.775 28.476 250.296 28.2547L247.513 26.9627V310.451H310.277C311.6 318.311 318.699 350.512 348.577 372.225C353.305 376.292 358.623 381.652 358.997 383.139L360.963 386.056L362.85 383.139C363.225 381.652 368.543 376.296 373.144 372.324C403.139 350.524 410.248 318.311 411.571 310.451H474.335V26.9627L471.552 28.2547" fill="black"/>
<path d="M443.348 207.66C440.201 193.187 427.969 186.069 424.417 184.276C426.108 170.316 429.552 141.291 431.536 124.509C436.456 99.6547 454.036 78.492 454.036 78.492V78.5V207.66C454.036 207.66 446.544 207.66 443.348 207.66ZM412.097 282.209C412.097 282.209 411.485 272.369 409.632 262.365C417.007 261.429 438.641 256.032 443.348 234.483H454.036V282.209H412.097ZM332.017 267.205C342.384 268.844 347.247 276.212 349.54 281.96H329.391C329.884 275.737 330.881 270.871 332.017 267.205ZM351.933 308.544C351.933 317.649 351.933 333.295 351.933 339.759C341.619 330.187 335.56 316.479 333.332 308.544H351.933ZM378.553 243.375C371.833 247.859 360.924 255.267 360.924 255.267C360.924 255.267 350.017 247.859 343.297 243.375C354.241 223.897 360.924 198.561 360.924 198.561C360.924 198.561 367.609 223.897 378.553 243.375ZM389.835 267.205C390.971 270.871 391.968 275.737 392.461 281.96H372.311C374.601 276.212 379.472 268.844 389.835 267.205V267.205ZM388.516 308.544C386.291 316.479 380.232 330.187 369.915 339.759C369.915 333.295 369.915 317.649 369.915 308.544H388.516ZM267.811 78.5V78.492C267.811 78.492 285.392 99.6547 290.312 124.509C292.3 141.291 295.74 170.316 297.429 184.276C293.883 186.069 281.649 193.187 278.507 207.66C275.304 207.66 267.811 207.66 267.811 207.66V78.5ZM278.507 234.483C283.205 256.032 304.837 261.429 312.216 262.365C310.361 272.369 310.355 282.209 310.355 282.209H267.811V234.483H278.507ZM413.195 114.18C406.551 172.487 403.604 198.324 403.604 198.324L403.027 198.608L403 207.048C403 207.048 404.472 206.559 407.425 206.559C410.068 206.559 423.432 210.339 426.088 221.145C423.661 231.723 412.507 235.461 407.301 235.461C401.399 235.461 400.909 233.871 400.909 233.871C400.909 233.871 372.177 194.589 371.604 135.361C371.868 99.5693 374.067 67.3453 374.067 48.7293C374.067 48.1853 374.059 47.2373 374.001 46.0213C374.043 43.9 374.067 41.86 374.067 39.9973C374.067 36.5493 373.891 18.3573 360.924 3.43068C347.957 18.3573 347.785 36.5493 347.785 39.9973C347.785 41.86 347.812 43.896 347.855 46.0213C347.797 47.2373 347.785 48.1853 347.785 48.7293C347.785 67.3453 349.979 99.5693 350.244 135.353C349.673 194.587 320.947 233.871 320.947 233.871C320.947 233.871 320.453 235.461 314.548 235.461C309.341 235.461 298.187 231.723 295.763 221.145C298.419 210.339 311.784 206.559 314.421 206.559C317.376 206.559 318.852 207.048 318.852 207.048L318.821 198.645L318.248 198.324C318.248 198.324 315.297 172.487 308.653 114.18C295.736 51.8066 250.075 31.24 250.075 31.24V38.7587V299.808L249.493 300.117L249.471 308.536H311.963C311.963 308.536 316.516 346.552 349.853 370.783C349.853 370.783 360.435 379.885 360.924 382.84C361.417 379.885 371.995 370.783 371.995 370.783C405.336 346.552 409.884 308.536 409.884 308.536H472.377L472.316 300.084L471.773 299.808V38.7587V31.24C471.773 31.24 426.112 51.8066 413.195 114.18Z" fill="#525D71"/>
<path d="M312 309.76V308.827H311.867V308.56H250.133V289.093H312.133V309.76" fill="url(#paint9_linear_283_420)"/>
<path d="M332 282.16V281.893H349.333V281.493H349.2V281.227H349.067V280.96H348.933V280.693H348.8V280.293H348.667V280.027H348.533V279.76H348.4V279.493H348.267V279.227H348.133V279.093H348V278.827H347.867V278.56H347.733V278.293H347.6V278.027H347.467V277.893H347.333V277.627H347.2V277.36H347.067V277.227H346.933V276.96H346.8V276.827H346.667V276.56H346.533V276.427H346.4V276.293H346.267V276.027H346.133V275.893H346V275.627H345.867V275.493H345.733V275.227H345.6V275.093H345.467V274.96H345.333V274.827H345.2V274.693H345.067V274.56H344.933V274.427H344.8V274.16H344.667V274.027H344.533V273.893H344.4V273.76H344.267V273.627H344.133V273.493H344V273.36H343.867V273.227H343.733V273.093H343.6V272.96H343.467V272.827H343.333V272.693H343.2V272.56H343.067V272.427H342.8V272.293H342.667V272.16H342.533V272.027H342.4V271.893H342.267V271.76H342.133V271.627H341.867V271.493H341.733V271.36H341.6V271.227H341.467V271.093H341.2V270.96H341.067V270.827H340.8V270.693H340.667V270.56H340.4V270.427H340.133V270.293H340V270.16H339.733V270.027H339.6V269.893H339.333V269.76H339.067V269.627H338.933V269.493H338.667V269.36H338.4V269.227H338V269.093H337.733V268.96H337.333V268.827H337.067V268.693H336.8V268.56H336.4V268.427H336.133V268.293H335.733V268.16H335.467V268.027H334.933V267.893H334.4V267.76H333.867V267.627H333.467V267.493H332.933V267.36H332V255.627H351.733V282.16" fill="url(#paint10_linear_283_420)"/>
<path d="M370.133 282.16V255.627H389.867V267.36H388.933V267.493H388.4V267.627H388V267.76H387.467V267.893H386.933V268.027H386.4V268.16H386V268.293H385.733V268.427H385.467V268.56H385.067V268.693H384.8V268.827H384.533V268.96H384.133V269.093H383.867V269.227H383.467V269.36H383.2V269.493H382.933V269.627H382.8V269.76H382.533V269.893H382.267V270.027H382.133V270.16H381.867V270.293H381.733V270.427H381.467V270.56H381.2V270.693H381.067V270.827H380.8V270.96H380.533V271.093H380.4V271.227H380.267V271.36H380.133V271.493H379.867V271.627H379.733V271.76H379.6V271.893H379.467V272.027H379.333V272.16H379.2V272.293H378.933V272.427H378.8V272.56H378.667V272.693H378.533V272.827H378.4V272.96H378.267V273.093H378V273.36H377.867V273.493H377.733V273.627H377.6V273.76H377.467V273.893H377.333V274.027H377.2V274.16H377.067V274.293H376.933V274.56H376.8V274.693H376.667V274.827H376.533V274.96H376.4V275.093H376.267V275.227H376.133V275.493H376V275.627H375.867V275.893H375.733V276.027H375.6V276.16H375.467V276.427H375.333V276.56H375.2V276.827H375.067V276.96H374.933V277.227H374.8V277.36H374.667V277.627H374.533V277.76H374.4V278.027H374.267V278.293H374.133V278.56H374V278.827H373.867V278.96H373.733V279.227H373.6V279.493H373.467V279.76H373.333V280.027H373.2V280.293H373.067V280.56H372.933V280.827H372.8V281.227H372.667V281.493H372.533V281.76H372.4V281.893H389.867V282.16" fill="url(#paint11_linear_283_420)"/>
<path d="M389.733 282.16V281.893H392.4V281.227H392.267V280.027H392.133V278.827H392V277.627H391.867V276.693H391.733V275.893H391.6V275.093H391.467V274.16H391.333V273.36H391.2V272.827H391.067V272.16H390.933V271.493H390.8V270.96H390.667V270.293H390.533V269.76H390.4V269.227H390.267V268.827H390.133V268.293H390V267.76H389.867V267.36H389.733V255.627H392.933V282.16" fill="url(#paint12_linear_283_420)"/>
<path d="M328.933 282.16V255.627H332.133V267.36H332V267.76H331.866V268.16H331.733V268.693H331.6V269.227H331.466V269.76H331.333V270.293H331.2V270.827H331.066V271.493H330.933V272.16H330.8V272.693H330.666V273.36H330.533V274.027H330.4V274.96H330.266V275.76H330.133V276.693H330V277.493H329.866V278.693H329.733V279.893H329.6V281.093H329.466V281.893H332.133V282.16" fill="url(#paint13_linear_283_420)"/>
<path d="M407.467 262.693V237.627H442.533V238.027H442.4V238.427H442.267V238.693H442.133V239.093H442V239.36H441.867V239.76H441.733V240.027H441.6V240.427H441.467V240.693H441.333V241.093H441.2V241.36H441.067V241.627H440.933V242.027H440.8V242.293H440.667V242.427H440.533V242.693H440.4V242.96H440.267V243.227H440.133V243.493H440V243.627H439.867V243.893H439.733V244.16H439.6V244.427H439.467V244.693H439.333V244.96H439.2V245.093H439.067V245.36H438.933V245.493H438.8V245.627H438.667V245.893H438.533V246.027H438.4V246.293H438.267V246.427H438.133V246.693H438V246.827H437.867V246.96H437.733V247.227H437.6V247.36H437.467V247.627H437.333V247.76H437.2V247.893H437.067V248.027H436.933V248.293H436.8V248.427H436.667V248.56H436.533V248.693H436.4V248.827H436.267V248.96H436.133V249.093H436V249.36H435.867V249.493H435.733V249.627H435.6V249.76H435.467V249.893H435.333V250.027H435.2V250.16H435.067V250.427H434.933V250.56H434.667V250.693H434.533V250.827H434.4V250.96H434.267V251.093H434.133V251.227H434V251.36H433.867V251.493H433.733V251.627H433.6V251.76H433.467V251.893H433.333V252.027H433.2V252.16H433.067V252.293H432.933V252.427H432.667V252.56H432.533V252.693H432.4V252.827H432.267V252.96H432.133V253.093H431.867V253.227H431.733V253.36H431.6V253.493H431.333V253.627H431.2V253.76H431.067V253.893H430.933V254.027H430.667V254.16H430.533V254.293H430.4V254.427H430.133V254.56H430V254.693H429.733V254.827H429.6V254.96H429.333V255.093H429.2V255.227H428.933V255.36H428.8V255.493H428.533V255.627H428.4V255.76H428.133V255.893H428V256.027H427.733V256.16H427.6V256.293H427.333V256.427H427.067V256.56H426.8V256.693H426.533V256.827H426.4V256.96H426.133V257.093H425.867V257.227H425.6V257.36H425.333V257.493H425.2V257.627H424.933V257.76H424.667V257.893H424.267V258.027H424V258.16H423.733V258.293H423.467V258.427H423.2V258.56H422.933V258.693H422.667V258.827H422.267V258.96H422V259.093H421.6V259.227H421.333V259.36H420.933V259.493H420.667V259.627H420.267V259.76H420V259.893H419.6V260.027H419.2V260.16H418.8V260.293H418.4V260.427H418V260.56H417.6V260.693H417.2V260.827H416.8V260.96H416.267V261.093H415.867V261.227H415.333V261.36H414.8V261.493H414.267V261.627H413.733V261.76H413.2V261.893H412.533V262.027H411.867V262.16H411.067V262.293H410.267V262.427H409.733V262.693" fill="url(#paint14_linear_283_420)"/>
<path d="M443.333 234.56H453.467V226.427H443.333V234.56Z" fill="url(#paint15_linear_283_420)"/>
<path d="M312.133 262.693V262.427H311.6V262.293H310.8V262.16H310V262.027H309.333V261.893H308.667V261.76H308.133V261.627H307.6V261.493H306.933V261.36H306.533V261.227H306V261.093H305.6V260.96H305.067V260.827H304.667V260.693H304.133V260.56H303.733V260.427H303.333V260.293H303.067V260.16H302.667V260.027H302.267V259.893H301.867V259.76H301.467V259.627H301.2V259.493H300.8V259.36H300.533V259.227H300.133V259.093H299.867V258.96H299.467V258.827H299.2V258.693H298.933V258.56H298.667V258.427H298.4V258.293H298.133V258.16H297.867V258.027H297.467V257.893H297.2V257.76H296.933V257.627H296.667V257.493H296.4V257.36H296.267V257.227H296V257.093H295.733V256.96H295.467V256.827H295.2V256.693H295.067V256.56H294.8V256.427H294.533V256.293H294.267V256.16H294.133V256.027H293.867V255.893H293.733V255.76H293.467V255.627H293.333V255.493H293.067V255.36H292.933V255.227H292.667V255.093H292.4V254.96H292.267V254.827H292V254.693H291.867V254.56H291.6V254.427H291.467V254.293H291.333V254.16H291.2V254.027H290.933V253.893H290.8V253.76H290.667V253.627H290.4V253.493H290.267V253.36H290.133V253.227H290V253.093H289.733V252.96H289.6V252.827H289.467V252.693H289.2V252.56H289.067V252.427H288.933V252.293H288.8V252.16H288.667V252.027H288.533V251.893H288.4V251.76H288.267V251.627H288.133V251.493H288V251.36H287.867V251.227H287.733V251.093H287.6V250.96H287.467V250.827H287.2V250.693H287.067V250.56H286.933V250.427H286.8V250.293H286.667V250.027H286.533V249.893H286.4V249.76H286.267V249.627H286.133V249.493H286V249.36H285.867V249.227H285.733V248.96H285.6V248.827H285.467V248.693H285.333V248.56H285.2V248.427H285.067V248.293H284.933V248.16H284.8V247.893H284.667V247.76H284.533V247.627H284.4V247.36H284.267V247.227H284.133V247.093H284V246.827H283.867V246.693H283.733V246.427H283.6V246.293H283.467V246.027H283.333V245.893H283.2V245.76H283.067V245.493H282.933V245.36H282.8V245.093H282.667V244.96H282.533V244.693H282.4V244.427H282.267V244.16H282.133V243.893H282V243.76H281.867V243.493H281.733V243.227H281.6V242.96H281.467V242.693H281.333V242.56H281.2V242.293H281.067V242.027H280.933V241.76H280.8V241.36H280.667V241.093H280.533V240.693H280.4V240.427H280.267V240.027H280.133V239.76H280V239.493H279.867V239.093H279.733V238.827H279.6V238.427H279.467V238.027H279.333V237.627H314.4V262.693" fill="url(#paint16_linear_283_420)"/>
<path d="M426 220.96V220.827H425.867V220.427H425.734V220.027H425.6V219.627H425.467V219.227H425.334V218.96H425.2V218.693H425.067V218.427H424.934V218.16H424.8V217.893H424.667V217.493H424.534V217.36H424.4V217.093H424.267V216.96H424.134V216.693H424V216.427H423.867V216.293H423.734V216.027H423.6V215.893H423.467V215.627H423.334V215.493H423.2V215.36H423.067V215.227H422.934V214.96H422.8V214.827H422.667V214.693H422.534V214.56H422.4V214.293H422.267V214.16H422.134V214.027H422V213.893H421.867V213.76H421.734V213.627H421.6V213.493H421.467V213.36H421.334V213.227H421.2V213.093H421.067V212.96H420.934V212.827H420.667V212.693H420.534V212.56H420.4V212.427H420.267V212.293H420.134V212.16H420V212.027H419.734V211.893H419.6V211.76H419.467V211.627H419.2V211.493H419.067V211.36H418.934V211.227H418.667V211.093H418.534V210.96H418.267V210.827H418.134V210.693H417.867V210.56H417.734V210.427H417.467V210.293H417.334V210.16H417.067V210.027H416.8V209.893H416.667V209.76H416.4V209.627H416.134V209.493H415.867V209.36H415.6V209.227H415.334V209.093H415.067V208.96H414.8V208.827H414.534V208.693H414.267V208.56H414V208.427H413.6V208.293H413.334V208.16H412.934V208.027H412.667V207.893H412.267V207.76H411.867V207.627H411.467V207.493H411.2V207.36H410.667V207.227H410.267V207.093H409.734V206.96H409.2V206.827H408.534V206.693H407.467V206.56H406.934V206.693H405.067V206.827H404V206.96H403.467V207.093H402.934V198.56H403.067V198.427H403.334V198.293H403.6V197.093H403.734V195.893H403.867V195.227H426.534V220.96" fill="url(#paint17_linear_283_420)"/>
<path d="M295.333 220.96V195.227H318V196.027H318.133V197.227H318.267V198.293H318.533V198.427H318.8V198.56H318.933V207.093H318.4V206.96H317.733V206.827H316.8V206.693H314.933V206.56H314.267V206.693H313.333V206.827H312.667V206.96H312.133V207.093H311.6V207.227H311.2V207.36H310.667V207.493H310.267V207.627H309.867V207.76H309.6V207.893H309.2V208.027H308.933V208.16H308.533V208.293H308.267V208.427H307.867V208.56H307.6V208.693H307.333V208.827H307.067V208.96H306.8V209.093H306.533V209.227H306.267V209.36H306V209.493H305.733V209.627H305.467V209.76H305.2V209.893H305.067V210.027H304.8V210.16H304.533V210.293H304.4V210.427H304.133V210.56H304V210.693H303.733V210.827H303.467V210.96H303.333V211.093H303.2V211.227H302.933V211.36H302.8V211.493H302.667V211.627H302.4V211.76H302.267V211.893H302.133V212.027H301.867V212.16H301.733V212.293H301.6V212.427H301.467V212.56H301.333V212.693H301.067V212.827H300.933V212.96H300.8V213.093H300.667V213.227H300.533V213.36H300.4V213.493H300.267V213.627H300.133V213.76H300V213.893H299.867V214.027H299.733V214.16H299.6V214.293H299.467V214.427H299.333V214.693H299.2V214.827H299.067V214.96H298.933V215.093H298.8V215.36H298.667V215.493H298.533V215.627H298.4V215.76H298.267V216.027H298.133V216.293H298V216.427H297.867V216.693H297.733V216.827H297.6V217.093H297.467V217.36H297.333V217.493H297.2V217.76H297.067V218.027H296.933V218.427H296.8V218.693H296.667V218.96H296.533V219.227H296.4V219.627H296.267V220.027H296.133V220.427H296V220.827H295.867V220.96" fill="url(#paint18_linear_283_420)"/>
<path d="M267.733 170.16V61.4934H285.333V61.6267H285.467V61.76H285.6V62.0267H285.733V62.16H285.867V62.2934H286V62.56H286.133V62.6934H286.267V62.8267H286.4V63.0934H286.533V63.2267H286.667V63.36H286.8V63.6267H286.933V63.76H287.067V64.0267H287.2V64.16H287.333V64.2934H287.467V64.56H287.6V64.6934H287.733V64.96H287.867V65.0934H288V65.36H288.133V65.4934H288.267V65.76H288.4V65.8934H288.533V66.0267H288.667V66.2934H288.8V66.4267H288.933V66.6934H289.067V66.8267H289.2V67.0934H289.333V67.2267H289.467V67.4934H289.6V67.6267H289.733V67.8934H289.867V68.0267H290V68.2934H290.133V68.4267H290.267V68.6934H290.4V68.8267H290.533V69.0934H290.667V69.2267H290.8V69.4934H290.933V69.76H291.067V69.8934H291.2V70.16H291.333V70.2934H291.467V70.56H291.6V70.6934H291.733V70.96H291.867V71.2267H292V71.36H292.133V71.6267H292.267V71.8934H292.4V72.0267H292.533V72.2934H292.667V144.427H292.533V143.36H292.4V142.16H292.267V141.093H292.133V139.893H292V138.827H291.867V137.627H291.733V136.56H291.6V135.493H291.467V134.293H291.333V133.227H291.2V132.027H291.067V130.96H290.933V129.76H290.8V128.693H290.667V127.627H290.533V126.427H290.4V125.36H290.267V124.293H290.133V123.627H290V123.093H289.867V122.56H289.733V122.027H289.6V121.36H289.467V120.827H289.333V120.293H289.2V119.76H289.067V119.36H288.933V118.827H288.8V118.427H288.667V118.027H288.533V117.493H288.4V117.093H288.267V116.56H288.133V116.16H288V115.627H287.867V115.227H287.733V114.827H287.6V114.56H287.467V114.16H287.333V113.76H287.2V113.36H287.067V112.96H286.933V112.56H286.8V112.16H286.667V111.893H286.533V111.493H286.4V111.093H286.267V110.693H286.133V110.427H286V110.027H285.867V109.76H285.733V109.36H285.6V109.093H285.467V108.693H285.333V108.427H285.2V108.027H285.067V107.76H284.933V107.493H284.8V107.093H284.667V106.827H284.533V106.427H284.4V106.16H284.267V105.893H284.133V105.627H284V105.36H283.867V104.96H283.733V104.693H283.6V104.427H283.467V104.16H283.333V103.76H283.2V103.493H283.067V103.227H282.933V102.96H282.8V102.693H282.667V102.427H282.533V102.16H282.4V101.893H282.267V101.627H282.133V101.36H282V101.093H281.867V100.827H281.733V100.56H281.6V100.293H281.467V100.027H281.333V99.76H281.2V99.4934H281.067V99.2267H280.933V98.96H280.8V98.6934H280.667V98.4267H280.533V98.16H280.4V97.8934H280.267V97.6267H280.133V97.36H280V97.2267H279.867V96.96H279.733V96.6934H279.6V96.4267H279.467V96.16H279.333V95.8934H279.2V95.6267H279.067V95.4934H278.933V95.2267H278.8V94.96H278.667V94.6934H278.533V94.56H278.4V94.2934H278.267V94.0267H278.133V93.8934H278V93.6267H277.867V93.36H277.733V93.0934H277.6V92.96H277.467V92.6934H277.333V92.4267H277.2V92.16H277.067V92.0267H276.933V91.76H276.8V91.6267H276.667V91.36H276.533V91.0934H276.4V90.96H276.267V90.6934H276.133V90.4267H276V90.2934H275.867V90.0267H275.733V89.8934H275.6V89.6267H275.467V89.36H275.333V89.2267H275.2V88.96H275.067V88.8267H274.933V88.56H274.8V88.4267H274.667V88.16H274.533V87.8934H274.4V87.76H274.267V87.4934H274.133V87.36H274V87.0934H273.867V86.96H273.733V86.6934H273.6V86.56H273.467V86.2934H273.333V86.16H273.2V85.8934H273.067V85.76H272.933V85.4934H272.8V85.36H272.667V85.0934H272.533V84.96H272.4V84.6934H272.267V84.56H272.133V84.4267H272V84.16H271.867V84.0267H271.733V83.76H271.6V83.6267H271.467V83.36H271.333V83.2267H271.2V83.0934H271.067V82.8267H270.933V82.6934H270.8V82.4267H270.667V82.2934H270.533V82.16H270.4V81.8934H270.267V81.76H270.133V81.6267H270V81.36H269.867V81.2267H269.733V81.0934H269.6V80.8267H269.467V80.6934H269.333V80.56H269.2V80.2934H269.067V80.16H268.933V80.0267H268.8V79.76H268.667V79.6267H268.533V79.4934H268.4V79.36H268.267V79.0934H268.133V78.96H268V78.8267H267.867V170.16" fill="url(#paint19_linear_283_420)"/>
<path d="M429.066 145.36V72.4266H429.2V72.2933H429.333V72.0266H429.466V71.76H429.6V71.6266H429.733V71.36H429.866V71.0933H430V70.96H430.133V70.6933H430.266V70.56H430.4V70.2933H430.533V70.0266H430.666V69.8933H430.8V69.6266H430.933V69.4933H431.066V69.2266H431.2V69.0933H431.333V68.8266H431.466V68.6933H431.6V68.4266H431.733V68.2933H431.866V68.0266H432V67.76H432.133V67.6266H432.266V67.36H432.4V67.2266H432.533V66.96H432.666V66.8266H432.8V66.56H432.933V66.4266H433.066V66.2933H433.2V66.0266H433.333V65.8933H433.466V65.6266H433.6V65.4933H433.733V65.2266H433.866V65.0933H434V64.96H434.133V64.6933H434.266V64.56H434.4V64.2933H434.533V64.16H434.666V63.8933H434.8V63.76H434.933V63.6266H435.066V63.36H435.2V63.2266H435.333V63.0933H435.466V62.8266H435.6V62.6933H435.733V62.56H435.866V62.2933H436V62.16H436.133V62.0266H436.266V61.76H436.4V61.6266H436.533V61.4933H454V78.8266H453.866V78.96H453.733V79.0933H453.6V79.2266H453.466V79.4933H453.333V79.6266H453.2V79.76H453.066V79.8933H452.933V80.16H452.8V80.2933H452.666V80.4266H452.533V80.6933H452.4V80.8266H452.266V80.96H452.133V81.2266H452V81.36H451.866V81.4933H451.733V81.76H451.6V81.8933H451.466V82.0266H451.333V82.2933H451.2V82.4266H451.066V82.6933H450.933V82.8266H450.8V82.96H450.666V83.2266H450.533V83.36H450.4V83.6266H450.266V83.76H450.133V83.8933H450V84.16H449.866V84.2933H449.733V84.56H449.6V84.6933H449.466V84.96H449.333V85.0933H449.2V85.36H449.066V85.4933H448.933V85.76H448.8V85.8933H448.666V86.16H448.533V86.2933H448.4V86.4266H448.266V86.6933H448.133V86.96H448V87.0933H447.866V87.36H447.733V87.4933H447.6V87.76H447.466V87.8933H447.333V88.16H447.2V88.2933H447.066V88.56H446.933V88.6933H446.8V88.96H446.666V89.0933H446.533V89.36H446.4V89.6266H446.266V89.76H446.133V90.0266H446V90.2933H445.866V90.4266H445.733V90.6933H445.6V90.8266H445.466V91.0933H445.333V91.36H445.2V91.4933H445.066V91.76H444.933V92.0266H444.8V92.16H444.666V92.4266H444.533V92.6933H444.4V92.8266H444.266V93.0933H444.133V93.36H444V93.6266H443.866V93.76H443.733V94.0266H443.6V94.2933H443.466V94.4266H443.333V94.6933H443.2V94.96H443.066V95.2266H442.933V95.36H442.8V95.6266H442.666V95.8933H442.533V96.16H442.4V96.4266H442.266V96.6933H442.133V96.96H442V97.0933H441.866V97.36H441.733V97.6266H441.6V97.8933H441.466V98.16H441.333V98.4266H441.2V98.6933H441.066V98.8266H440.933V99.0933H440.8V99.36H440.666V99.6266H440.533V99.8933H440.4V100.16H440.266V100.427H440.133V100.693H440V100.96H439.866V101.227H439.733V101.493H439.6V101.76H439.466V102.027H439.333V102.293H439.2V102.56H439.066V102.827H438.933V103.227H438.8V103.493H438.666V103.76H438.533V104.027H438.4V104.427H438.266V104.693H438.133V104.96H438V105.227H437.866V105.493H437.733V105.893H437.6V106.16H437.466V106.427H437.333V106.693H437.2V107.093H437.066V107.36H436.933V107.76H436.8V108.027H436.666V108.427H436.533V108.693H436.4V109.093H436.266V109.36H436.133V109.76H436V110.027H435.866V110.427H435.733V110.693H435.6V111.093H435.466V111.36H435.333V111.76H435.2V112.16H435.066V112.56H434.933V112.96H434.8V113.36H434.666V113.627H434.533V114.027H434.4V114.427H434.266V114.827H434.133V115.227H434V115.627H433.866V116.027H433.733V116.56H433.6V116.96H433.466V117.493H433.333V117.893H433.2V118.427H433.066V118.827H432.933V119.227H432.8V119.76H432.666V120.293H432.533V120.827H432.4V121.36H432.266V121.893H432.133V122.427H432V122.96H431.866V123.627H431.733V124.293H431.6V125.227H431.466V126.293H431.333V127.36H431.2V128.56H431.066V129.627H430.933V130.827H430.8V131.893H430.666V133.093H430.533V134.16H430.4V135.36H430.266V136.427H430.133V137.493H430V138.693H429.866V139.76H429.733V140.96H429.6V142.027H429.466V143.227H429.333V144.293H429.2V145.36" fill="url(#paint20_linear_283_420)"/>
<path d="M278.4 234.693V234.56H268.4V226.427H278.533V234.693" fill="url(#paint21_linear_283_420)"/>
<path d="M409.733 309.627V289.093H471.467V308.56H410V308.693H409.867V309.627" fill="url(#paint22_linear_283_420)"/>
<path d="M360.934 382.827V318.827H370V339.493H370.134V339.36H370.267V339.227H370.4V339.093H370.534V338.96H370.667V338.827H370.8V338.693H370.934V338.56H371.067V338.427H371.2V338.293H371.334V338.16H371.467V338.027H371.6V337.893H371.734V337.76H371.867V337.627H372V337.493H372.134V337.36H372.267V337.227H372.4V337.093H372.534V336.96H372.667V336.827H372.8V336.56H372.934V336.427H373.067V336.293H373.2V336.16H373.334V336.027H373.467V335.893H373.6V335.76H373.734V335.627H373.867V335.36H374V335.227H374.134V335.093H374.267V334.96H374.4V334.827H374.534V334.56H374.667V334.427H374.8V334.293H374.934V334.16H375.067V333.893H375.2V333.76H375.334V333.627H375.467V333.493H375.6V333.227H375.734V333.093H375.867V332.96H376V332.827H376.134V332.56H376.267V332.427H376.4V332.293H376.534V332.16H376.667V332.027H376.8V331.76H376.934V331.627H377.067V331.36H377.2V331.227H377.334V330.96H377.467V330.827H377.6V330.56H377.734V330.427H377.867V330.293H378V330.027H378.134V329.893H378.267V329.627H378.4V329.493H378.534V329.227H378.667V329.093H378.8V328.827H378.934V328.693H379.067V328.56H379.2V328.293H379.334V328.16H379.467V327.893H379.6V327.76H379.734V327.493H379.867V327.227H380V327.093H380.134V326.827H380.267V326.56H380.4V326.427H380.534V326.16H380.667V325.893H380.8V325.76H380.934V325.493H381.067V325.227H381.2V324.96H381.334V324.827H381.467V324.56H381.6V324.293H381.734V324.16H381.867V323.893H382V323.627H382.134V323.493H382.267V323.227H382.4V322.96H382.534V322.693H382.667V322.427H382.8V322.16H382.934V321.893H383.067V321.627H383.2V321.36H383.334V321.093H383.467V320.827H383.6V320.56H383.734V320.293H383.867V320.027H384V319.76H384.134V319.493H384.267V319.227H384.4V318.96H384.534V318.827H404.534V328.293H404.4V328.56H404.267V328.96H404.134V329.227H404V329.627H403.867V329.893H403.734V330.293H403.6V330.56H403.467V330.827H403.334V331.227H403.2V331.493H403.067V331.76H402.934V332.16H402.8V332.427H402.667V332.693H402.534V332.96H402.4V333.36H402.267V333.627H402.134V333.893H402V334.16H401.867V334.427H401.734V334.693H401.6V334.96H401.467V335.36H401.334V335.627H401.2V335.893H401.067V336.16H400.934V336.427H400.8V336.693H400.667V336.96H400.534V337.227H400.4V337.493H400.267V337.76H400.134V338.027H400V338.16H399.867V338.427H399.734V338.693H399.6V338.96H399.467V339.227H399.334V339.493H399.2V339.76H399.067V339.893H398.934V340.16H398.8V340.427H398.667V340.693H398.534V340.96H398.4V341.093H398.267V341.36H398.134V341.627H398V341.893H397.867V342.027H397.734V342.293H397.6V342.56H397.467V342.827H397.334V342.96H397.2V343.227H397.067V343.493H396.934V343.627H396.8V343.893H396.667V344.027H396.534V344.293H396.4V344.56H396.267V344.693H396.134V344.96H396V345.227H395.867V345.36H395.734V345.627H395.6V345.76H395.467V346.027H395.334V346.16H395.2V346.427H395.067V346.56H394.934V346.827H394.8V346.96H394.667V347.227H394.534V347.36H394.4V347.627H394.267V347.893H394.134V348.027H394V348.293H393.867V348.427H393.734V348.56H393.6V348.827H393.467V348.96H393.334V349.227H393.2V349.36H393.067V349.493H392.934V349.76H392.8V349.893H392.667V350.16H392.534V350.293H392.4V350.56H392.267V350.693H392.134V350.827H392V351.093H391.867V351.227H391.734V351.36H391.6V351.627H391.467V351.76H391.334V351.893H391.2V352.16H391.067V352.293H390.934V352.427H390.8V352.693H390.667V352.827H390.534V352.96H390.4V353.093H390.267V353.36H390.134V353.493H390V353.627H389.867V353.893H389.734V354.027H389.6V354.16H389.467V354.293H389.334V354.427H389.2V354.693H389.067V354.827H388.934V354.96H388.8V355.093H388.667V355.36H388.534V355.493H388.4V355.627H388.267V355.76H388.134V355.893H388V356.16H387.867V356.293H387.734V356.427H387.6V356.56H387.467V356.693H387.334V356.827H387.2V356.96H387.067V357.227H386.934V357.36H386.8V357.493H386.667V357.627H386.534V357.76H386.4V357.893H386.267V358.027H386.134V358.293H386V358.427H385.867V358.56H385.734V358.693H385.6V358.827H385.467V358.96H385.334V359.093H385.2V359.227H385.067V359.36H384.934V359.493H384.8V359.627H384.667V359.76H384.534V359.893H384.4V360.027H384.267V360.293H384.134V360.427H384V360.56H383.867V360.693H383.734V360.827H383.6V360.96H383.467V361.093H383.334V361.227H383.2V361.36H383.067V361.493H382.934V361.627H382.8V361.76H382.667V361.893H382.534V362.027H382.4V362.16H382.267V362.293H382.134V362.427H382V362.56H381.867V362.693H381.734V362.827H381.6V362.96H381.467V363.093H381.334V363.227H381.067V363.36H380.934V363.493H380.8V363.627H380.667V363.76H380.534V363.893H380.4V364.027H380.267V364.16H380.134V364.293H380V364.427H379.867V364.56H379.734V364.693H379.6V364.827H379.334V364.96H379.2V365.093H379.067V365.227H378.934V365.36H378.8V365.493H378.667V365.627H378.534V365.76H378.4V365.893H378.267V366.027H378V366.16H377.867V366.293H377.734V366.427H377.6V366.56H377.467V366.693H377.2V366.827H377.067V366.96H376.934V367.093H376.8V367.227H376.667V367.36H376.4V367.493H376.267V367.627H376.134V367.76H376V367.893H375.867V368.027H375.6V368.16H375.467V368.293H375.334V368.427H375.2V368.56H374.934V368.693H374.8V368.827H374.667V368.96H374.534V369.093H374.267V369.227H374.134V369.36H374V369.493H373.734V369.627H373.6V369.76H373.467V369.893H373.2V370.027H373.067V370.16H372.934V370.293H372.8V370.427H372.534V370.56H372.4V370.693H372.134V370.827H372V370.96H371.867V371.093H371.734V371.227H371.6V371.36H371.467V371.493H371.2V371.627H371.067V371.76H370.934V371.893H370.8V372.027H370.667V372.16H370.534V372.293H370.4V372.427H370.267V372.56H370V372.693H369.867V372.827H369.734V372.96H369.6V373.093H369.467V373.227H369.334V373.36H369.2V373.493H369.067V373.627H368.934V373.76H368.8V373.893H368.667V374.027H368.534V374.16H368.267V374.293H368.134V374.427H368V374.56H367.867V374.693H367.734V374.827H367.6V374.96H367.467V375.093H367.334V375.227H367.2V375.36H367.067V375.493H366.934V375.627H366.8V375.76H366.667V375.893H366.534V376.027H366.4V376.16H366.267V376.293H366.134V376.427H366V376.56H365.867V376.693H365.734V376.827H365.6V376.96H365.467V377.093H365.334V377.227H365.2V377.36H365.067V377.493H364.934V377.627H364.8V377.76H364.667V377.893H364.534V378.027H364.4V378.16H364.267V378.293H364.134V378.427H364V378.693H363.867V378.827H363.734V378.96H363.6V379.093H363.467V379.227H363.334V379.36H363.2V379.493H363.067V379.76H362.934V379.893H362.8V380.027H362.667V380.16H362.534V380.293H362.4V380.56H362.267V380.693H362.134V380.827H362V381.093H361.867V381.227H361.734V381.493H361.6V381.627H361.467V381.893H361.334V382.16H361.2V382.427H361.067V382.827" fill="url(#paint23_linear_283_420)"/>
<path d="M378.134 242.96V242.693H378V242.427H377.867V242.16H377.734V241.893H377.6V241.76H377.467V241.493H377.334V241.227H377.2V240.96H377.067V240.693H376.934V240.427H376.8V240.16H376.667V239.893H376.534V239.627H376.4V239.36H376.267V239.093H376.134V238.827H376V238.56H375.867V238.293H375.734V238.027H375.6V237.76H375.467V237.493H375.334V237.227H375.2V236.96H375.067V236.693H374.934V236.427H374.8V236.16H374.667V235.893H374.534V235.627H374.4V235.36H374.267V235.093H374.134V234.827H374V234.56H373.867V234.293H373.734V233.893H373.6V233.627H373.467V233.36H373.334V233.093H373.2V232.827H373.067V232.56H372.934V232.16H372.8V231.893H372.667V231.627H372.534V231.36H372.4V230.96H372.267V230.693H372.134V230.427H372V230.16H371.867V229.76H371.734V229.493H371.6V229.227H371.467V228.827H371.334V228.56H371.2V228.293H371.067V227.893H370.934V227.627H370.8V227.36H370.667V226.96H370.534V226.693H370.4V226.293H370.267V226.027H370.134V225.627H370V225.36H369.867V225.093H369.734V224.693H369.6V224.427H369.467V224.027H369.334V223.76H369.2V223.36H369.067V222.96H368.934V222.693H368.8V222.293H368.667V222.027H368.534V221.627H368.4V221.36H368.267V220.96H368.134V220.56H368V220.293H367.867V219.893H367.734V219.493H367.6V219.227H367.467V218.827H367.334V218.427H367.2V218.16H367.067V217.76H366.934V217.36H366.8V216.96H366.667V216.693H366.534V216.293H366.4V215.893H366.267V215.493H366.134V215.093H366V214.827H365.867V214.427H365.734V214.027H365.6V213.627H365.467V213.227H365.334V212.827H365.2V212.427H365.067V212.027H364.934V211.627H364.8V211.227H364.667V210.827H364.534V210.427H364.4V210.027H364.267V209.627H364.134V209.227H364V208.827H363.867V208.427H363.734V208.027H363.6V207.627H363.467V207.227H363.334V206.827H363.2V206.293H363.067V205.893H362.934V205.493H362.8V205.093H362.667V204.693H362.534V204.16H362.4V203.76H362.267V203.36H362.134V202.827H362V202.427H361.867V201.893H361.734V201.493H361.6V201.093H361.467V200.56H361.334V200.16H361.2V199.627H361.067V199.093H360.934V189.227H379.867V242.96" fill="url(#paint24_linear_283_420)"/>
<path d="M396.765 317.336H325.633V289.193H396.765V317.336Z" fill="#273041"/>
<path d="M453.432 69.768V207.056C453.432 207.056 446.544 207.056 443.348 207.056C439.655 190.075 423.417 183.191 423.417 183.191C423.417 183.191 428.829 138.656 431.536 115.779C436.456 90.9239 453.432 69.768 453.432 69.768V69.768ZM453.432 281.605H412.097C412.097 281.605 412.097 266.348 408.164 253.803C412.097 253.803 438.057 249.992 443.348 225.756H453.432V281.605ZM370.275 281.356C370.275 281.356 371 261.452 389.835 258.477C391.436 263.645 392.781 269.919 392.781 281.356H370.275ZM370.519 337.948C370.519 327.859 370.519 299.812 370.519 299.812H389.712C389.712 299.812 387.621 322.075 370.519 337.948ZM360.924 254.663C360.924 254.663 344.44 243.467 339.517 240.267C352.683 220.343 360.924 189.831 360.924 189.831C360.924 189.831 369.165 220.343 382.331 240.267C377.408 243.467 360.924 254.663 360.924 254.663ZM329.061 281.356C329.061 269.919 330.419 263.645 332.017 258.477C350.851 261.452 351.573 281.356 351.573 281.356H329.061ZM351.329 337.948C334.233 322.075 332.139 299.812 332.139 299.812H351.329C351.329 299.812 351.329 327.859 351.329 337.948ZM309.747 281.605H268.416V225.756H278.507C283.791 249.992 309.747 253.803 313.684 253.803C309.747 266.348 309.747 281.605 309.747 281.605V281.605ZM268.416 69.768C268.416 69.768 285.392 90.9239 290.312 115.779C293.019 138.656 298.431 183.191 298.431 183.191C298.431 183.191 282.192 190.075 278.507 207.056C275.304 207.056 268.416 207.056 268.416 207.056V69.768ZM412.591 114.18C405.947 172.487 403 198.324 403 198.324C403 198.324 404.472 197.828 407.425 197.828C410.381 197.828 426 201.765 426 215.912C426 230.06 413.209 234.857 407.301 234.857C401.399 234.857 400.909 233.871 400.909 233.871C400.909 233.871 371.995 193.768 371.995 133.492C371.995 94.9906 374.579 59.7986 374.579 39.9973C374.579 36.5493 374.395 17.8533 360.924 2.92528C347.452 17.8533 347.273 36.5493 347.273 39.9973C347.273 59.7986 349.853 94.9906 349.853 133.492C349.853 193.768 320.947 233.871 320.947 233.871C320.947 233.871 320.453 234.857 314.548 234.857C308.637 234.857 295.847 230.06 295.847 215.912C295.847 201.765 311.473 197.828 314.421 197.828C317.376 197.828 318.852 198.324 318.852 198.324C318.852 198.324 315.9 172.487 309.256 114.18C296.344 51.8066 249.471 30.028 249.471 30.028V299.808H311.963C311.963 299.808 316.516 337.821 349.853 362.057C349.853 362.057 360.435 371.159 360.924 374.113C361.417 371.159 371.995 362.057 371.995 362.057C405.336 337.821 409.884 299.808 409.884 299.808H472.377V30.028C472.377 30.028 425.508 51.8066 412.591 114.18" fill="url(#paint25_linear_283_420)"/>
<path d="M268.416 70.0974C268.416 70.0974 285.392 91.2561 290.312 116.107C292.663 135.984 297.235 174.035 298.347 183.201C298.507 183.133 298.615 183.084 298.615 183.084C298.615 183.084 293.019 136.696 290.312 113.817C285.392 88.9654 268.416 67.8027 268.416 67.8027V67.8107V205.095V70.1014V70.0974" fill="white"/>
<path d="M370.519 297.851C370.519 297.851 370.519 298.704 370.519 300.145H389.651C389.9 298.688 389.983 297.851 389.983 297.851H370.519Z" fill="white"/>
<path d="M340.556 238.985C353.114 219.069 360.924 190.167 360.924 190.167C360.924 190.167 368.738 219.069 381.295 238.985C381.616 239.495 382.247 240.359 382.247 240.359L383.316 239.693C383.316 239.693 382.548 238.661 382.331 238.309C369.166 218.379 360.924 187.873 360.924 187.873C360.924 187.873 352.683 218.379 339.518 238.309C339.264 238.692 338.631 239.659 338.631 239.659L339.7 240.359C339.7 240.359 340.298 239.46 340.556 238.985Z" fill="white"/>
<path d="M331.833 297.851C331.833 297.851 331.909 298.688 332.163 300.145H351.329C351.329 298.704 351.329 297.851 351.329 297.851H331.833Z" fill="white"/>
<path d="M295.847 213.951C295.847 214.388 295.896 214.792 295.919 215.209C296.68 201.925 311.547 198.16 314.421 198.16C317.376 198.16 318.852 198.653 318.852 198.653C318.852 198.653 318.768 197.863 318.584 196.283C318.033 196.145 316.649 195.867 314.421 195.867C311.473 195.867 295.847 199.804 295.847 213.951Z" fill="white"/>
<path d="M278.507 223.791H268.416V226.085H278.507C283.557 249.253 307.98 253.844 313.523 254.2C313.729 253.436 313.951 252.679 314.18 251.933C310.243 251.933 283.791 248.031 278.507 223.791" fill="white"/>
<path d="M371.995 360.096C371.995 360.096 361.417 369.197 360.924 372.152C360.435 369.197 349.853 360.096 349.853 360.096C316.516 335.86 311.963 297.847 311.963 297.847H249.471V300.141H311.963C311.963 300.141 316.516 338.153 349.853 362.389C349.853 362.389 360.435 371.491 360.924 374.443C361.417 371.491 371.995 362.389 371.995 362.389C405.336 338.153 409.884 300.141 409.884 300.141H472.377V297.847H409.884C409.884 297.847 405.336 335.86 371.995 360.096Z" fill="white"/>
<path d="M425.932 215.209C425.955 214.792 426 214.388 426 213.951C426 199.804 410.381 195.867 407.425 195.867C405.197 195.867 403.813 196.145 403.271 196.283C403.087 197.863 403 198.653 403 198.653C403 198.653 404.472 198.16 407.425 198.16C410.305 198.16 425.175 201.925 425.932 215.209" fill="white"/>
<path d="M453.432 67.8027C453.432 67.8027 436.456 88.9653 431.536 113.817C428.829 136.696 423.203 183.019 423.203 183.019C423.203 183.019 423.309 183.064 423.467 183.137C424.579 173.967 429.189 135.984 431.536 116.107C436.456 91.256 453.432 70.0973 453.432 70.0973V67.8106V67.8027Z" fill="white"/>
<path d="M389.835 256.517C371 259.491 370.476 279.395 370.476 279.395C371.313 274.093 374.929 261.165 389.835 258.811C391.321 263.612 392.576 269.423 392.751 279.395H392.781C392.781 267.957 391.436 261.681 389.835 256.517Z" fill="white"/>
<path d="M443.348 223.791C438.057 248.031 411.567 251.933 407.633 251.933C407.865 252.679 408.084 253.436 408.295 254.2C413.833 253.844 438.291 249.253 443.348 226.085H453.432V223.791H443.348Z" fill="white"/>
<path d="M332.018 256.517C330.419 261.681 329.062 267.957 329.062 279.395H329.096C329.268 269.423 330.53 263.612 332.018 258.811C346.926 261.165 350.534 274.093 351.367 279.395C351.367 279.395 350.851 259.491 332.018 256.517Z" fill="white"/>
<defs>
<linearGradient id="paint0_linear_283_420" x1="712.224" y1="244.165" x2="589.553" y2="211.296" gradientUnits="userSpaceOnUse">
<stop stop-color="#4587CC"/>
<stop offset="0.515152" stop-color="#005BBB"/>
<stop offset="1" stop-color="#08397F"/>
</linearGradient>
<linearGradient id="paint1_linear_283_420" x1="668.799" y1="406.704" x2="546.131" y2="373.835" gradientUnits="userSpaceOnUse">
<stop stop-color="#FEDE45"/>
<stop offset="0.515152" stop-color="#FFD500"/>
<stop offset="1" stop-color="#D89511"/>
</linearGradient>
<linearGradient id="paint2_linear_283_420" x1="547.062" y1="457.74" x2="524.976" y2="451.914" gradientUnits="userSpaceOnUse">
<stop stop-color="#D82611"/>
<stop offset="0.769697" stop-color="#D86911"/>
<stop offset="0.987879" stop-color="#D89511"/>
<stop offset="1" stop-color="#D89511"/>
</linearGradient>
<linearGradient id="paint3_linear_283_420" x1="598.912" y1="263.672" x2="339.813" y2="194.247" gradientUnits="userSpaceOnUse">
<stop stop-color="#4587CC"/>
<stop offset="0.0363636" stop-color="#185EAD"/>
<stop offset="0.10303" stop-color="#4587CC"/>
<stop offset="0.321212" stop-color="#005BBB"/>
<stop offset="1" stop-color="#08397F"/>
</linearGradient>
<linearGradient id="paint4_linear_283_420" x1="555.499" y1="426.163" x2="296.403" y2="356.738" gradientUnits="userSpaceOnUse">
<stop stop-color="#FEDE45"/>
<stop offset="0.0363636" stop-color="#EDBD28"/>
<stop offset="0.10303" stop-color="#FEDE45"/>
<stop offset="0.321212" stop-color="#FFD500"/>
<stop offset="1" stop-color="#D89511"/>
</linearGradient>
<linearGradient id="paint5_linear_283_420" x1="296.761" y1="472.327" x2="267.493" y2="466.734" gradientUnits="userSpaceOnUse">
<stop stop-color="#D82611"/>
<stop offset="0.769697" stop-color="#D86911"/>
<stop offset="0.987879" stop-color="#D89511"/>
<stop offset="1" stop-color="#D89511"/>
</linearGradient>
<linearGradient id="paint6_linear_283_420" x1="349.776" y1="276.488" x2="83.5414" y2="205.151" gradientUnits="userSpaceOnUse">
<stop stop-color="#4587CC"/>
<stop offset="0.0121212" stop-color="#185EAD"/>
<stop offset="0.10303" stop-color="#4587CC"/>
<stop offset="0.321212" stop-color="#005BBB"/>
<stop offset="1" stop-color="#08397F"/>
</linearGradient>
<linearGradient id="paint7_linear_283_420" x1="301.632" y1="458.348" x2="301.584" y2="458.335" gradientUnits="userSpaceOnUse">
<stop stop-color="#4587CC"/>
<stop offset="0.0121212" stop-color="#185EAD"/>
<stop offset="0.10303" stop-color="#4587CC"/>
<stop offset="0.321212" stop-color="#005BBB"/>
<stop offset="1" stop-color="#08397F"/>
</linearGradient>
<linearGradient id="paint8_linear_283_420" x1="306.344" y1="439.053" x2="39.4907" y2="367.55" gradientUnits="userSpaceOnUse">
<stop stop-color="#FEDE45"/>
<stop offset="0.0121212" stop-color="#EDBD28"/>
<stop offset="0.10303" stop-color="#FEDE45"/>
<stop offset="0.321212" stop-color="#FFD500"/>
<stop offset="1" stop-color="#D89511"/>
</linearGradient>
<linearGradient id="paint9_linear_283_420" x1="311.535" y1="303.385" x2="249.661" y2="303.385" gradientUnits="userSpaceOnUse">
<stop stop-color="#273041"/>
<stop offset="1" stop-color="#525D71"/>
</linearGradient>
<linearGradient id="paint10_linear_283_420" x1="351.511" y1="268.859" x2="331.873" y2="268.859" gradientUnits="userSpaceOnUse">
<stop stop-color="#273041"/>
<stop offset="1" stop-color="#525D71"/>
</linearGradient>
<linearGradient id="paint11_linear_283_420" x1="370.359" y1="268.856" x2="389.995" y2="268.856" gradientUnits="userSpaceOnUse">
<stop stop-color="#273041"/>
<stop offset="1" stop-color="#525D71"/>
</linearGradient>
<linearGradient id="paint12_linear_283_420" x1="389.807" y1="268.856" x2="392.854" y2="268.856" gradientUnits="userSpaceOnUse">
<stop stop-color="#273041"/>
<stop offset="1" stop-color="#525D71"/>
</linearGradient>
<linearGradient id="paint13_linear_283_420" x1="332.053" y1="268.859" x2="329.006" y2="268.859" gradientUnits="userSpaceOnUse">
<stop stop-color="#273041"/>
<stop offset="1" stop-color="#525D71"/>
</linearGradient>
<linearGradient id="paint14_linear_283_420" x1="407.829" y1="250.117" x2="442.945" y2="250.117" gradientUnits="userSpaceOnUse">
<stop stop-color="#273041"/>
<stop offset="1" stop-color="#525D71"/>
</linearGradient>
<linearGradient id="paint15_linear_283_420" x1="443.445" y1="232.216" x2="453.483" y2="232.216" gradientUnits="userSpaceOnUse">
<stop stop-color="#273041"/>
<stop offset="1" stop-color="#525D71"/>
</linearGradient>
<linearGradient id="paint16_linear_283_420" x1="314.101" y1="250.117" x2="278.857" y2="250.117" gradientUnits="userSpaceOnUse">
<stop stop-color="#273041"/>
<stop offset="1" stop-color="#525D71"/>
</linearGradient>
<linearGradient id="paint17_linear_283_420" x1="426.274" y1="208.059" x2="402.393" y2="208.059" gradientUnits="userSpaceOnUse">
<stop stop-color="#273041"/>
<stop offset="1" stop-color="#525D71"/>
</linearGradient>
<linearGradient id="paint18_linear_283_420" x1="295.548" y1="208.061" x2="319.428" y2="208.061" gradientUnits="userSpaceOnUse">
<stop stop-color="#273041"/>
<stop offset="1" stop-color="#525D71"/>
</linearGradient>
<linearGradient id="paint19_linear_283_420" x1="268.009" y1="115.803" x2="292.814" y2="115.803" gradientUnits="userSpaceOnUse">
<stop stop-color="#273041"/>
<stop offset="1" stop-color="#525D71"/>
</linearGradient>
<linearGradient id="paint20_linear_283_420" x1="453.72" y1="115.799" x2="428.918" y2="115.799" gradientUnits="userSpaceOnUse">
<stop stop-color="#273041"/>
<stop offset="1" stop-color="#525D71"/>
</linearGradient>
<linearGradient id="paint21_linear_283_420" x1="278.36" y1="232.216" x2="268.318" y2="232.216" gradientUnits="userSpaceOnUse">
<stop stop-color="#273041"/>
<stop offset="1" stop-color="#525D71"/>
</linearGradient>
<linearGradient id="paint22_linear_283_420" x1="409.272" y1="303.385" x2="471.409" y2="303.385" gradientUnits="userSpaceOnUse">
<stop stop-color="#273041"/>
<stop offset="1" stop-color="#525D71"/>
</linearGradient>
<linearGradient id="paint23_linear_283_420" x1="360.644" y1="351.42" x2="404.534" y2="351.42" gradientUnits="userSpaceOnUse">
<stop stop-color="#273041"/>
<stop offset="1" stop-color="#525D71"/>
</linearGradient>
<linearGradient id="paint24_linear_283_420" x1="360.843" y1="216.091" x2="379.8" y2="216.091" gradientUnits="userSpaceOnUse">
<stop stop-color="#273041"/>
<stop offset="1" stop-color="#525D71"/>
</linearGradient>
<linearGradient id="paint25_linear_283_420" x1="360.924" y1="2.92527" x2="360.924" y2="374.113" gradientUnits="userSpaceOnUse">
<stop stop-color="#6C7CA6"/>
<stop offset="1" stop-color="#EBF5FC"/>
</linearGradient>
</defs>
</svg>
