<svg width="163" height="160" viewBox="0 0 163 160" fill="none" xmlns="http://www.w3.org/2000/svg">
<path d="M55.8366 9.78419C57.3044 0.282204 69.7111 -2.41348 74.9896 5.62266L79.0503 11.8049C83.0619 17.9122 91.6778 18.7785 96.8249 13.592L102.035 8.3419C108.808 1.51743 120.429 6.62899 119.976 16.233L119.628 23.6214C119.283 30.9203 125.745 36.6854 132.957 35.5148L140.258 34.3299C149.749 32.7897 156.146 43.756 150.135 51.2595L145.51 57.0319C140.941 62.7345 142.78 71.1963 149.303 74.4888L155.906 77.8217C164.489 82.154 163.219 94.7864 153.945 97.3232L146.811 99.2748C139.763 101.203 136.277 109.129 139.619 115.627L143.002 122.205C147.399 130.755 138.947 140.228 129.953 136.829L123.034 134.215C116.198 131.632 108.719 135.995 107.603 143.217L106.474 150.526C105.006 160.028 92.5995 162.724 87.321 154.688L83.2602 148.506C79.2486 142.398 70.6328 141.532 65.4857 146.719L60.2755 151.969C53.5028 158.793 41.8812 153.682 42.3343 144.078L42.6828 136.689C43.0272 129.39 36.566 123.625 29.3534 124.796L22.0523 125.981C12.5618 127.521 6.16416 116.555 12.1758 109.051L16.8006 103.279C21.3694 97.5762 19.5308 89.1143 13.0076 85.8218L6.40445 82.489C-2.17888 78.1567 -0.90877 65.5243 8.36521 62.9874L15.4997 61.0358C22.5478 59.1078 26.0341 51.1813 22.692 44.6834L19.3089 38.1058C14.9113 29.5558 23.364 20.0825 32.3579 23.4812L39.277 26.0959C46.1122 28.6789 53.5918 24.3154 54.7073 17.0941L55.8366 9.78419Z" stroke="black" stroke-opacity="0.5"/>
</svg>
