<svg width="166" height="166" viewBox="0 0 166 166" fill="none" xmlns="http://www.w3.org/2000/svg">
<path d="M62.5511 3.57609C62.3599 0.707455 66.3678 -0.163358 67.3842 2.52596L81.924 40.9978C82.9789 43.7891 86.819 44.0647 88.2617 41.4527L108.146 5.45146C109.536 2.93482 113.379 4.36907 112.78 7.18097L104.212 47.4064C103.59 50.3249 106.672 52.6328 109.298 51.2154L145.49 31.6798C148.02 30.3141 150.477 33.5981 148.453 35.6398L119.497 64.8474C117.397 66.9666 118.741 70.5741 121.716 70.8014L162.725 73.9337C165.591 74.1526 165.883 78.2437 163.076 78.867L122.927 87.7837C120.014 88.4306 119.194 92.1924 121.575 93.9921L154.38 118.798C156.673 120.532 154.706 124.131 152.008 123.138L113.412 108.933C110.611 107.902 107.888 110.624 108.917 113.425L123.104 152.028C124.095 154.727 120.495 156.692 118.762 154.398L93.9727 121.58C92.1741 119.199 88.4119 120.017 87.7635 122.93L78.827 163.075C78.2023 165.881 74.1114 165.587 73.8939 162.721L70.7818 121.711C70.556 118.735 66.9492 117.389 64.829 119.489L35.6071 148.43C33.5643 150.453 30.2816 147.994 31.6485 145.465L51.202 109.283C52.6207 106.657 50.3143 103.575 47.3955 104.195L7.16586 112.743C4.35363 113.34 2.92131 109.497 5.4386 108.109L41.4496 88.2416C44.0624 86.8002 43.7887 82.96 40.9979 81.9037L2.53327 67.3449C-0.155581 66.3272 0.717235 62.3197 3.58575 62.5124L44.621 65.2683C47.5983 65.4682 49.4442 62.0897 47.6676 59.6923L23.1801 26.649C21.4683 24.3392 24.3691 21.4398 26.6782 23.1527L59.7093 47.6565C62.1058 49.4343 65.4853 47.5901 65.2868 44.6127L62.5511 3.57609Z" stroke="black" stroke-opacity="0.5"/>
</svg>
