<svg width="162" height="166" viewBox="0 0 162 166" fill="none" xmlns="http://www.w3.org/2000/svg">
<path d="M47.0559 13.847C51.5541 0.858022 68.2075 -2.7604 77.6901 7.19086L83.9427 13.7525C89.2039 19.2737 97.2167 21.1909 104.407 18.6489L112.953 15.6278C125.912 11.0461 139.125 21.8102 137.257 35.4285L136.025 44.4082C134.989 51.964 138.486 59.424 144.956 63.4607L152.646 68.2582C164.309 75.5339 164.131 92.575 152.319 99.6054L144.53 104.241C137.977 108.142 134.325 115.527 135.203 123.103L136.247 132.106C137.83 145.761 124.395 156.246 111.534 151.395L103.054 148.196C95.918 145.504 87.8669 147.254 82.4915 152.664L76.1031 159.093C66.4147 168.844 49.8405 164.879 45.6147 151.799L42.8283 143.174C40.4837 135.917 34.0962 130.713 26.5149 129.883L17.5049 128.898C3.84069 127.402 -3.39274 111.972 4.19895 100.513L9.20477 92.9566C13.4168 86.5987 13.5029 78.3602 9.42459 71.9157L4.57771 64.2568C-2.77291 52.6414 4.78132 37.3653 18.4738 36.156L27.5024 35.3586C35.0994 34.6877 41.5942 29.6183 44.0899 22.4117L47.0559 13.847Z" stroke="black" stroke-opacity="0.5"/>
</svg>
