<svg width="30" height="30" viewBox="0 0 30 30" fill="none" xmlns="http://www.w3.org/2000/svg">
<path d="M15 13.75C15.9889 13.75 16.9556 13.4568 17.7779 12.9074C18.6001 12.3579 19.241 11.5771 19.6194 10.6634C19.9978 9.74979 20.0969 8.74446 19.9039 7.77455C19.711 6.80465 19.2348 5.91373 18.5355 5.21447C17.8363 4.51521 16.9454 4.039 15.9755 3.84608C15.0055 3.65315 14.0002 3.75217 13.0866 4.1306C12.173 4.50904 11.3921 5.14991 10.8427 5.97215C10.2932 6.7944 10 7.7611 10 8.75C10 10.0761 10.5268 11.3479 11.4645 12.2855C12.4021 13.2232 13.6739 13.75 15 13.75ZM15 6.25C15.4945 6.25 15.9778 6.39662 16.3889 6.67133C16.8 6.94603 17.1205 7.33648 17.3097 7.79329C17.4989 8.25011 17.5484 8.75278 17.452 9.23773C17.3555 9.72268 17.1174 10.1681 16.7678 10.5178C16.4181 10.8674 15.9727 11.1055 15.4877 11.202C15.0028 11.2984 14.5001 11.2489 14.0433 11.0597C13.5865 10.8705 13.196 10.5501 12.9213 10.1389C12.6466 9.7278 12.5 9.24446 12.5 8.75C12.5 8.08696 12.7634 7.45108 13.2322 6.98223C13.7011 6.51339 14.337 6.25 15 6.25Z" fill="black"/>
<path d="M15 16.25C12.6794 16.25 10.4538 17.1719 8.81282 18.8128C7.17187 20.4538 6.25 22.6794 6.25 25C6.25 25.3315 6.3817 25.6495 6.61612 25.8839C6.85054 26.1183 7.16848 26.25 7.5 26.25C7.83152 26.25 8.14946 26.1183 8.38388 25.8839C8.6183 25.6495 8.75 25.3315 8.75 25C8.75 23.3424 9.40848 21.7527 10.5806 20.5806C11.7527 19.4085 13.3424 18.75 15 18.75C16.6576 18.75 18.2473 19.4085 19.4194 20.5806C20.5915 21.7527 21.25 23.3424 21.25 25C21.25 25.3315 21.3817 25.6495 21.6161 25.8839C21.8505 26.1183 22.1685 26.25 22.5 26.25C22.8315 26.25 23.1495 26.1183 23.3839 25.8839C23.6183 25.6495 23.75 25.3315 23.75 25C23.75 22.6794 22.8281 20.4538 21.1872 18.8128C19.5462 17.1719 17.3206 16.25 15 16.25Z" fill="black"/>
</svg>
