<svg width="30" height="30" viewBox="0 0 30 30" fill="none" xmlns="http://www.w3.org/2000/svg">
<path d="M11.25 13.75C12.2389 13.75 13.2056 13.4568 14.0279 12.9074C14.8501 12.3579 15.491 11.5771 15.8694 10.6634C16.2478 9.74979 16.3469 8.74446 16.1539 7.77455C15.961 6.80465 15.4848 5.91373 14.7855 5.21447C14.0863 4.51521 13.1954 4.039 12.2255 3.84608C11.2555 3.65315 10.2502 3.75217 9.33658 4.1306C8.42295 4.50904 7.64206 5.14991 7.09265 5.97215C6.54324 6.7944 6.25 7.7611 6.25 8.75C6.25 10.0761 6.77678 11.3479 7.71447 12.2855C8.65215 13.2232 9.92392 13.75 11.25 13.75ZM11.25 6.25C11.7445 6.25 12.2278 6.39662 12.6389 6.67133C13.05 6.94603 13.3705 7.33648 13.5597 7.79329C13.7489 8.25011 13.7984 8.75278 13.702 9.23773C13.6055 9.72268 13.3674 10.1681 13.0178 10.5178C12.6681 10.8674 12.2227 11.1055 11.7377 11.202C11.2528 11.2984 10.7501 11.2489 10.2933 11.0597C9.83648 10.8705 9.44603 10.5501 9.17133 10.1389C8.89662 9.7278 8.75 9.24446 8.75 8.75C8.75 8.08696 9.01339 7.45108 9.48223 6.98223C9.95107 6.51339 10.587 6.25 11.25 6.25Z" fill="black"/>
<path d="M21.25 16.25C21.9917 16.25 22.7167 16.0301 23.3334 15.618C23.9501 15.206 24.4307 14.6203 24.7145 13.9351C24.9984 13.2498 25.0726 12.4958 24.9279 11.7684C24.7833 11.041 24.4261 10.3728 23.9017 9.84835C23.3772 9.3239 22.709 8.96675 21.9816 8.82206C21.2542 8.67736 20.5002 8.75162 19.8149 9.03545C19.1297 9.31928 18.544 9.79993 18.132 10.4166C17.7199 11.0333 17.5 11.7583 17.5 12.5C17.5 13.4946 17.8951 14.4484 18.5983 15.1517C19.3016 15.8549 20.2554 16.25 21.25 16.25ZM21.25 11.25C21.4972 11.25 21.7389 11.3233 21.9445 11.4607C22.15 11.598 22.3102 11.7932 22.4048 12.0216C22.4995 12.2501 22.5242 12.5014 22.476 12.7439C22.4278 12.9863 22.3087 13.2091 22.1339 13.3839C21.9591 13.5587 21.7363 13.6778 21.4939 13.726C21.2514 13.7742 21.0001 13.7495 20.7716 13.6549C20.5432 13.5602 20.348 13.4 20.2107 13.1945C20.0733 12.9889 20 12.7472 20 12.5C20 12.1685 20.1317 11.8505 20.3661 11.6161C20.6005 11.3817 20.9185 11.25 21.25 11.25Z" fill="black"/>
<path d="M21.25 17.5C19.8648 17.5015 18.5193 17.9632 17.425 18.8125C16.2006 17.593 14.6426 16.7633 12.9473 16.428C11.252 16.0928 9.4954 16.2671 7.89903 16.9289C6.30267 17.5907 4.93802 18.7104 3.97718 20.1468C3.01634 21.5832 2.50234 23.2719 2.5 25C2.5 25.3315 2.6317 25.6495 2.86612 25.8839C3.10054 26.1183 3.41848 26.25 3.75 26.25C4.08152 26.25 4.39946 26.1183 4.63388 25.8839C4.8683 25.6495 5 25.3315 5 25C5 23.3424 5.65848 21.7527 6.83058 20.5806C8.00269 19.4085 9.5924 18.75 11.25 18.75C12.9076 18.75 14.4973 19.4085 15.6694 20.5806C16.8415 21.7527 17.5 23.3424 17.5 25C17.5 25.3315 17.6317 25.6495 17.8661 25.8839C18.1005 26.1183 18.4185 26.25 18.75 26.25C19.0815 26.25 19.3995 26.1183 19.6339 25.8839C19.8683 25.6495 20 25.3315 20 25C20.003 23.5355 19.633 22.0944 18.925 20.8125C19.4774 20.376 20.1415 20.1038 20.8414 20.0271C21.5413 19.9504 22.2486 20.0722 22.8825 20.3787C23.5163 20.6852 24.0511 21.164 24.4255 21.7602C24.8 22.3564 24.9991 23.0459 25 23.75C25 24.0815 25.1317 24.3995 25.3661 24.6339C25.6005 24.8683 25.9185 25 26.25 25C26.5815 25 26.8995 24.8683 27.1339 24.6339C27.3683 24.3995 27.5 24.0815 27.5 23.75C27.5 22.0924 26.8415 20.5027 25.6694 19.3306C24.4973 18.1585 22.9076 17.5 21.25 17.5Z" fill="black"/>
</svg>
