<svg width="76" height="51" viewBox="0 0 76 51" fill="none" xmlns="http://www.w3.org/2000/svg">
<path opacity="0.75" d="M72.2804 19.2891C74.2941 19.363 75.5634 21.4345 74.5512 22.9952L65.1329 37.5183C64.4892 38.5108 64.4757 39.7697 65.0974 40.8321L73.8746 55.8323C74.8091 57.4294 73.6508 59.2956 71.7277 59.2912L52.3503 59.2469C51.1661 59.2441 50.0837 59.776 49.4502 60.6719L39.083 75.3328C38.0542 76.7878 35.6742 76.6603 34.6719 75.0965L25.2587 60.4088C24.592 59.3686 23.399 58.7025 22.1184 58.6556L3.38051 57.9685C1.36682 57.8947 0.0975293 55.8231 1.10967 54.2624L10.528 39.7394C11.1717 38.7468 11.1852 37.4879 10.5635 36.4255L1.78626 21.4253C0.851754 19.8282 2.01013 17.962 3.9332 17.9664L23.3106 18.0108C24.4948 18.0135 25.5772 17.4816 26.2107 16.5857L36.5779 1.92482C37.6067 0.469828 39.9867 0.597317 40.9889 2.1611L50.4022 16.8488C51.0689 17.889 52.2618 18.5551 53.5425 18.602L72.2804 19.2891Z" stroke="#272500"/>
</svg>
