<svg width="81" height="49" viewBox="0 0 81 49" fill="none" xmlns="http://www.w3.org/2000/svg">
<path opacity="0.75" d="M72.9717 18.2521C75.3058 18.0252 76.8716 20.5807 75.4041 22.2219L69.1922 29.169C67.7628 30.7676 68.3468 33.2509 70.3999 34.3041L78.9483 38.6892C81.0252 39.7546 80.7773 42.5518 78.5577 43.0961L68.3854 45.5905C66.2826 46.1062 65.25 48.2447 66.1948 50.1277L70.4685 58.6456C71.4402 60.5823 69.5018 62.545 67.3395 61.8138L57.1835 58.3795C55.1378 57.6878 52.9796 58.7483 52.5322 60.6651L50.3114 70.1814C49.8385 72.2075 46.9487 72.6174 45.6466 70.8431L39.9195 63.0393C38.6536 61.3142 36.0847 60.9454 34.4694 62.2568L26.6558 68.6006C24.9508 69.9849 22.1831 68.6696 22.2953 66.5284L22.757 57.7157C22.8679 55.5992 20.8428 53.8241 18.5693 54.0451L8.68921 55.0056C6.3551 55.2325 4.78928 52.6769 6.25679 51.0357L12.4687 44.0886C13.8981 42.49 13.3141 40.0068 11.261 38.9536L2.71262 34.5684C0.635658 33.503 0.883587 30.7059 3.10323 30.1616L13.2755 27.6671C15.3783 27.1515 16.4108 25.0129 15.4661 23.13L11.1924 14.612C10.2207 12.6753 12.1591 10.7126 14.3214 11.4438L24.4774 14.8781C26.5231 15.5699 28.6813 14.5093 29.1286 12.5925L31.3495 3.07623C31.8224 1.05014 34.7122 0.64023 36.0143 2.41455L41.7413 10.2183C43.0073 11.9434 45.5762 12.3122 47.1915 11.0008L55.0051 4.657C56.7101 3.27275 59.4778 4.58801 59.3656 6.7292L58.9038 15.5419C58.7929 17.6585 60.8181 19.4335 63.0916 19.2125L72.9717 18.2521Z" stroke="#272500"/>
</svg>
