<svg width="75" height="46" viewBox="0 0 75 46" fill="none" xmlns="http://www.w3.org/2000/svg">
<path opacity="0.75" d="M65.5361 14.9423C69.9645 14.779 72.8458 19.4815 70.3132 22.7388L67.0965 26.8758C65.2518 29.2484 65.7338 32.6203 68.2094 34.662L72.3341 38.0637C75.6484 40.7969 74.3295 45.7044 70.0983 46.3828L63.3762 47.4607C60.4085 47.9365 58.3425 50.3288 58.4718 53.1398L58.7534 59.2648C58.9327 63.1643 54.3133 65.4343 50.7368 63.2041L45.1192 59.7012C42.5411 58.0936 39.178 58.3691 37.1358 60.3552L32.5097 64.8539C29.5978 67.6856 24.2672 66.0457 23.4731 62.0739L22.4849 57.131C21.8918 54.1643 18.9748 51.9889 15.7492 52.1079L10.1248 52.3153C5.69642 52.4786 2.8151 47.7762 5.3477 44.5189L8.56434 40.3818C10.4091 38.0092 9.92714 34.6373 7.45145 32.5956L3.32676 29.194C0.0124823 26.4607 1.33139 21.5532 5.56258 20.8748L12.2847 19.797C15.2524 19.3211 17.3184 16.9288 17.1891 14.1179L16.9075 7.99286C16.7282 4.09333 21.3476 1.82334 24.9241 4.05349L30.5417 7.5564C33.1198 9.16398 36.4828 8.8885 38.5251 6.90244L43.1512 2.40373C46.0631 -0.427937 51.3937 1.21195 52.1878 5.18368L53.176 10.1266C53.7691 13.0934 56.6861 15.2687 59.9117 15.1497L65.5361 14.9423Z" stroke="#272500"/>
</svg>
