<svg width="69" height="44" viewBox="0 0 69 44" fill="none" xmlns="http://www.w3.org/2000/svg">
<path opacity="0.75" d="M61.1737 15.9187C63.8729 15.242 65.8653 18.4937 63.778 20.1691C61.4093 22.0702 62.7846 25.801 66.0041 26.1479C68.8045 26.4496 69.3993 30.0395 66.7852 30.8624L66.3174 31.0097C63.3152 31.9549 63.1319 35.8048 66.0199 37.2598C68.5567 38.5378 67.6549 42.0246 64.8234 41.8859L64.1458 41.8527C60.9049 41.6939 59.1369 45.1104 61.2267 47.4937C63.0957 49.6253 60.7293 52.5008 58.0525 51.3507L57.631 51.1696C54.6159 49.8741 51.4938 52.3147 52.4114 55.25C53.2466 57.9216 49.7021 59.6634 47.6344 57.5974C45.3627 55.3276 41.3868 56.3748 40.9874 59.3482L40.9315 59.7639C40.5769 62.4037 36.5975 62.6466 35.5938 60.0897C34.4715 57.2309 30.304 56.7312 28.7126 59.2645L28.3798 59.7942C26.9895 62.0075 23.221 60.8157 23.38 58.213C23.561 55.25 19.8364 53.3203 17.3335 55.0804L16.9435 55.3546C14.7642 56.8871 11.7025 54.5095 12.9226 52.2321C14.3254 49.6138 11.5502 46.571 8.48723 47.3389C5.78797 48.0156 3.79558 44.764 5.88294 43.0886C8.25156 41.1874 6.87634 37.4566 3.65682 37.1098C0.85639 36.808 0.261591 33.2182 2.87567 32.3952L3.34345 32.2479C6.34568 31.3027 6.52899 27.4528 3.64103 25.9979C1.10417 24.7198 2.00595 21.2331 4.83747 21.3718L5.51506 21.405C8.75602 21.5637 10.524 18.1472 8.43423 15.7639C6.56518 13.6323 8.93159 10.7568 11.6084 11.9069L12.0299 12.088C15.045 13.3835 18.1671 10.9429 17.2495 8.00766C16.4143 5.33597 19.9588 3.5942 22.0265 5.66024C24.2982 7.93006 28.2741 6.88278 28.6735 3.90937L28.7293 3.49369C29.084 0.853929 33.0634 0.611035 34.0671 3.1679C35.1893 6.0267 39.3569 6.52647 40.9483 3.99307L41.281 3.46341C42.6714 1.25007 46.4399 2.44188 46.2809 5.04466C46.0999 8.00766 49.8245 9.93729 52.3274 8.17722L52.7174 7.90298C54.8967 6.37047 57.9584 8.74815 56.7383 11.0256C55.3355 13.6438 58.1107 16.6867 61.1737 15.9187Z" stroke="#272500"/>
</svg>
