<svg width="79" height="48" viewBox="0 0 79 48" fill="none" xmlns="http://www.w3.org/2000/svg">
<path opacity="0.75" d="M72.8117 18.8721C73.3709 18.6834 73.8077 19.3961 73.3295 19.7171L61.1109 27.9217C59.9141 28.7253 60.6159 30.5286 62.1305 30.5411L77.379 30.6676C77.9829 30.6726 78.1347 31.4665 77.5595 31.6111L62.6827 35.3525C61.2523 35.7123 61.2396 37.5759 62.664 38.0837L76.969 43.1834C77.5389 43.3866 77.3817 44.1598 76.781 44.1081L61.1516 42.7628C59.6704 42.6353 58.9455 44.3062 60.0746 45.2453L71.5366 54.7782C71.9918 55.1568 71.5397 55.8038 70.9921 55.5575L56.7917 49.1707C55.4488 48.5668 54.112 49.8196 54.7823 51.0538L61.7196 63.8252C61.9921 64.3268 61.3035 64.7537 60.8868 64.3415L50.2042 53.7749C49.1817 52.7635 47.4135 53.4317 47.5391 54.7819L48.8619 68.9964C48.9131 69.5474 48.086 69.6919 47.863 69.171L42.2191 55.9904C41.6681 54.7037 39.7042 54.6974 39.282 55.9809L34.8144 69.5636C34.6426 70.0859 33.7956 69.931 33.7977 69.3777L33.8508 55.4838C33.8561 54.1056 31.9609 53.4233 31.055 54.4773L21.5536 65.5305C21.1877 65.9562 20.4363 65.5296 20.6581 65.0221L26.2355 52.259C26.7911 50.9875 25.2225 49.7207 23.949 50.4124L10.827 57.5388C10.3168 57.8159 9.75659 57.1786 10.1624 56.7827L20.4667 46.7296C21.4841 45.7369 20.4549 44.0572 18.9734 44.2925L3.96965 46.6758C3.37878 46.7696 3.07938 46.0042 3.61446 45.7676L17.3753 39.6838C18.7108 39.0934 18.3603 37.228 16.8643 36.9648L1.84722 34.3218C1.25012 34.2167 1.25195 33.4199 1.84942 33.3722L17.3638 32.1327C18.8432 32.0145 19.2186 30.2164 17.9177 29.4801L4.80304 22.0568C4.28074 21.7612 4.58988 21.0382 5.17409 21.189L20.367 25.1106C21.8027 25.4811 22.8516 23.9942 21.9357 22.8869L12.5532 11.5435C12.1824 11.0952 12.7628 10.5481 13.2541 10.8827L25.9317 19.5175C27.136 20.3377 28.7151 19.3609 28.3118 18.0453L24.0979 4.29998C23.9335 3.76383 24.7054 3.47303 25.0315 3.94825L33.334 16.0489C34.1363 17.2182 36.0344 16.8814 36.1869 15.5426L37.7995 1.38534C37.8617 0.839354 38.7139 0.845399 38.8259 1.3926L41.6476 15.1714C41.9256 16.5288 43.8887 16.8788 44.5643 15.6914L51.6928 3.16288C51.9668 2.68133 52.7795 2.97796 52.6647 3.51758L49.7838 17.0625C49.4969 18.4112 51.259 19.4027 52.3662 18.5154L63.8814 9.2878C64.3267 8.93099 64.9929 9.47217 64.6732 9.931L56.6012 21.5171C55.7995 22.6679 57.1209 24.1667 58.5207 23.6943L72.8117 18.8721Z" stroke="#272500"/>
</svg>
