<svg width="87" height="51" viewBox="0 0 87 51" fill="none" xmlns="http://www.w3.org/2000/svg">
<path opacity="0.75" d="M80.7265 19.9703C81.2187 19.894 81.5599 20.4508 81.2236 20.7816L68.5704 33.2299C67.8582 33.9305 68.1373 35.1058 69.1185 35.5378L85.963 42.9539C86.4206 43.1554 86.3679 43.7669 85.8853 43.8563L67.2628 47.3066C66.2677 47.4909 65.7811 48.5086 66.2818 49.3584L75.1397 64.3912C75.3773 64.7943 74.9523 65.2261 74.4986 65.0425L57.0619 57.9883C56.1296 57.6111 55.1025 58.1158 54.9569 59.0227L52.2345 75.983C52.1637 76.4244 51.5287 76.5135 51.2766 76.1175L41.876 61.3514C41.3446 60.5167 40.1247 60.3376 39.4165 60.9902L26.1634 73.2036C25.8199 73.5201 25.2158 73.2314 25.2718 72.7776L27.3351 56.0701C27.4553 55.0969 26.4983 54.2547 25.4559 54.4163L6.93439 57.2873C6.44218 57.3636 6.10102 56.8068 6.43729 56.476L19.0905 44.0277C19.8027 43.3271 19.5235 42.1518 18.5424 41.7198L1.69791 34.3037C1.24034 34.1022 1.29299 33.4908 1.77561 33.4014L20.398 29.9511C21.3932 29.7667 21.8798 28.749 21.3791 27.8993L12.5212 12.8664C12.2836 12.4633 12.7086 12.0316 13.1623 12.2151L30.599 19.2693C31.5313 19.6465 32.5584 19.1418 32.704 18.2349L35.4264 1.27458C35.4972 0.833247 36.1321 0.74414 36.3843 1.14015L45.7849 15.9062C46.3163 16.7409 47.5361 16.92 48.2444 16.2674L61.4975 4.05406C61.8409 3.73753 62.4451 4.02621 62.3891 4.48006L60.3257 21.1875C60.2056 22.1607 61.1626 23.0029 62.205 22.8413L80.7265 19.9703Z" stroke="#272500"/>
</svg>
