<svg width="58" height="38" viewBox="0 0 58 38" fill="none" xmlns="http://www.w3.org/2000/svg">
<path opacity="0.75" d="M48.9674 11.9427C52.7167 10.9148 55.52 15.4899 52.5378 17.7698C49.7679 19.8874 50.7906 24.121 54.3369 25.2132C58.1237 26.3794 57.7077 31.4344 53.8023 31.7089L52.9926 31.7658C49.3244 32.0235 47.5223 35.865 49.7394 38.6983C52.1761 41.8121 48.4719 45.5946 44.9054 43.6363L44.4552 43.3891C41.2025 41.6032 37.2302 43.5552 37.1651 46.9715L37.1561 47.4443C37.0847 51.1903 31.5323 51.9564 29.9085 48.4433C28.4309 45.2465 23.8446 44.5443 21.6314 47.1766L21.1429 47.7577C18.7865 50.5603 13.802 48.1591 14.7377 44.6722C15.614 41.4068 12.1759 38.3601 8.69344 39.3149C4.94419 40.3428 2.14091 35.7677 5.12307 33.4878C7.89303 31.3702 6.87032 27.1366 3.32396 26.0444C-0.462852 24.8782 -0.046811 19.8232 3.85858 19.5488L4.66829 19.4919C8.33644 19.2341 10.1386 15.3926 7.92147 12.5593C5.48483 9.44548 9.189 5.66304 12.7555 7.62132L13.2057 7.86851C16.4583 9.65444 20.4307 7.70243 20.4958 4.28616L20.5048 3.81331C20.5762 0.0673605 26.1285 -0.698822 27.7524 2.81436C29.23 6.01109 33.8163 6.71333 36.0295 4.081L36.518 3.49992C38.8743 0.697354 43.8589 3.09848 42.9232 6.58537C42.0469 9.85084 45.485 12.8975 48.9674 11.9427Z" stroke="#272500"/>
</svg>
