<svg width="2862" height="2623" viewBox="0 0 2862 2623" fill="none" xmlns="http://www.w3.org/2000/svg">
<path d="M1239.22 2366.09C1310.89 2382.96 1385.71 2391.6 1462.61 2390.97C1842.52 2390.97 2172.95 2139.4 2301.31 1854.05C2202.18 2007.85 2040.69 1915.85 2000.11 1819.1C1814.56 1376.79 1283.33 1211.56 921.135 1557.27C1246.48 1374.25 1656.97 1569.98 1656.97 1969.08C1656.97 2229.06 1454.75 2413.1 1239.22 2366.09Z" fill="url(#paint0_linear_10_488)"/>
<path d="M1908.9 876.236C1936.48 844.002 2022.39 892.734 2022.39 892.734C2022.39 892.734 2061.04 910.648 2106.78 960.842C2140.19 997.489 2159.86 1029.79 2175.2 1073.91C2189.58 1115.26 2193.53 1160.21 2171.86 1182.39C2148.96 1205.81 2094.8 1188.71 2051.77 1159.12C2009.21 1129.85 1960.95 1076.78 1941.14 1038.28C1908.9 975.629 1858.87 934.708 1908.9 876.236Z" fill="url(#paint1_linear_10_488)"/>
<path d="M596.366 1644.79C594.292 1739.24 608.474 1833.19 649.22 1933.49C777.838 2145.72 991.188 2307.7 1239.22 2366.09C1454.75 2413.1 1656.97 2229.06 1656.97 1969.08C1656.97 1569.98 1246.48 1374.25 921.135 1557.27C1043.76 1508.1 1134.64 1559.7 1134.99 1559.9C1150.47 1567.4 1164.67 1576.51 1177.43 1586.91C1396.3 1747.45 1302.6 2055.04 1071.1 2089.83C842.968 2124.11 598.808 1893.77 596.366 1644.79Z" fill="url(#paint2_linear_10_488)"/>
<path d="M1250.29 1765.72C1250.29 1938.5 1049.08 2012.44 896.989 1933.49C607.073 1783 573.212 1365.97 970.996 1074.91C746.582 1196.86 602.357 1372 596.366 1644.79C598.808 1893.77 842.968 2124.11 1071.1 2089.83C1302.6 2055.04 1396.3 1747.45 1177.43 1586.91C1231.62 1631.06 1250.29 1697.84 1250.29 1765.72Z" fill="url(#paint3_linear_10_488)"/>
<path d="M1447.19 515.03C929.218 519.289 512.77 942.685 517.028 1460.71C518.45 1633.56 566.531 1795.11 649.22 1933.49C608.474 1833.19 594.292 1739.24 596.366 1644.79C602.357 1372 746.582 1196.86 970.996 1074.91C1299.02 896.646 1882.28 942.464 2135 1485C2135 1485 2048.77 1205 1771 905.878C1704.66 834.444 1747 777.002 1747 777.002C1785.12 754.124 1809.48 728.031 1878.1 751.458C2302.58 896.353 2389 1417.46 2389 1417.46C2366.12 855.68 1882.56 511.45 1447.19 515.03Z" fill="url(#paint4_linear_10_488)"/>
<path d="M649.22 1933.49C608.474 1833.19 594.292 1739.24 596.366 1644.79M649.22 1933.49C777.838 2145.72 991.188 2307.7 1239.22 2366.09M649.22 1933.49C777.552 2148.26 989.241 2307.24 1239.22 2366.09M649.22 1933.49C566.531 1795.11 518.45 1633.56 517.028 1460.71C512.77 942.685 929.218 519.289 1447.19 515.03C1882.56 511.45 2366.12 855.68 2389 1417.46C2389 1417.46 2302.58 896.353 1878.1 751.458C1809.48 728.031 1785.12 754.124 1747 777.002C1747 777.002 1704.66 834.444 1771 905.878C2048.77 1205 2135 1485 2135 1485C1882.28 942.464 1299.02 896.646 970.996 1074.91M921.135 1557.27C1283.33 1211.56 1814.56 1376.79 2000.11 1819.1C2040.69 1915.85 2202.18 2007.85 2301.31 1854.05C2172.95 2139.4 1842.52 2390.97 1462.61 2390.97C1385.71 2391.6 1310.89 2382.96 1239.22 2366.09M921.135 1557.27C1246.48 1374.25 1656.97 1569.98 1656.97 1969.08C1656.97 2229.06 1454.75 2413.1 1239.22 2366.09M921.135 1557.27C1043.76 1508.1 1134.64 1559.7 1134.99 1559.9M921.135 1557.27C1043.75 1508.1 1134.63 1559.69 1134.99 1559.9M921.135 1557.27C1004.31 1526.41 1078.23 1532.36 1134.99 1559.9M970.996 1074.91C573.212 1365.97 607.073 1783 896.989 1933.49C1049.08 2012.44 1250.29 1938.5 1250.29 1765.72C1250.29 1697.84 1231.62 1631.06 1177.43 1586.91M970.996 1074.91C746.582 1196.86 602.357 1372 596.366 1644.79M1234.41 2365C1236.01 2365.37 1237.62 2365.74 1239.22 2366.09M599.602 1591.5C597.24 1609.3 596.193 1627.09 596.366 1644.79M596.366 1644.79C598.808 1893.77 842.968 2124.11 1071.1 2089.83C1302.6 2055.04 1396.3 1747.45 1177.43 1586.91M1134.99 1559.9C1150.47 1567.4 1164.67 1576.51 1177.43 1586.91M1134.99 1559.9L1135 1559.9C1150.27 1568.32 1164.4 1577.36 1177.43 1586.91M1908.9 876.236C1936.48 844.002 2022.39 892.734 2022.39 892.734C2022.39 892.734 2061.04 910.648 2106.78 960.842C2140.19 997.489 2159.86 1029.79 2175.2 1073.91C2189.58 1115.26 2193.53 1160.21 2171.86 1182.39C2148.96 1205.81 2094.8 1188.71 2051.77 1159.12C2009.21 1129.85 1960.95 1076.78 1941.14 1038.28C1908.9 975.629 1858.87 934.709 1908.9 876.236Z" stroke="url(#paint5_linear_10_488)" stroke-width="7" stroke-linecap="round"/>
<path d="M290.083 1596.68L10.3057 1607.86L8.82106 1570.69L266.321 1392.67L2.13209 1403.22L0.695312 1367.25L280.472 1356.07L281.941 1392.84L24.4565 1571.26L288.646 1560.71L290.083 1596.68Z" fill="#FFF9E7"/>
<path d="M294.18 1260.04L20.5766 1200.53L56.8777 1033.64L88.1466 1040.44L59.4118 1172.55L161.036 1194.65L181.694 1099.67L189.511 1101.37L168.853 1196.35L270.477 1218.46L302.527 1071.1L333.796 1077.9L294.18 1260.04Z" fill="#FFF9E7"/>
<path d="M368.833 982.146L85.1128 918.018L103.409 884.256L374.16 945.452L173.544 754.839L177.546 747.454L447.154 810.759L248.063 617.333L265.597 584.979L474.417 787.317L455.93 821.43L188.462 758.374L387.891 946.979L368.833 982.146Z" fill="#FFF9E7"/>
<path d="M627.983 603.721L452.019 385.922L518.915 331.876C541.94 313.274 565.954 301.414 590.96 296.296C616.172 291.011 640.356 292.727 663.512 301.445C686.708 309.787 706.936 324.641 724.198 346.006C741.459 367.372 751.815 390.373 755.265 415.012C758.755 439.275 755.267 463.176 744.802 486.715C734.544 510.087 717.903 531.074 694.879 549.675L627.983 603.721ZM674.266 524.162C691.897 509.917 704.586 494.009 712.331 476.439C719.908 458.661 722.3 440.616 719.504 422.305C716.749 403.619 708.668 385.979 695.261 369.384C681.855 352.79 666.39 341.287 648.868 334.874C631.385 328.086 613.241 326.633 594.435 330.513C575.462 334.186 557.159 343.145 539.528 357.389L500.635 388.811L635.373 555.584L674.266 524.162Z" fill="#FFF9E7"/>
<path d="M829.84 442.333L817.443 140.421L860.051 121.062L1079.3 328.992L1044.7 344.711L976.916 280.61L860.016 333.723L863.708 426.945L829.84 442.333ZM859.785 325.48L970.859 275.015L854.118 165.056L859.785 325.48Z" fill="#FFF9E7"/>
<path d="M1132.12 314.701L1088.85 38.0632L1125.61 32.3155L1332.05 267.645L1291.2 6.41975L1326.76 0.857422L1370.03 277.495L1333.67 283.181L1126.83 47.9136L1167.69 309.139L1132.12 314.701Z" fill="#FFF9E7"/>
<path d="M1583.37 297.984C1555.87 294.395 1532.09 284.972 1512.03 269.714C1491.96 254.457 1477.15 235.043 1467.59 211.474C1458.29 187.94 1455.45 162.29 1459.07 134.526C1462.7 106.761 1472.02 82.6988 1487.05 62.3389C1502.34 42.0135 1521.64 27.0516 1544.95 17.4532C1568.25 7.85486 1593.65 4.85006 1621.15 8.43881C1644.69 11.5099 1665.47 19.1969 1683.49 31.4996C1701.82 43.5725 1715.92 59.1285 1725.81 78.1679C1735.7 97.2072 1740.48 118.27 1740.15 141.355L1704.06 136.645C1703.29 119.871 1699.19 104.948 1691.75 91.8757C1684.35 78.5389 1674.2 67.668 1661.31 59.263C1648.43 50.858 1633.39 45.5341 1616.2 43.2911C1595.58 40.5995 1576.59 42.8287 1559.26 49.9786C1541.92 57.1285 1527.67 68.4463 1516.5 83.9318C1505.6 99.4518 1498.76 117.921 1495.96 139.339C1493.2 160.493 1495.1 179.969 1501.65 197.767C1508.46 215.599 1519.33 230.194 1534.26 241.554C1549.18 252.914 1566.95 259.94 1587.58 262.631C1604.76 264.874 1620.65 263.72 1635.23 259.168C1649.84 254.352 1662.42 246.581 1672.96 235.855C1683.54 224.865 1691.35 211.362 1696.4 195.347L1732.49 200.058C1726.88 222.453 1716.85 241.583 1702.41 257.448C1687.97 273.312 1670.33 284.86 1649.49 292.09C1628.94 299.09 1606.9 301.055 1583.37 297.984Z" fill="#FFF9E7"/>
<path d="M1779.03 332.401L1882.16 72.0877L2040.96 135L2029.17 164.75L1903.47 114.951L1865.17 211.639L1955.53 247.441L1952.59 254.879L1862.22 219.076L1823.91 315.764L1964.11 371.309L1952.32 401.06L1779.03 332.401Z" fill="#FFF9E7"/>
<path d="M2132.03 513.521L2265.1 254.868L2293.21 281.029L2166.23 527.859L2400.97 381.312L2407.12 387.035L2278.37 632.23L2515.46 487.863L2542.4 512.934L2294.25 664.491L2265.85 638.058L2393.81 394.872L2161.31 540.772L2132.03 513.521Z" fill="#FFF9E7"/>
<path d="M2355.11 733.961L2654.29 691.585L2677.79 732.056L2492.71 970.905L2473.62 938.044L2530.66 864.216L2466.18 753.181L2373.79 766.13L2355.11 733.961ZM2474.36 752.131L2535.63 857.632L2633.42 730.53L2474.36 752.131Z" fill="#FFF9E7"/>
<path d="M2530.45 1095.99L2769.24 910.34L2779.7 947.703L2568.5 1110.26L2568.83 1111.41L2833.62 1140.3L2843.86 1176.89L2543.28 1141.83L2530.45 1095.99Z" fill="#FFF9E7"/>
<path d="M2575.83 1309.59L2855.65 1299.5L2861.81 1470.19L2829.83 1471.34L2824.95 1336.23L2721.02 1339.98L2724.53 1437.12L2716.53 1437.4L2713.03 1340.27L2609.09 1344.02L2614.53 1494.72L2582.55 1495.87L2575.83 1309.59Z" fill="#FFF9E7"/>
<path d="M320.277 1785.46C463.016 2266.54 908.463 2617.46 1435.87 2617.46C1963.28 2617.46 2408.73 2266.54 2551.47 1785.46" stroke="#FFF9E7" stroke-width="10"/>
<defs>
<linearGradient id="paint0_linear_10_488" x1="918.996" y1="1453" x2="2239" y2="2221" gradientUnits="userSpaceOnUse">
<stop stop-color="#73AFE9"/>
<stop offset="0.570058" stop-color="#1173D2"/>
<stop offset="1" stop-color="#064889"/>
</linearGradient>
<linearGradient id="paint1_linear_10_488" x1="1847" y1="853.002" x2="2203" y2="1301" gradientUnits="userSpaceOnUse">
<stop stop-color="#FFC402"/>
<stop offset="0.567708" stop-color="#FFDE74"/>
</linearGradient>
<linearGradient id="paint2_linear_10_488" x1="1587" y1="1695" x2="786.996" y2="2183" gradientUnits="userSpaceOnUse">
<stop stop-color="#064889"/>
<stop offset="1" stop-color="#1173D2"/>
</linearGradient>
<linearGradient id="paint3_linear_10_488" x1="626.996" y1="1093" x2="2363" y2="2745" gradientUnits="userSpaceOnUse">
<stop stop-color="#2D6499"/>
<stop offset="1" stop-color="#A67F01"/>
</linearGradient>
<linearGradient id="paint4_linear_10_488" x1="1791" y1="849.002" x2="570.996" y2="1761" gradientUnits="userSpaceOnUse">
<stop offset="0.0104167" stop-color="#FFDE74"/>
<stop offset="0.494792" stop-color="#FFC402"/>
<stop offset="1" stop-color="#E9A573"/>
</linearGradient>
<linearGradient id="paint5_linear_10_488" x1="1453" y1="515.002" x2="1453" y2="2391" gradientUnits="userSpaceOnUse">
<stop stop-color="#C7A436"/>
<stop offset="1" stop-color="#064889"/>
</linearGradient>
</defs>
</svg>
