<svg width="48" height="26" viewBox="0 0 48 26" fill="none" xmlns="http://www.w3.org/2000/svg">
<path d="M48 12.7831L24.3153 25.5643L0.678711 12.7601L24.3378 0L48 12.7831Z" fill="#C92415"/>
<path d="M24.337 0.691162L1.95654 12.7613L24.3154 24.8738L46.7197 12.7835L24.337 0.691162Z" fill="white"/>
<path d="M10.2314 16.5974L31.4333 5.16308L24.3381 1.32751L3.13574 12.7628L10.2314 16.5974Z" fill="#C92415"/>
<path d="M24.2386 24.177L45.4402 12.7426L38.3449 8.90771L17.1431 20.3421L24.2386 24.177Z" fill="#C92415"/>
<path fill-rule="evenodd" clip-rule="evenodd" d="M28.6349 7.15525H27.4909V7.75839L27.5994 8.13312L27.4759 8.18228L27.2902 7.80743C26.6712 7.39935 25.7117 6.91101 24.1659 6.91101C20.7782 6.92696 18.4121 9.43708 18.4121 12.5501C18.4121 15.5992 20.8093 18.1093 24.5522 18.0932C26.5944 18.0932 28.2027 17.3094 29.2848 16.5772L28.5892 15.7616C27.4759 16.5927 26.4391 17.0504 25.1245 17.0504C22.8819 17.0504 20.6855 15.8106 20.6855 12.5178C20.6855 8.54053 23.1295 7.87241 24.7375 7.85593C26.4093 7.85593 27.4759 8.98064 27.4909 10.2361L28.6349 10.2194V7.15525Z" fill="white"/>
<path d="M28.4922 7.29826H27.6353V7.73955L27.737 8.09371L27.7736 8.21959L27.6514 8.26717L27.5275 8.31568L27.4052 8.36352L27.3477 8.24582L27.1774 7.90523C26.8827 7.71319 26.5087 7.50467 26.0294 7.34202C25.5331 7.17397 24.9223 7.05495 24.1657 7.05495V7.05402C22.537 7.0622 21.1511 7.65981 20.1645 8.62608C19.1483 9.62201 18.555 11.0101 18.555 12.5501V12.5741C18.5611 14.0478 19.1434 15.3913 20.1756 16.3651C21.2099 17.3423 22.6991 17.9494 24.5171 17.9494V17.9501H24.5522V17.9494C25.5553 17.9494 26.4511 17.7578 27.2291 17.4748C27.9458 17.2153 28.5628 16.8798 29.0711 16.5473L28.5672 15.9569C28.0393 16.3416 27.5234 16.6424 26.984 16.8516C26.4046 17.0757 25.7994 17.1944 25.1246 17.1944C23.8693 17.1944 22.6262 16.8144 21.7501 15.9204C21.0149 15.1691 20.5412 14.0611 20.5412 12.5183C20.5412 10.4785 21.1752 9.28221 22.0177 8.59076C22.8607 7.89864 23.9075 7.72123 24.7363 7.71253L24.7375 7.712C25.5788 7.712 26.275 7.98616 26.7742 8.41822C27.2794 8.8545 27.5814 9.45158 27.6282 10.0903L28.4923 10.0781V7.29826H28.4922ZM27.4908 7.01185H28.6348H28.7786V7.15525V10.2198V10.3608L28.6373 10.3626L27.4927 10.3795L27.3501 10.3813L27.3477 10.2374C27.3398 9.62781 27.0672 9.05036 26.5866 8.63491C26.1373 8.24661 25.5057 7.99973 24.7375 7.99973V7.99921C23.9592 8.00725 22.9798 8.1724 22.1992 8.81232C21.4174 9.45396 20.8291 10.58 20.8291 12.5185C20.8291 13.979 21.2701 15.0194 21.9544 15.7179C22.7711 16.552 23.94 16.9062 25.1245 16.9062C25.7644 16.9062 26.335 16.7953 26.8802 16.5844C27.4291 16.3712 27.9558 16.0559 28.503 15.6468L28.6108 15.5671L28.6983 15.6689L29.3945 16.4839L29.4976 16.6062L29.3651 16.6961C28.8156 17.0688 28.1319 17.4536 27.3271 17.7454C26.5199 18.0384 25.5906 18.2378 24.5521 18.2378V18.2373H24.517V18.2378C22.6218 18.2378 21.065 17.6003 19.9783 16.5744C18.8891 15.5467 18.2744 14.1302 18.2681 12.5755V12.5749V12.5504C18.2681 10.9312 18.8934 9.4707 19.963 8.42191C21.0011 7.40476 22.4573 6.77591 24.165 6.76774L24.1656 6.76721C24.9559 6.76721 25.5977 6.89243 26.1215 7.07037C26.6332 7.24382 27.0323 7.46803 27.3476 7.67351V7.15551V7.01211H27.4908V7.01185Z" fill="#C92415"/>
</svg>
