<svg width="98" height="77" viewBox="0 0 98 77" fill="none" xmlns="http://www.w3.org/2000/svg">
<path opacity="0.75" d="M23.4325 12.2659C23.8652 7.87053 28.5801 5.28341 32.5199 7.27944C35.985 9.03495 40.218 7.76061 42.138 4.38391C44.3211 0.54458 49.6806 0.0988235 52.4679 3.52476C54.9194 6.53787 59.3047 7.09541 62.4322 4.79159C65.9881 2.17213 71.0656 3.94481 72.2185 8.20828C73.2325 11.958 77.0119 14.251 80.8061 13.4184C85.12 12.4718 89.0375 16.1564 88.3566 20.5202C87.7578 24.3581 90.2778 27.9902 94.0826 28.7728C98.4086 29.6626 100.489 34.622 98.0918 38.3316C95.9837 41.5942 96.8086 45.9372 99.9661 48.1997C103.556 50.7721 103.439 56.1489 99.7408 58.5628C96.4879 60.6859 95.475 64.989 97.4393 68.3401C99.6727 72.1504 97.379 77.0147 93.0184 77.7157C89.1832 78.3321 86.5077 81.8512 86.9391 85.7116C87.4297 90.1008 83.3558 93.6117 79.0871 92.4784C75.3327 91.4817 71.4572 93.6083 70.2812 97.3104C68.944 101.52 63.7943 103.07 60.3556 100.298C57.3312 97.8609 52.9258 98.2273 50.3457 101.131C47.412 104.433 42.077 103.754 40.0628 99.8237C38.2914 96.3667 34.1178 94.9096 30.5797 96.5128C26.5568 98.3357 21.9589 95.5461 21.7176 91.1361C21.5054 87.2575 18.2853 84.2288 14.401 84.2544C9.98447 84.2834 6.91868 79.8648 8.49196 75.738C9.87565 72.1084 8.16583 68.0318 4.60693 66.4752C0.560438 64.7054 -0.443097 59.4219 2.67271 56.2917C5.41307 53.5387 5.50917 49.1191 2.89106 46.2496C-0.0857541 42.9869 1.14648 37.752 5.26608 36.1597C8.88927 34.7593 10.7747 30.7609 9.55004 27.0746C8.15763 22.8833 11.4126 18.6021 15.8236 18.8231C19.7032 19.0175 23.0519 16.1316 23.4325 12.2659Z" stroke="#272500"/>
</svg>
