<svg width="83" height="67" viewBox="0 0 83 67" fill="none" xmlns="http://www.w3.org/2000/svg">
<path opacity="0.75" d="M19.1107 8.78522C18.1925 6.1273 21.6828 4.2121 23.4315 6.41431L33.7139 19.3634C35.3996 21.4863 38.7547 20.9697 39.7236 18.438L45.6338 2.99529C46.6389 0.369023 50.5437 1.14542 50.4677 3.95644L50.021 20.4854C49.9477 23.1952 52.85 24.956 55.2196 23.6395L69.6734 15.6087C72.1315 14.2429 74.6237 17.3476 72.7586 19.4522L61.7917 31.8269C59.9938 33.8556 61.0852 37.0701 63.7467 37.5847L79.9811 40.7235C82.742 41.2573 82.6554 45.2376 79.8739 45.6509L63.5185 48.0811C60.8371 48.4795 59.607 51.6435 61.3151 53.7484L71.7337 66.5882C73.5056 68.7718 70.8808 71.7652 68.4844 70.2939L54.3933 61.6425C52.0831 60.2242 49.1071 61.8572 49.0625 64.5676L48.7904 81.1004C48.7441 83.912 44.8093 84.518 43.9193 81.8505L38.6859 66.1655C37.8279 63.5941 34.4984 62.9321 32.722 64.9797L21.8865 77.4697C20.0438 79.5938 16.64 77.5287 17.6728 74.9132L23.7459 59.5338C24.7416 57.0125 22.6166 54.3652 19.9396 54.792L3.61072 57.3949C0.833745 57.8376 -0.446276 54.0678 2.02613 52.728L16.5641 44.8505C18.9474 43.559 19.0212 40.1652 16.6962 38.7713L2.51445 30.2693C0.102618 28.8234 1.54528 25.1128 4.3004 25.6757L20.5007 28.9859C23.1566 29.5286 25.3946 26.9762 24.5095 24.414L19.1107 8.78522Z" stroke="#272500"/>
</svg>
