<svg width="98" height="77" viewBox="0 0 98 77" fill="none" xmlns="http://www.w3.org/2000/svg">
<path opacity="0.75" d="M25.1823 9.48021C24.9422 7.26843 27.4937 5.86836 29.2303 7.25897L42.0021 17.4861C43.6792 18.829 46.159 18.358 47.2269 16.4938L55.3595 2.29611C56.4653 0.365625 59.3525 0.73269 59.94 2.87847L64.2613 18.6595C64.8287 20.7316 67.1118 21.8082 69.0715 20.9277L83.9961 14.2218C86.0254 13.31 88.1454 15.304 87.3595 17.3853L81.5796 32.6924C80.8207 34.7023 82.0349 36.9152 84.138 37.3547L100.154 40.702C102.332 41.1571 102.875 44.0164 101.015 45.2383L87.3422 54.2246C85.5468 55.4046 85.2284 57.9086 86.6714 59.5003L97.6611 71.6223C99.1554 73.2705 97.9141 75.9029 95.6917 75.7987L79.3478 75.0318C77.2017 74.9311 75.4723 76.7697 75.7042 78.9056L77.4699 95.172C77.71 97.3838 75.1585 98.7839 73.4219 97.3933L60.6501 87.1661C58.973 85.8232 56.4932 86.2942 55.4253 88.1585L47.2927 102.356C46.1869 104.287 43.2997 103.92 42.7121 101.774L38.3909 85.9928C37.8235 83.9206 35.5404 82.844 33.5807 83.7246L18.6561 90.4305C16.6268 91.3423 14.5067 89.3483 15.2927 87.267L21.0726 71.9599C21.8315 69.95 20.6172 67.7371 18.5142 67.2975L2.49833 63.9502C0.320612 63.4951 -0.22247 60.6358 1.63672 59.4139L15.31 50.4276C17.1054 49.2476 17.4238 46.7436 15.9808 45.1519L4.99112 33.03C3.49683 31.3818 4.73811 28.7493 6.96044 28.8536L23.3044 29.6205C25.4505 29.7212 27.1799 27.8825 26.948 25.7466L25.1823 9.48021Z" stroke="#272500"/>
</svg>
