<svg width="84" height="66" viewBox="0 0 84 66" fill="none" xmlns="http://www.w3.org/2000/svg">
<path opacity="0.75" d="M21.4423 8.39495C20.5015 5.72593 24.0217 3.79431 25.7676 6.02155L27.6789 8.45976C29.7197 11.0632 33.8996 9.64394 33.9333 6.33614L33.9649 3.23827C33.9937 0.40845 37.9623 -0.202688 38.8411 2.48737L39.8032 5.43222C40.8305 8.57664 45.2437 8.67259 46.4067 5.5758L47.4959 2.67553C48.4909 0.0262281 52.4291 0.809276 52.3349 3.63768L52.2318 6.73401C52.1217 10.0402 56.2359 11.6397 58.388 9.12746L60.4034 6.77463C62.2445 4.6254 65.6774 6.70819 64.6215 9.33381L63.4656 12.2081C62.2314 15.2772 65.5504 18.1875 68.4319 16.5628L71.1305 15.0412C73.5956 13.6512 76.1092 16.7825 74.219 18.8887L72.1497 21.1943C69.9402 23.6562 72.0637 27.5261 75.3271 26.9849L78.3834 26.478C81.1752 26.015 82.4662 29.8172 79.9696 31.1498L77.2366 32.6087C74.3183 34.1664 74.9902 38.5292 78.2419 39.1368L81.2872 39.7058C84.0691 40.2256 83.9818 44.24 81.18 44.6384L78.1128 45.0745C74.8377 45.5402 73.9769 49.8697 76.8247 51.5527L79.4918 53.129C81.9281 54.5689 80.473 58.3114 77.704 57.7274L74.6726 57.0882C71.4358 56.4057 69.1461 60.1796 71.2465 62.7352L73.2136 65.1286C75.0105 67.3149 72.3632 70.334 69.9608 68.8382L67.3309 67.2008C64.5227 65.4524 61.0803 68.2156 62.18 71.3354L63.2099 74.2573C64.1507 76.9263 60.6304 78.8579 58.8845 76.6307L56.9733 74.1925C54.9325 71.5891 50.7526 73.0083 50.7189 76.3161L50.6873 79.414C50.6585 82.2438 46.6899 82.855 45.8111 80.1649L44.849 77.22C43.8217 74.0756 39.4085 73.9797 38.2455 77.0765L37.1563 79.9767C36.1613 82.626 32.2231 81.843 32.3173 79.0146L32.4204 75.9182C32.5305 72.6121 28.4162 71.0125 26.2642 73.5248L24.2488 75.8776C22.4077 78.0269 18.9748 75.9441 20.0307 73.3184L21.1866 70.4441C22.4208 67.375 19.1018 64.4648 16.2203 66.0895L13.5217 67.6111C11.0566 69.001 8.54299 65.8697 10.4332 63.7636L12.5025 61.4579C14.712 58.9961 12.5885 55.1262 9.32508 55.6674L6.26879 56.1742C3.47696 56.6372 2.18596 52.8351 4.68254 51.5024L7.41559 50.0436C10.3339 48.4859 9.66199 44.123 6.4103 43.5155L3.36496 42.9464C0.583134 42.4267 0.670417 38.4123 3.47221 38.0139L6.5394 37.5778C9.81444 37.1121 10.6753 32.7826 7.82748 31.0995L5.16042 29.5232C2.72413 28.0834 4.17916 24.3409 6.94824 24.9248L9.97962 25.564C13.2164 26.2466 15.5061 22.4726 13.4057 19.917L11.4386 17.5236C9.64172 15.3373 12.289 12.3182 14.6914 13.814L17.3213 15.4515C20.1294 17.1999 23.5718 14.4366 22.4722 11.3168L21.4423 8.39495Z" stroke="#272500"/>
</svg>
