<svg width="98" height="70" viewBox="0 0 98 70" fill="none" xmlns="http://www.w3.org/2000/svg">
<path opacity="0.75" d="M24.7257 5.19164C24.6061 1.50911 28.7207 -0.748673 31.7626 1.33038L49.0214 13.1265C50.8209 14.3564 53.1769 14.4077 55.0282 13.2571L72.7834 2.2223C75.9127 0.277419 79.9254 2.71192 79.6458 6.38577L78.0594 27.2304C77.894 29.4038 79.0277 31.4697 80.9497 32.4977L99.3838 42.3568C102.633 44.0944 102.531 48.7867 99.2093 50.3815L80.3641 59.43C78.3992 60.3735 77.1769 62.3882 77.2476 64.5667L77.9265 85.4606C78.0461 89.1431 73.9314 91.4009 70.8896 89.3219L53.6308 77.5257C51.8313 76.2958 49.4753 76.2446 47.624 77.3951L29.8688 88.4299C26.7394 90.3748 22.7268 87.9403 23.0064 84.2665L24.5927 63.4218C24.7581 61.2485 23.6245 59.1825 21.7025 58.1546L3.26843 48.2955C0.0194491 46.5578 0.121472 41.8655 3.44291 40.2707L22.2881 31.2222C24.253 30.2788 25.4753 28.264 25.4045 26.0855L24.7257 5.19164Z" stroke="#272500"/>
</svg>
