<svg width="98" height="76" viewBox="0 0 98 76" fill="none" xmlns="http://www.w3.org/2000/svg">
<path opacity="0.75" d="M25.5811 9.28004C25.2425 6.98635 27.9379 5.50733 29.6907 7.02499L36.7388 13.1276C38.68 14.8084 41.7102 13.8961 42.4009 11.423L44.9085 2.44366C45.5322 0.210567 48.5961 -0.04426 49.5801 2.05513L53.5367 10.4968C54.6265 12.8219 57.7657 13.221 59.4025 11.2426L65.3456 4.05953C66.8237 2.27315 69.7264 3.28657 69.7714 5.60467L69.9524 14.9258C70.0022 17.4931 72.7077 19.1346 75.0077 17.993L83.3587 13.8482C85.4355 12.8174 87.675 14.9239 86.7733 17.0599L83.1474 25.6488C82.1487 28.0144 83.9526 30.6143 86.5181 30.507L95.8329 30.1172C98.1495 30.0202 99.3386 32.8554 97.646 34.44L90.8402 40.8116C88.9657 42.5665 89.5562 45.6754 91.9436 46.6208L100.612 50.0533C102.767 50.907 102.7 53.9808 100.51 54.7399L91.7006 57.7925C89.2744 58.6332 88.5494 61.7135 90.3458 63.5482L96.8683 70.2096C98.4904 71.8662 97.1791 74.6471 94.869 74.4495L85.58 73.6552C83.0216 73.4365 81.1063 75.9555 82.0012 78.3623L85.2504 87.1007C86.0584 89.2739 83.7294 91.281 81.6994 90.1609L73.5365 85.6571C71.2883 84.4166 68.514 85.9389 68.3526 88.5016L67.7666 97.8061C67.6209 100.12 64.6769 101.006 63.2779 99.1574L57.6527 91.7228C56.1033 89.6752 52.9497 89.9374 51.76 92.2129L47.4402 100.475C46.3659 102.529 43.3159 102.142 42.7899 99.8834L40.6749 90.8036C40.0924 88.3028 37.1047 87.2597 35.0923 88.8545L27.7856 94.645C25.9685 96.085 23.3399 94.4903 23.7779 92.2135L25.5388 83.0583C26.0238 80.5368 23.7187 78.3687 21.2316 79.0072L12.2014 81.3251C9.95568 81.9016 8.20302 79.3755 9.52915 77.4737L14.8616 69.8263C16.3302 67.72 15.1063 64.8019 12.5745 64.3735L3.38224 62.8181C1.09619 62.4313 0.522489 59.4108 2.50751 58.2128L10.4894 53.3954C12.6878 52.0686 12.7566 48.9049 10.6179 47.4838L2.85298 42.3241C0.921899 41.0409 1.62635 38.0482 3.92705 37.7611L13.1783 36.6067C15.7262 36.2888 17.0759 33.4266 15.7002 31.2585L10.7052 23.3866C9.46296 21.4289 11.3238 18.9814 13.5423 19.6549L22.4632 22.3632C24.9202 23.1091 27.3174 21.0433 26.9424 18.503L25.5811 9.28004Z" stroke="#272500"/>
</svg>
