<svg width="58" height="51" viewBox="0 0 58 51" fill="none" xmlns="http://www.w3.org/2000/svg">
<path opacity="0.75" d="M13.7401 7.17076C11.9636 2.32673 18.4098 -1.21044 21.5413 2.89011L25.4265 7.9775C27.5679 10.7815 31.7583 10.8726 34.0195 8.16433L38.1221 3.25061C41.4289 -0.709936 47.7153 3.10408 45.7299 7.86633L43.2667 13.7747C41.909 17.0312 43.9253 20.7057 47.4014 21.3099L53.7081 22.406C58.7914 23.2895 58.6316 30.6406 53.5147 31.3023L47.1663 32.1233C43.6672 32.5758 41.4931 36.1592 42.708 39.4716L44.912 45.4815C46.6886 50.3255 40.2424 53.8627 37.1108 49.7621L33.2257 44.6747C31.0843 41.8707 26.8939 41.7796 24.6327 44.4879L20.53 49.4016C17.2233 53.3622 10.9369 49.5482 12.9223 44.7859L15.3855 38.8776C16.7432 35.6211 14.7269 31.9465 11.2508 31.3424L4.94408 30.2463C-0.139245 29.3628 0.0205942 22.0116 5.13753 21.3499L11.4859 20.5289C14.985 20.0765 17.1591 16.493 15.9442 13.1806L13.7401 7.17076Z" stroke="#272500"/>
</svg>
