<svg width="354" height="414" viewBox="0 0 354 414" fill="none" xmlns="http://www.w3.org/2000/svg">
<path d="M-63.0932 1.98978C-63.0932 1.98978 -7.32277 4.11016 17.681 20.5933C48.3937 40.84 27.7758 72.8872 53.9488 96.7739C89.2739 129.013 151.84 102.097 183.59 136.614C215.25 171.032 166.886 209.603 192.701 247.041C212.356 275.544 271.574 269.967 270.131 302.98C268.207 346.998 180.63 299.419 127.614 314.739C79.482 328.647 58.0668 346.832 16.6148 371.064C-2.09767 382.003 -30.2383 400.197 -30.2383 400.197L-59.1897 412.693M-55.8896 141.212C-55.8896 141.212 -53.9794 178.449 -36.4443 195.197C-22.7211 208.304 -8.10289 209.552 10.434 218.281C40.2313 232.314 73.976 227.237 88.1963 252.294C96.5734 267.055 85.2051 278.719 91.6475 294.123C107.223 331.363 198.285 309.748 196.868 349.454C195.871 377.387 175.548 398.619 141.726 407.908C93.8344 421.062 84.6411 366.193 40.4837 348.88C15.8842 339.235 2.35943 330.538 -25.4006 329.048C-41.9535 328.159 -67.943 332.558 -67.943 332.558M-61.6866 8.53164C-61.6866 8.53164 -8.48094 12.3242 16.1672 28.82C46.0709 48.7267 27.1309 79.3073 52.9403 102.472C88.0021 133.845 149.196 107.968 180.111 142.034C210.662 175.517 164.06 212.807 188.953 249.195C208.413 278.114 269.148 271.774 267.706 305.105C265.826 348.357 181.452 304.055 129.35 319.088C81.229 332.96 60.3958 347.666 18.815 369.92C-0.177823 379.878 -27.6225 396.793 -28.9444 396.722C-57.3054 408.58 -58.543 408.79 -58.543 408.79M-61.3436 15.1612C-61.3436 15.1612 -10.7027 20.6261 13.5898 37.1345C42.6844 56.7012 25.4223 85.8152 50.8681 108.258C85.6667 138.764 145.488 113.927 175.569 147.543C205.011 180.089 160.171 216.098 184.141 251.437C203.407 280.772 265.658 273.668 264.217 307.318C262.382 349.804 181.21 308.779 130.022 323.524C81.9125 337.36 61.6613 348.588 19.9516 368.863C0.678454 377.842 -26.0702 393.475 -28.714 393.334C-56.4846 404.555 -58.9598 404.974 -58.9598 404.974M-61.0005 21.7908C-61.0005 21.7908 -12.9244 28.9279 11.0124 45.4489C39.298 64.6757 23.7138 92.323 48.796 114.044C83.3314 143.683 141.78 119.886 171.026 153.052C199.36 184.662 156.281 219.389 179.329 253.679C198.4 283.43 262.168 275.562 260.729 309.531C258.937 351.251 180.968 313.503 130.694 327.961C82.5959 341.761 62.9267 349.51 21.0882 367.807C1.53472 375.805 -24.5179 390.158 -28.4837 389.945C-55.6639 400.529 -59.3767 401.158 -59.3767 401.158M-60.6575 28.4205C-60.6575 28.4205 -15.1462 37.2297 8.43497 53.7633C35.9116 72.6501 22.0053 98.8309 46.7238 119.83C80.996 148.602 138.072 125.845 166.484 158.56C193.708 189.234 152.392 222.68 174.517 255.921C193.394 286.089 258.678 277.457 257.24 311.744C255.492 352.698 180.726 318.227 131.366 332.397C83.2794 346.162 64.1922 350.432 22.2248 366.751C2.39101 373.769 -22.9657 386.841 -28.2533 386.557C-54.8431 396.504 -59.7935 397.342 -59.7935 397.342M-60.3145 35.0501C-60.3145 35.0501 -17.3679 45.5316 5.85759 62.0778C32.5252 80.6246 20.2968 105.339 44.6517 125.617C78.6607 153.521 134.365 131.804 161.941 164.069C188.057 193.807 148.502 225.972 169.704 258.163C188.388 288.747 255.188 279.351 253.751 313.957C252.048 354.145 180.484 322.95 132.038 336.834C83.9628 350.563 65.4576 351.354 23.3614 365.694C3.2473 371.732 -21.4134 383.524 -28.0229 383.169C-54.0223 392.478 -60.2103 393.526 -60.2103 393.526M-59.9715 41.6797C-59.9715 41.6797 -19.5897 53.8334 3.28019 70.3922C29.1388 88.5991 18.5883 111.847 42.5796 131.403C76.3253 158.44 130.657 137.763 157.398 169.577C182.406 198.379 144.612 229.263 164.892 260.405C183.381 291.405 251.698 281.245 250.262 316.17C248.603 355.593 180.242 327.674 132.71 341.271C84.6463 354.963 66.723 352.276 24.498 364.638C4.10357 369.695 -19.8611 380.207 -27.7926 379.781C-53.2015 388.453 -60.6271 389.71 -60.6271 389.71M-59.6284 48.3093C-59.6284 48.3093 -21.8114 62.1352 0.70279 78.7067C25.7523 96.5735 16.8798 118.354 40.5074 137.189C73.9899 163.359 126.949 143.722 152.856 175.086C176.755 202.952 140.723 232.554 160.08 262.647C178.375 294.063 248.208 283.14 246.774 318.383C245.159 357.04 180 332.398 133.382 345.707C85.3297 359.364 67.9885 353.198 25.6346 363.581C4.95984 367.659 -18.3088 376.89 -27.5622 376.393C-52.3808 384.428 -61.0439 385.894 -61.0439 385.894M-58.9424 61.5685C-58.9424 61.5685 -26.2549 78.7389 -4.452 95.3356C18.9795 112.522 13.4628 131.37 36.3632 148.761C69.3192 173.197 119.533 155.64 143.771 186.103C165.452 212.097 132.944 239.137 150.456 267.131C168.362 299.379 241.228 286.928 239.796 322.809C238.269 359.934 179.516 341.846 134.726 354.581C86.6966 368.165 70.5194 355.042 27.9079 361.469C6.6724 363.586 -15.2043 370.256 -27.1015 369.617C-50.7392 376.377 -61.8776 378.262 -61.8776 378.262M-47.5105 67.2632C-47.5105 67.2632 -6.41644 85.2133 22.7414 101.197C53.5182 117.383 47.6554 134.941 78.3192 150.95C122.821 173.561 190.941 155.446 222.381 184.815C250.061 209.302 206.692 236.115 228.8 262.622C252.281 294.83 355.645 279.221 352.519 315.582C349.317 352.104 272.902 339.002 211.783 352.878C144.898 367.989 123.839 351.827 64.5455 357.642C34.7314 359.463 5.24664 365.54 -13.0263 365.246C-45.1177 372.117 -62.3124 374.61 -62.3124 374.61M-58.2563 74.8277C-58.2563 74.8277 -30.6984 95.3425 -9.60679 111.964C12.2066 128.471 10.0457 144.386 32.2189 160.333C64.6485 183.035 112.118 167.559 134.686 197.12C154.15 221.242 125.164 245.719 140.832 271.615C158.35 304.695 234.248 290.717 232.819 327.236C231.38 362.828 179.032 351.293 136.07 363.454C88.0635 376.967 73.0503 356.886 30.1811 359.356C8.38496 359.513 -12.0998 363.621 -26.6407 362.841C-49.0977 368.326 -62.7113 370.63 -62.7113 370.63M-57.5703 88.0869C-57.5703 88.0869 -35.1419 111.946 -14.7616 128.593C5.4338 144.42 6.62873 157.402 28.0746 171.905C59.9778 192.873 104.702 179.477 125.6 208.138C142.847 230.387 117.385 252.301 131.208 276.099C148.337 310.011 227.268 294.506 225.841 331.662C224.491 365.722 178.548 360.741 137.414 372.327C89.4304 385.768 75.5811 358.73 32.4543 357.243C10.0975 355.44 -8.9952 356.987 -26.18 356.065C-47.4561 360.275 -63.5449 362.998 -63.5449 362.998M-57.2273 94.7165C-57.2273 94.7165 -37.3636 120.248 -17.339 136.908C2.04738 152.395 4.92023 163.909 26.0025 177.691C57.6424 197.792 100.994 185.436 121.058 213.646C137.196 234.96 113.496 255.593 126.396 278.341C143.331 312.669 223.779 296.4 222.353 333.875C221.046 367.17 178.306 365.464 138.086 376.764C90.1138 390.169 76.8466 359.652 33.591 356.187C10.9538 353.403 -7.44293 353.67 -25.9496 352.677C-46.6354 356.25 -63.9617 359.182 -63.9617 359.182M-56.5412 107.976C-56.5412 107.976 -41.8071 136.852 -22.4938 153.537C-4.72546 168.344 1.5032 176.925 21.8582 189.263C52.9717 207.63 93.5787 197.354 111.973 224.663C125.893 244.105 105.717 262.175 116.771 282.825C133.318 317.985 216.799 300.189 215.375 338.301C214.157 370.064 177.822 374.912 139.43 385.637C91.4807 398.97 79.3775 361.496 35.8642 354.074C12.6664 349.33 -4.33838 347.036 -25.4889 345.901C-44.9938 348.199 -64.7954 351.55 -64.7954 351.55M-56.1982 114.605C-56.1982 114.605 -44.0289 145.154 -25.0711 161.851C-8.11188 176.318 -0.20529 183.433 19.7861 195.049C50.6363 212.55 89.8709 203.313 107.43 230.172C120.242 248.677 101.827 265.466 111.959 285.067C128.312 320.643 213.309 302.083 211.886 340.514C210.713 371.511 177.58 379.636 140.102 390.074C92.1641 403.371 80.6429 362.418 37.0008 353.018C13.5226 347.294 -2.78611 343.719 -25.2585 342.513C-44.1731 344.173 -65.2122 347.734 -65.2122 347.734M-55.8552 121.235C-55.8552 121.235 -46.2506 153.455 -27.6485 170.166C-11.4983 184.293 -1.91381 189.941 17.714 200.835C48.301 217.469 86.163 209.272 102.888 235.681C114.591 253.25 97.9374 268.758 107.147 287.309C123.305 323.301 209.819 303.977 208.398 342.727C207.268 372.958 177.338 384.36 140.774 394.51C92.8476 407.772 81.9084 363.34 38.1374 351.961C14.3789 345.257 -1.23383 340.402 -25.0282 339.124C-43.3523 340.148 -65.629 343.918 -65.629 343.918M-55.5121 127.865C-55.5121 127.865 -48.4723 161.757 -30.2259 178.48C-14.8847 192.267 -3.62232 196.449 15.6418 206.621C45.9656 222.388 82.4552 215.231 98.345 241.189C108.939 257.822 94.0478 272.049 102.335 289.551C118.299 325.959 206.329 305.871 204.909 344.94C203.823 374.405 177.096 389.083 141.446 398.947C93.531 412.173 83.1738 364.262 39.274 350.905C15.2352 343.22 0.318447 337.085 -24.7978 335.736C-42.5315 336.122 -66.0458 340.102 -66.0458 340.102M-55.1691 134.494C-55.1691 134.494 -50.6941 170.059 -32.8033 186.794C-18.2711 200.242 -5.33082 202.956 13.5697 212.408C43.6302 227.307 78.7474 221.19 93.8024 246.698C103.288 262.395 90.1582 275.34 97.5231 291.793C113.293 328.617 202.839 307.766 201.42 347.153C200.379 375.852 176.854 393.807 142.118 403.384C94.2145 416.573 84.4392 365.184 40.4106 349.849C16.0915 341.184 1.87071 333.768 -24.5674 332.348C-41.7107 332.097 -66.4627 336.286 -66.4627 336.286" stroke="url(#paint0_linear_341_588)" stroke-opacity="0.3" stroke-width="2"/>
<defs>
<linearGradient id="paint0_linear_341_588" x1="-30" y1="385" x2="241.398" y2="238.211" gradientUnits="userSpaceOnUse">
<stop stop-color="#264796"/>
<stop offset="1" stop-color="#0A85C9"/>
</linearGradient>
</defs>
</svg>
