<svg width="322" height="298" viewBox="0 0 322 298" fill="none" xmlns="http://www.w3.org/2000/svg">
<path d="M375.718 296.829C375.718 296.829 310.775 287.385 287.474 272.967C258.853 255.256 295.154 237.221 273.247 217.779C243.679 191.539 159.854 200.153 135.353 172.935C110.922 145.796 182.369 127.49 165.958 99.2147C153.462 77.6874 81.5731 72.7923 95.6338 51.3549C114.382 22.7713 199.797 66.6145 268.023 64.226C329.964 62.0576 362.015 53.2263 419.947 43.3243C446.099 38.8543 486.081 30.988 486.081 30.988L524.885 26.9757M419.352 204.504C419.352 204.504 431.042 179.813 416.644 166.299C405.375 155.723 388.612 152.794 370.031 144.393C340.162 130.889 298.486 129.345 291.106 110.862C286.758 99.9737 304.525 93.9676 302.698 82.9374C298.282 56.2706 182.853 57.2927 199.39 31.4632C211.024 13.2917 242.927 2.30541 286.272 1.09879C347.647 -0.609726 337.94 36.694 383.507 54.4228C408.891 64.2992 421.577 71.9547 453.74 76.9406C472.919 79.9137 505.2 80.7828 505.2 80.7828M376.51 292.337C376.51 292.337 315.216 282.166 292.339 267.791C264.544 250.42 298.318 233.104 276.569 214.188C246.987 188.555 165.169 196.685 141.483 169.883C118.008 143.518 186.9 125.797 171.183 98.3436C159.072 76.5715 85.1094 71.9581 99.2881 50.3116C117.697 22.2238 200.564 63.4561 267.605 61.1239C329.519 58.9773 359.582 52.343 416.925 43.7567C443.041 39.9699 481.723 32.8428 483.254 33.0802C521.124 29.4004 522.661 29.4418 522.661 29.4418M378.588 287.94C378.588 287.94 320.943 277.044 298.49 262.712C271.521 245.681 302.768 229.084 281.178 210.694C251.581 185.667 171.771 193.313 148.9 166.928C126.382 141.336 192.717 124.201 177.694 97.5684C165.968 75.5517 89.9323 71.2201 104.229 49.3644C122.299 21.7724 202.618 60.3937 268.474 58.1178C330.361 55.9932 358.435 51.5558 415.19 44.2852C441.269 41.1815 478.651 34.7936 481.714 35.2684C518.649 31.9213 521.723 32.0041 521.723 32.0041M380.665 283.544C380.665 283.544 326.67 271.921 304.64 257.632C278.498 240.941 307.219 225.064 285.787 207.199C256.176 182.779 178.372 189.941 156.317 163.972C134.755 139.154 198.534 122.605 184.206 96.7934C172.864 74.5318 94.7552 70.482 109.17 48.4171C126.901 21.321 204.672 57.3314 269.343 55.1118C331.203 53.009 357.289 50.7685 413.455 44.8137C439.497 42.3932 475.58 36.7444 480.174 37.4566C516.174 34.4422 520.786 34.5663 520.786 34.5663M382.743 279.147C382.743 279.147 332.397 266.799 310.791 252.553C285.476 236.201 311.669 221.043 290.395 203.705C260.77 179.891 184.974 186.569 163.734 161.016C143.128 136.972 204.351 121.009 190.717 96.0182C179.761 73.512 99.578 69.7439 114.11 47.4699C131.503 20.8696 206.725 54.269 270.212 52.1057C332.045 50.0249 356.143 49.9813 411.72 45.3422C437.725 43.6049 472.508 38.6952 478.634 39.6449C513.7 36.963 519.849 37.1286 519.849 37.1286M384.821 274.751C384.821 274.751 338.124 261.677 316.942 247.473C292.453 231.462 316.119 217.023 295.004 200.21C265.365 177.003 191.575 183.198 171.15 158.06C151.501 134.79 210.168 119.412 197.228 95.2431C186.657 72.4921 104.401 69.0058 119.051 46.5227C136.105 20.4182 208.779 51.2067 271.081 49.0997C332.887 47.0407 354.996 49.194 409.984 45.8707C435.954 44.8165 469.436 40.6459 477.094 41.8331C511.225 39.4839 518.911 39.6908 518.911 39.6908M386.899 270.355C386.899 270.355 343.851 256.554 323.093 242.394C299.43 226.722 320.57 213.003 299.613 196.716C269.959 174.115 198.177 179.826 178.567 155.104C159.874 132.608 215.985 117.816 203.74 94.468C193.553 71.4723 109.224 68.2678 123.992 45.5755C140.707 19.9668 210.833 48.1444 271.95 46.0936C333.729 44.0566 353.85 48.4068 408.249 46.3992C434.182 46.0282 466.365 42.5967 475.554 44.0213C508.751 42.0047 517.974 42.2531 517.974 42.2531M388.976 265.958C388.976 265.958 349.578 251.432 329.244 237.315C306.407 221.982 325.02 208.982 304.222 193.221C274.554 171.226 204.778 176.454 185.984 152.148C168.247 130.426 221.801 116.22 210.251 93.6929C200.449 70.4525 114.047 67.5297 128.933 44.6283C145.309 19.5154 212.887 45.0821 272.819 43.0875C334.571 41.0724 352.703 47.6195 406.514 46.9277C432.41 47.2399 463.293 44.5475 474.014 46.2095C506.276 44.5256 517.037 44.8153 517.037 44.8153M393.132 257.165C393.132 257.165 361.032 241.187 341.546 227.156C320.362 212.503 333.921 200.942 313.439 186.232C283.742 165.45 217.981 169.71 200.818 146.236C184.994 126.062 233.435 113.027 223.274 92.1427C214.242 68.4127 123.692 66.0536 138.814 42.7338C154.513 18.6126 216.994 38.9574 274.557 37.0754C336.256 35.1041 350.41 46.045 403.043 47.9847C428.866 49.6632 457.15 48.4491 470.934 50.586C501.327 49.5673 515.162 49.9398 515.162 49.9398M381.789 251.78C381.789 251.78 340.072 234.077 311.688 219.385C281.47 204.328 294.955 193.663 264.805 178.737C220.816 157.486 133.74 159.526 107.677 135.729C84.2178 115.676 145.376 104.358 129.241 83.7853C113.623 59.2763 -14.0573 54.5843 3.24032 31.1943C20.6886 7.71002 105.854 27.3357 183.091 27.0638C267.587 26.8147 286.358 40.4529 358.425 45.203C394.249 48.3143 431.279 48.5879 452.707 51.4193C493.106 51.5485 514.307 52.3971 514.307 52.3971M397.288 248.372C397.288 248.372 372.486 230.942 353.848 216.997C334.316 203.024 342.822 192.901 322.657 179.243C292.931 159.674 231.184 162.967 215.651 140.325C201.74 121.698 245.069 109.835 236.297 90.5925C228.034 66.3731 133.338 64.5774 148.696 40.8394C163.717 17.7098 221.102 32.8327 276.295 31.0633C337.94 29.1358 348.118 44.4705 399.573 49.0417C425.323 52.0865 451.007 52.3507 467.854 54.9624C496.378 54.6091 513.287 55.0643 513.287 55.0643M401.443 239.579C401.443 239.579 383.94 220.697 366.15 206.838C348.271 193.544 351.723 184.86 331.874 172.254C302.12 153.898 244.387 156.223 230.485 134.413C218.486 117.334 256.703 106.642 249.32 89.0422C241.826 64.3334 142.984 63.1012 158.577 38.9449C172.921 16.8069 225.21 26.708 278.033 25.0512C339.624 23.1675 345.825 42.896 396.102 50.0987C421.779 54.5098 444.864 56.2523 464.774 59.3388C491.429 59.6508 511.412 60.1888 511.412 60.1888M403.521 235.183C403.521 235.183 389.667 215.574 372.301 201.759C355.248 188.805 356.173 180.84 336.483 168.759C306.714 151.01 250.989 152.851 237.902 131.457C226.859 115.152 262.52 105.046 255.832 88.2671C248.723 63.3135 147.807 62.3631 163.518 37.9977C177.523 16.3555 227.264 23.6457 278.902 22.0451C340.466 20.1833 344.678 42.1087 394.367 50.6272C420.007 55.7215 441.792 58.2031 463.234 61.5271C488.954 62.1716 510.475 62.751 510.475 62.751M407.677 226.39C407.677 226.39 401.121 205.329 384.603 191.6C369.203 179.325 365.074 172.799 345.7 161.77C315.903 145.234 264.192 146.108 252.735 125.545C243.606 110.788 274.154 101.853 268.855 86.7169C262.515 61.2738 157.452 60.887 173.399 36.1033C186.727 15.4527 231.371 17.521 280.64 16.033C342.15 14.215 342.386 40.5342 390.897 51.6842C416.464 58.1448 435.649 62.1047 460.154 65.9035C484.005 67.2134 508.6 67.8755 508.6 67.8755M409.754 221.994C409.754 221.994 406.848 200.207 390.753 186.521C376.18 174.586 369.524 168.779 350.309 158.275C320.498 142.346 270.793 142.736 260.152 122.589C251.979 108.606 279.971 100.257 275.366 85.9418C269.411 60.254 162.275 60.1489 178.34 35.156C191.329 15.0013 233.425 14.4587 281.509 13.027C342.992 11.2309 341.239 39.747 389.161 52.2127C414.692 59.3565 432.577 64.0555 458.614 68.0917C481.531 69.7342 507.663 70.4377 507.663 70.4377M411.832 217.597C411.832 217.597 412.575 195.084 396.904 181.441C383.157 169.846 373.974 164.759 354.918 154.781C325.092 139.458 277.395 139.364 267.569 119.633C260.352 106.424 285.788 98.6605 281.878 85.1667C276.307 59.2341 167.098 59.4108 183.281 34.2088C195.931 14.5499 235.479 11.3964 282.378 10.0209C343.834 8.24669 340.093 38.9597 387.426 52.7412C412.92 60.5682 429.506 66.0062 457.074 70.2799C479.056 72.2551 506.725 73 506.725 73M413.91 213.201C413.91 213.201 418.302 189.962 403.055 176.362C390.134 165.106 378.425 160.738 359.527 151.286C329.687 136.57 283.996 135.992 274.986 116.678C268.725 104.242 291.605 97.0642 288.389 84.3916C283.204 58.2143 171.921 58.6728 188.222 33.2616C200.533 14.0985 237.533 8.33404 283.247 7.01488C344.676 5.26255 338.946 38.1725 385.691 53.2697C411.149 61.7798 426.434 67.9571 455.534 72.4682C476.581 74.7759 505.788 75.5623 505.788 75.5623M415.988 208.804C415.988 208.804 424.029 184.839 409.206 171.282C397.112 160.367 382.875 156.718 364.135 147.792C334.281 133.682 290.598 132.621 282.402 113.722C277.098 102.06 297.422 95.4679 294.9 83.6165C290.1 57.1944 176.744 57.9347 193.163 32.3143C205.135 13.6471 239.586 5.27168 284.116 4.00881C345.518 2.27838 337.8 37.3852 383.956 53.7982C409.377 62.9915 423.362 69.9078 453.994 74.6564C474.107 77.2968 504.851 78.1245 504.851 78.1245" stroke="url(#paint0_linear_341_589)" stroke-opacity="0.3" stroke-width="2"/>
<defs>
<linearGradient id="paint0_linear_341_589" x1="250" y1="346" x2="403.311" y2="112.69" gradientUnits="userSpaceOnUse">
<stop stop-color="#264796"/>
<stop offset="1" stop-color="#0A85C9"/>
</linearGradient>
</defs>
</svg>
