<svg width="428" height="466" viewBox="0 0 428 466" fill="none" xmlns="http://www.w3.org/2000/svg">
<path d="M1047.35 6.74251C1047.35 6.74251 927.386 140.765 858.759 183.631C774.462 236.285 787.438 150.337 709.263 187.854C603.752 238.489 497.165 421.323 397.037 460.692C297.196 499.948 362.611 338.921 272.244 360.539C203.442 376.997 83.5418 527.985 55.0455 487.855C17.05 434.348 247.717 272.949 345.191 126.325C433.685 -6.79061 461.594 -79.319 526.097 -207.546C555.215 -265.431 597.337 -354.416 597.337 -354.416L646.619 -439.064M899.074 -130C899.074 -130 859.45 -166.614 806.363 -142.304C764.817 -123.28 732.711 -88.9179 685.169 -53.2685C608.747 4.03643 542.238 92.1797 488.221 99.1711C456.4 103.29 469.295 62.5591 440.951 61.2343C372.426 58.0313 200.511 304.669 165.565 257.181C140.98 223.772 163.666 150.539 226.314 57.5348C315.021 -74.1568 386.895 -35.8035 496.82 -124.585C558.058 -174.044 594.97 -197.473 655.098 -263.702C690.952 -303.193 741.709 -371.621 741.709 -371.621M1038.12 2.92898C1038.12 2.92898 921.986 128.826 854.099 170.809C771.838 221.86 782.667 141.642 705.951 179.07C601.825 230.023 497.146 408.348 399.214 446.175C302.612 483.757 365.526 328.459 278.112 348.984C209.324 364.506 86.9465 520.049 58.1431 479.569C20.7861 427.018 241.549 269.818 337.365 125.747C425.869 -7.30061 455.871 -74.5489 522.537 -200.898C553.185 -258.382 595.059 -344.244 597.922 -347.398C646.565 -429.896 648.982 -433.155 648.982 -433.155M1031.06 -3.58255C1031.06 -3.58255 918.751 114.189 851.604 155.288C771.378 204.738 780.061 130.249 704.803 167.588C602.063 218.858 499.292 392.674 403.556 428.959C310.193 464.869 370.606 315.299 286.146 334.731C217.37 349.317 92.5165 509.415 63.406 468.584C26.6876 416.991 237.547 263.989 331.704 122.472C420.219 -10.5085 452.314 -72.4767 521.143 -196.947C553.32 -254.03 594.946 -336.771 600.672 -343.078C648.676 -423.426 653.51 -429.943 653.51 -429.943M1024 -10.0941C1024 -10.0941 915.516 99.5521 849.109 139.767C770.919 187.616 777.455 118.856 703.656 156.106C602.301 207.694 501.439 377.001 407.898 411.744C317.774 445.98 375.686 302.139 294.179 320.479C225.417 334.129 98.0865 498.781 68.6687 457.6C32.589 406.964 233.544 258.16 326.043 119.196C414.568 -13.7164 448.757 -70.4045 519.749 -192.997C553.456 -249.678 594.833 -329.297 603.423 -338.759C650.787 -416.956 658.038 -426.731 658.038 -426.731M1016.94 -16.6056C1016.94 -16.6056 912.281 84.915 846.614 124.246C770.46 170.494 774.849 107.463 702.509 144.624C602.539 196.529 503.585 361.327 412.241 394.529C325.355 427.092 380.767 288.979 302.213 306.226C233.464 318.94 103.656 488.147 73.9316 446.615C38.4905 396.936 229.542 252.331 320.382 115.92C408.917 -16.9244 445.2 -68.3324 518.355 -189.046C553.591 -245.326 594.72 -321.824 606.173 -334.439C652.898 -410.486 662.566 -423.52 662.566 -423.52M1009.88 -23.1171C1009.88 -23.1171 909.046 70.278 844.118 108.726C770.001 153.372 772.243 96.0696 701.361 133.142C602.776 185.365 505.731 345.654 416.583 377.313C332.937 408.203 385.847 275.819 310.247 291.974C241.511 303.751 109.226 477.513 79.1943 435.631C44.3918 386.909 225.539 246.502 314.722 112.645C403.267 -20.1322 441.643 -66.2601 516.961 -185.096C553.726 -240.974 594.608 -314.35 608.924 -330.119C655.009 -404.016 667.094 -420.308 667.094 -420.308M1002.82 -29.6286C1002.82 -29.6286 905.811 55.6408 841.623 93.2048C769.541 136.25 769.637 84.6765 700.214 121.66C603.014 174.201 507.878 329.98 420.925 360.098C340.518 389.315 390.927 262.659 318.28 277.721C249.558 288.562 114.796 466.879 84.4573 424.646C50.2933 376.881 221.537 240.672 309.061 109.369C397.616 -23.3401 438.086 -64.188 515.567 -181.145C553.862 -236.623 594.495 -306.877 611.675 -325.8C657.12 -397.546 671.622 -417.097 671.622 -417.097M995.76 -36.1402C995.76 -36.1402 902.575 41.0037 839.128 77.6841C769.082 119.128 767.031 73.2834 699.067 110.178C603.252 163.036 510.024 314.307 425.267 342.883C348.099 370.426 396.007 249.499 326.314 263.469C257.605 273.373 120.366 456.245 89.7201 413.662C56.1947 366.854 217.535 234.844 303.4 106.093C391.965 -26.548 434.529 -62.1158 514.173 -177.195C553.997 -232.271 594.382 -299.404 614.425 -321.48C659.231 -391.076 676.15 -413.885 676.15 -413.885M981.638 -49.1633C981.638 -49.1633 896.105 11.7295 834.138 46.6426C768.163 84.8836 761.819 50.4972 696.772 87.2136C603.728 140.707 514.317 282.96 433.951 308.452C363.261 332.649 406.167 223.178 342.381 234.963C273.699 242.995 131.506 434.976 100.246 391.693C67.9976 346.799 209.53 223.185 292.078 99.5415C380.664 -32.9639 427.415 -57.9715 511.384 -169.294C554.268 -223.567 594.157 -284.457 619.926 -312.84C663.454 -378.136 685.207 -407.462 685.207 -407.462M952.021 -27.523C952.021 -27.523 847.966 53.0617 771.031 106.639C690.48 163.951 686.099 130.148 605.955 187.38C490.24 271.13 363.497 457.785 268.945 502.104C187.009 542.64 253.098 406.863 181.015 431.536C100.582 453.242 -103.086 723.301 -131.224 675.344C-159.353 627.022 14.7617 454.694 130.75 289.857C257.753 109.55 317.731 75.9745 437.563 -75.4617C498.871 -150.384 555.416 -229.22 594.338 -273.577C655.636 -359.667 689.616 -404.477 689.616 -404.477M967.517 -62.1863C967.517 -62.1863 889.635 -17.5447 829.148 15.6011C767.245 50.6394 756.606 27.711 694.477 64.2496C604.204 118.379 518.61 251.613 442.635 274.022C378.424 294.872 416.328 196.858 358.449 206.458C289.792 212.618 142.646 413.708 110.771 369.724C79.8004 326.744 201.525 211.527 280.757 92.9901C369.362 -39.3797 420.301 -53.8272 508.596 -161.392C554.539 -214.864 593.932 -269.51 625.427 -304.201C667.676 -365.196 694.263 -401.039 694.263 -401.039M953.395 -75.2094C953.395 -75.2094 883.165 -46.8189 824.158 -15.4404C766.326 16.3952 751.394 4.9248 692.183 41.2856C604.679 96.0497 522.902 220.266 451.319 239.591C393.586 257.095 426.488 170.538 374.516 177.953C305.886 182.24 153.786 392.44 121.297 347.755C91.6033 306.689 193.52 199.869 269.435 86.4386C358.061 -45.7956 413.186 -49.6829 505.808 -153.491C554.809 -206.16 593.706 -254.563 630.929 -295.562C671.898 -352.256 703.319 -394.616 703.319 -394.616M946.334 -81.7209C946.334 -81.7209 879.93 -61.456 821.663 -30.9611C765.867 -0.726904 748.788 -6.46829 691.035 29.8035C604.917 84.8853 525.049 204.592 455.661 222.376C401.167 238.207 431.568 157.378 382.55 163.7C313.933 167.051 159.356 381.806 126.56 336.77C97.5047 296.662 189.518 194.04 263.774 83.1628C352.41 -49.0035 409.629 -47.6107 504.414 -149.541C554.945 -201.808 593.593 -247.09 633.679 -291.242C674.009 -345.786 707.847 -391.404 707.847 -391.404M932.213 -94.7439C932.213 -94.7439 873.46 -90.7302 816.673 -62.0026C764.949 -34.9711 743.576 -29.2545 688.741 6.8395C605.393 62.5565 529.341 173.245 464.346 187.945C416.329 200.43 441.729 131.058 398.617 135.195C330.027 136.674 170.496 360.538 137.086 314.801C109.308 276.607 181.513 182.382 252.453 76.6114C341.109 -55.4193 402.515 -43.4664 501.625 -141.64C555.216 -193.105 593.368 -232.143 639.18 -282.603C678.231 -332.845 716.903 -384.981 716.903 -384.981M925.152 -101.255C925.152 -101.255 870.225 -105.367 814.178 -77.5234C764.489 -52.0932 740.97 -40.6475 687.593 -4.64249C605.631 51.3921 531.488 157.572 468.688 170.73C423.91 181.542 446.809 117.898 406.651 120.943C338.074 121.485 176.066 349.904 142.348 303.817C115.209 266.58 177.511 176.553 246.792 73.3356C335.458 -58.6272 398.958 -41.3942 500.231 -137.689C555.351 -188.753 593.255 -224.669 641.931 -278.283C680.342 -326.375 721.431 -381.77 721.431 -381.77M918.091 -107.767C918.091 -107.767 866.99 -120.004 811.683 -93.0441C764.03 -69.2153 738.364 -52.0407 686.446 -16.1245C605.868 40.2277 533.634 141.898 473.03 153.515C431.492 162.653 451.889 104.737 414.685 106.69C346.121 106.296 181.636 339.27 147.611 292.832C121.11 256.552 173.508 170.724 241.131 70.0598C329.807 -61.8352 395.401 -39.3221 498.837 -133.739C555.486 -184.401 593.142 -217.196 644.681 -273.963C682.453 -319.905 725.959 -378.558 725.959 -378.558M911.03 -114.278C911.03 -114.278 863.755 -134.641 809.188 -108.565C763.571 -86.3374 735.758 -63.4337 685.299 -27.6065C606.106 29.0633 535.78 126.225 477.372 136.3C439.073 143.765 456.969 91.5774 422.718 92.4375C354.167 91.107 187.206 328.636 152.874 281.848C127.012 246.525 169.506 164.895 235.47 66.7842C324.157 -65.043 391.844 -37.2498 497.443 -129.788C555.622 -180.05 593.03 -209.722 647.432 -269.643C684.564 -313.435 730.487 -375.347 730.487 -375.347M903.97 -120.79C903.97 -120.79 860.52 -149.279 806.693 -124.086C763.111 -103.459 733.152 -74.8268 684.151 -39.0885C606.344 17.8988 537.927 110.551 481.714 119.084C446.654 124.876 462.049 78.4172 430.752 78.1848C362.214 75.9181 192.776 318.001 158.137 270.863C132.913 236.497 165.503 159.066 229.809 63.5084C318.506 -68.251 388.287 -35.1777 496.049 -125.838C555.757 -175.698 592.917 -202.249 650.182 -265.324C686.676 -306.965 735.015 -372.135 735.015 -372.135" stroke="white" stroke-opacity="0.25" stroke-width="2"/>
</svg>
