<svg width="516" height="541" viewBox="0 0 516 541" fill="none" xmlns="http://www.w3.org/2000/svg">
<path d="M-63.5727 0.967616C-63.5727 0.967616 14.0777 3.02525 48.8799 24.3283C91.6283 50.4953 62.8981 92.8129 99.3231 123.815C148.485 165.658 235.618 129.527 279.801 174.405C323.857 219.155 256.491 270.393 292.408 319.181C319.753 356.325 402.21 348.238 400.177 391.573C397.467 449.355 275.563 388.064 201.735 408.854C134.709 427.728 104.879 451.868 47.1456 484.201C21.0835 498.797 -18.1111 523.036 -18.1111 523.036L-58.4305 539.809M-53.6421 183.549C-53.6421 183.549 -51.0089 232.384 -26.6058 254.132C-7.50774 271.152 12.845 272.599 38.6486 283.813C80.1269 301.837 127.115 294.738 146.897 327.431C158.55 346.691 142.713 362.143 151.672 382.27C173.332 430.931 300.138 401.387 298.136 453.504C296.728 490.169 268.417 518.291 221.318 530.92C154.627 548.801 141.865 476.926 80.3952 454.783C46.151 442.447 27.326 431.212 -11.3246 429.617C-34.3714 428.666 -70.561 434.775 -70.561 434.775M-61.6189 9.53303C-61.6189 9.53303 12.4592 13.8181 46.7662 35.1423C88.3885 60.8738 61.9955 101.245 97.9147 131.305C146.711 172.014 231.932 137.265 274.953 181.563C317.467 225.099 252.554 274.633 287.187 322.056C314.262 359.748 398.83 350.64 396.799 394.393C394.151 451.169 276.704 394.136 204.149 414.537C137.138 433.364 108.121 452.932 50.2098 482.671C23.7581 495.985 -14.4665 518.535 -16.307 518.459C-55.8039 534.387 -57.5272 534.678 -57.5272 534.678M-61.146 18.2274C-61.146 18.2274 9.35988 24.74 43.1717 46.0854C83.6677 71.3813 59.612 109.807 95.0255 138.924C143.456 178.498 226.765 145.133 268.624 188.85C309.595 231.172 247.136 279.002 280.485 325.06C307.289 363.301 393.97 353.171 391.94 397.343C389.354 453.113 276.364 400.338 205.081 420.35C138.087 439.13 109.882 454.125 51.7931 481.27C24.9518 493.301 -12.3028 514.162 -15.9838 514.01C-54.6582 529.095 -58.1048 529.676 -58.1048 529.676M-60.6731 26.9218C-60.6731 26.9218 6.26051 35.6618 39.5771 57.0284C78.9469 81.8887 57.2286 118.368 92.1362 146.543C140.2 184.983 221.599 153 262.296 196.137C301.723 237.245 241.718 283.371 273.784 328.064C300.317 366.854 389.109 355.702 387.081 400.292C384.557 455.056 276.023 406.539 206.014 426.163C139.035 444.895 111.643 455.318 53.3764 479.869C26.1455 490.618 -10.1392 509.79 -15.6607 509.562C-53.5126 523.802 -58.6825 524.675 -58.6825 524.675M-60.2002 35.6161C-60.2002 35.6161 3.16114 46.5837 35.9826 67.9714C74.2261 92.3961 54.8451 126.929 89.2469 154.162C136.945 191.468 216.432 160.867 255.967 203.424C293.851 243.318 236.3 287.74 267.082 331.069C293.344 370.407 384.249 358.233 382.222 403.241C379.76 457 275.683 412.74 206.946 431.975C139.984 450.661 113.405 456.512 54.9597 478.469C27.3392 487.935 -7.97548 505.417 -15.3375 505.113C-52.3669 518.51 -59.2601 519.673 -59.2601 519.673M-59.7273 44.3105C-59.7273 44.3105 0.0618162 57.5055 32.388 78.9144C69.5054 102.904 52.4616 135.49 86.3577 161.781C133.69 197.953 211.265 168.734 249.638 210.711C285.979 249.391 230.882 292.109 260.38 334.073C286.372 373.959 379.388 360.764 377.363 406.19C374.963 458.943 275.343 418.942 207.879 437.788C140.932 456.426 115.166 457.705 56.5431 477.068C28.5329 485.251 -5.8118 501.044 -15.0143 500.665C-51.2212 513.217 -59.8378 514.672 -59.8378 514.672M-59.2545 53.0049C-59.2545 53.0049 -3.03757 68.4274 28.7934 89.8574C64.7846 113.411 50.0781 144.052 83.4684 169.4C130.435 204.437 206.098 176.601 243.309 217.998C278.108 255.465 225.464 296.478 253.679 337.077C279.399 377.512 374.528 363.294 372.504 409.139C370.165 460.887 275.002 425.143 208.811 443.601C141.881 462.191 116.927 458.898 58.1264 475.667C29.7266 482.568 -3.64813 496.672 -14.6912 496.216C-50.0755 507.925 -60.4154 509.67 -60.4154 509.67M-58.7816 61.6993C-58.7816 61.6993 -6.13693 79.3492 25.1989 100.8C60.0639 123.918 47.6947 152.613 80.5792 177.019C127.18 210.922 200.931 184.469 236.98 225.285C270.236 261.538 220.046 300.847 246.977 340.081C272.427 381.065 369.667 365.825 367.645 412.088C365.368 462.83 274.662 431.344 209.744 449.413C142.829 467.957 118.688 460.092 59.7097 474.266C30.9202 479.885 -1.48447 492.299 -14.368 491.768C-48.9299 502.632 -60.9931 504.669 -60.9931 504.669M-57.8358 79.088C-57.8358 79.088 -12.3357 101.193 18.0098 122.687C50.6223 144.933 42.9277 169.735 74.8006 192.256C120.67 223.892 190.598 200.203 224.323 239.859C254.492 273.684 209.21 309.585 233.573 346.09C258.482 388.17 359.946 370.887 357.926 417.986C355.774 466.718 273.981 443.747 211.609 461.039C144.726 479.487 122.211 462.478 62.8763 471.464C33.3076 474.518 2.84286 483.554 -13.7217 482.871C-46.6385 492.047 -62.1484 494.665 -62.1484 494.665M-41.9227 86.4116C-41.9227 86.4116 15.2818 109.43 55.8683 130.025C98.7087 150.862 90.5332 173.976 133.217 194.584C195.162 223.674 290.022 199.02 333.776 237.147C372.299 268.917 311.896 304.663 342.659 339.156C375.329 381.112 519.259 359.287 514.881 407.038C510.397 455.001 404.01 438.803 318.901 457.803C225.763 478.5 196.453 457.567 113.891 465.967C72.3785 468.744 31.3211 477.1 5.87903 476.952C-38.8084 486.385 -62.7512 489.879 -62.7512 489.879M-56.89 96.4767C-56.89 96.4767 -18.5344 123.037 10.8207 144.573C41.1808 165.948 38.1607 186.858 69.0221 207.494C114.159 236.861 180.264 215.937 211.665 254.433C238.749 285.83 198.374 318.323 220.17 352.099C244.537 395.275 350.225 375.949 348.208 423.884C346.18 470.605 273.301 456.149 213.474 472.664C146.623 491.018 125.734 464.865 66.043 468.663C35.695 469.151 7.1702 474.809 -13.0754 473.973C-44.3472 481.462 -63.3037 484.662 -63.3037 484.662M-55.9443 113.866C-55.9443 113.866 -24.7331 144.88 3.63153 166.459C31.7393 186.963 33.3938 203.98 63.2436 222.732C107.649 249.83 169.93 231.672 199.008 269.007C223.005 297.976 187.538 327.061 206.767 358.107C230.592 402.381 340.504 381.011 338.49 429.782C336.586 474.492 272.62 468.552 215.339 484.289C148.52 502.549 129.256 467.251 69.2096 465.861C38.0824 463.785 11.4976 466.064 -12.429 465.076C-42.0559 470.877 -64.4589 474.659 -64.4589 474.659M-55.4714 122.56C-55.4714 122.56 -27.8325 155.802 0.0369717 177.402C27.0185 197.471 31.0103 212.542 60.3544 230.351C104.394 256.315 164.764 239.539 192.679 276.294C215.133 304.05 182.12 331.431 200.065 361.111C223.62 405.934 335.643 383.542 333.631 432.731C331.788 476.435 272.28 474.753 216.271 490.102C149.468 508.314 131.017 468.445 70.7929 464.46C39.2761 461.102 13.6612 461.691 -12.1059 460.628C-40.9102 465.585 -65.0366 469.657 -65.0366 469.657M-54.5256 139.949C-54.5256 139.949 -34.0312 177.646 -7.15214 199.288C17.577 218.485 26.2433 229.664 54.5758 245.589C97.8835 269.285 154.43 255.273 180.021 290.867C199.39 316.196 171.284 340.168 186.662 367.12C209.675 413.039 325.922 388.603 323.913 438.63C322.194 480.322 271.599 487.156 218.136 501.727C151.365 519.845 134.54 470.831 73.9595 461.658C41.6634 455.735 17.9886 452.946 -11.4595 451.731C-38.6188 455 -66.1919 459.654 -66.1919 459.654M-54.0527 148.643C-54.0527 148.643 -37.1306 188.568 -10.7467 210.231C12.8562 228.993 23.8599 238.225 51.6866 253.208C94.6284 275.769 149.263 263.14 173.693 298.154C191.518 322.269 165.866 344.538 179.96 370.124C202.702 416.592 321.061 391.134 319.054 441.579C317.397 482.266 271.259 493.357 219.069 507.54C152.314 525.61 136.301 472.024 75.5429 460.258C42.8571 453.052 20.1522 448.573 -11.1364 447.282C-37.4732 449.707 -66.7695 454.653 -66.7695 454.653M-53.5798 157.337C-53.5798 157.337 -40.2299 199.49 -14.3413 221.174C8.13545 239.5 21.4764 246.787 48.7973 260.827C91.3732 282.254 144.096 271.008 167.364 305.441C183.646 328.342 160.448 348.907 173.258 373.129C195.73 420.144 316.201 393.665 314.194 444.528C312.6 484.209 270.919 499.558 220.001 513.353C153.262 531.376 138.063 473.218 77.1262 458.857C44.0508 450.368 22.3159 444.201 -10.8132 442.834C-36.3275 444.415 -67.3472 449.651 -67.3472 449.651M-53.1069 166.032C-53.1069 166.032 -43.3293 210.411 -17.9358 232.117C3.4147 250.008 19.0929 255.348 45.9081 268.446C88.1181 288.739 138.929 278.875 161.035 312.728C175.774 334.415 155.03 353.276 166.556 376.133C188.757 423.697 311.34 396.196 309.335 447.477C307.803 486.153 270.578 505.76 220.934 519.165C154.211 537.141 139.824 474.411 78.7095 457.456C45.2445 447.685 24.4796 439.828 -10.49 438.385C-35.1818 439.122 -67.9248 444.65 -67.9248 444.65M-52.6341 174.726C-52.6341 174.726 -46.4286 221.333 -21.5304 243.06C-1.30607 260.515 16.7094 263.909 43.0188 276.065C84.8629 295.224 133.763 286.742 154.706 320.015C167.903 340.488 149.612 357.645 159.855 379.137C181.785 427.25 306.48 398.727 304.476 450.426C303.006 488.097 270.238 511.961 221.866 524.978C155.159 542.907 141.585 475.604 80.2928 456.055C46.4382 445.002 26.6432 435.455 -10.1669 433.937C-34.0362 433.83 -68.5025 439.648 -68.5025 439.648" stroke="#0E2666"/>
</svg>
