<svg width="1185" height="345" viewBox="0 0 1185 345" fill="none" xmlns="http://www.w3.org/2000/svg">
<path d="M1183.35 6.74251C1183.35 6.74251 1063.39 140.765 994.759 183.631C910.462 236.285 923.438 150.337 845.263 187.854C739.752 238.489 633.165 421.323 533.037 460.692C433.196 499.948 498.611 338.921 408.244 360.539C339.442 376.997 219.542 527.985 191.046 487.855C153.05 434.348 383.717 272.949 481.191 126.325C569.685 -6.79061 597.594 -79.319 662.097 -207.546C691.215 -265.431 733.337 -354.416 733.337 -354.416L782.619 -439.064M1035.07 -130C1035.07 -130 995.45 -166.614 942.363 -142.304C900.817 -123.28 868.711 -88.9179 821.169 -53.2685C744.747 4.03643 678.238 92.1797 624.221 99.1711C592.4 103.29 605.295 62.5591 576.951 61.2343C508.426 58.0313 336.511 304.669 301.565 257.181C276.98 223.772 299.666 150.539 362.314 57.5348C451.021 -74.1568 522.895 -35.8035 632.82 -124.585C694.058 -174.044 730.97 -197.473 791.098 -263.702C826.952 -303.193 877.709 -371.621 877.709 -371.621M1174.12 2.92898C1174.12 2.92898 1057.99 128.826 990.099 170.809C907.838 221.86 918.667 141.642 841.951 179.07C737.825 230.023 633.146 408.348 535.214 446.175C438.612 483.757 501.526 328.459 414.112 348.984C345.324 364.506 222.947 520.049 194.143 479.569C156.786 427.018 377.549 269.818 473.365 125.747C561.869 -7.30061 591.871 -74.5489 658.537 -200.898C689.185 -258.382 731.059 -344.244 733.922 -347.398C782.565 -429.896 784.982 -433.155 784.982 -433.155M1167.06 -3.58255C1167.06 -3.58255 1054.75 114.189 987.604 155.288C907.378 204.738 916.061 130.249 840.803 167.588C738.063 218.858 635.292 392.674 539.556 428.959C446.193 464.869 506.606 315.299 422.146 334.731C353.37 349.317 228.517 509.415 199.406 468.584C162.688 416.991 373.547 263.989 467.704 122.472C556.219 -10.5085 588.314 -72.4767 657.143 -196.947C689.32 -254.03 730.946 -336.771 736.672 -343.078C784.676 -423.426 789.51 -429.943 789.51 -429.943M1160 -10.0941C1160 -10.0941 1051.52 99.5521 985.109 139.767C906.919 187.616 913.455 118.856 839.656 156.106C738.301 207.694 637.439 377.001 543.898 411.744C453.774 445.98 511.686 302.139 430.179 320.479C361.417 334.129 234.086 498.781 204.669 457.6C168.589 406.964 369.544 258.16 462.043 119.196C550.568 -13.7164 584.757 -70.4045 655.749 -192.997C689.456 -249.678 730.833 -329.297 739.423 -338.759C786.787 -416.956 794.038 -426.731 794.038 -426.731M1152.94 -16.6056C1152.94 -16.6056 1048.28 84.915 982.614 124.246C906.46 170.494 910.849 107.463 838.509 144.624C738.539 196.529 639.585 361.327 548.241 394.529C461.355 427.092 516.767 288.979 438.213 306.226C369.464 318.94 239.656 488.147 209.932 446.615C174.49 396.936 365.542 252.331 456.382 115.92C544.917 -16.9244 581.2 -68.3324 654.355 -189.046C689.591 -245.326 730.72 -321.824 742.173 -334.439C788.898 -410.486 798.566 -423.52 798.566 -423.52M1145.88 -23.1171C1145.88 -23.1171 1045.05 70.278 980.118 108.726C906.001 153.372 908.243 96.0696 837.361 133.142C738.776 185.365 641.731 345.654 552.583 377.313C468.937 408.203 521.847 275.819 446.247 291.974C377.511 303.751 245.226 477.513 215.194 435.631C180.392 386.909 361.539 246.502 450.722 112.645C539.267 -20.1322 577.643 -66.2601 652.961 -185.096C689.726 -240.974 730.608 -314.35 744.924 -330.119C791.009 -404.016 803.094 -420.308 803.094 -420.308M1138.82 -29.6286C1138.82 -29.6286 1041.81 55.6408 977.623 93.2048C905.541 136.25 905.637 84.6765 836.214 121.66C739.014 174.201 643.878 329.98 556.925 360.098C476.518 389.315 526.927 262.659 454.28 277.721C385.558 288.562 250.796 466.879 220.457 424.646C186.293 376.881 357.537 240.672 445.061 109.369C533.616 -23.3401 574.086 -64.188 651.567 -181.145C689.862 -236.623 730.495 -306.877 747.675 -325.8C793.12 -397.546 807.622 -417.097 807.622 -417.097M1131.76 -36.1402C1131.76 -36.1402 1038.58 41.0037 975.128 77.6841C905.082 119.128 903.031 73.2834 835.067 110.178C739.252 163.036 646.024 314.307 561.267 342.883C484.099 370.426 532.007 249.499 462.314 263.469C393.605 273.373 256.366 456.245 225.72 413.662C192.195 366.854 353.535 234.844 439.4 106.093C527.965 -26.548 570.529 -62.1158 650.173 -177.195C689.997 -232.271 730.382 -299.404 750.425 -321.48C795.231 -391.076 812.15 -413.885 812.15 -413.885M1117.64 -49.1633C1117.64 -49.1633 1032.11 11.7295 970.138 46.6426C904.163 84.8836 897.819 50.4972 832.772 87.2136C739.728 140.707 650.317 282.96 569.951 308.452C499.261 332.649 542.167 223.178 478.381 234.963C409.699 242.995 267.506 434.976 236.246 391.693C203.998 346.799 345.53 223.185 428.078 99.5415C516.664 -32.9639 563.415 -57.9715 647.384 -169.294C690.268 -223.567 730.157 -284.457 755.926 -312.84C799.454 -378.136 821.207 -407.462 821.207 -407.462M1088.02 -27.523C1088.02 -27.523 983.966 53.0617 907.031 106.639C826.48 163.951 822.099 130.148 741.955 187.38C626.24 271.13 499.497 457.785 404.945 502.104C323.009 542.64 389.098 406.863 317.015 431.536C236.582 453.242 32.9142 723.301 4.77611 675.344C-23.3534 627.022 150.762 454.694 266.75 289.857C393.753 109.55 453.731 75.9745 573.563 -75.4617C634.871 -150.384 691.416 -229.22 730.338 -273.577C791.636 -359.667 825.616 -404.477 825.616 -404.477M1103.52 -62.1863C1103.52 -62.1863 1025.64 -17.5447 965.148 15.6011C903.245 50.6394 892.606 27.711 830.477 64.2496C740.204 118.379 654.61 251.613 578.635 274.022C514.424 294.872 552.328 196.858 494.449 206.458C425.792 212.618 278.646 413.708 246.771 369.724C215.8 326.744 337.525 211.527 416.757 92.9901C505.362 -39.3797 556.301 -53.8272 644.596 -161.392C690.539 -214.864 729.932 -269.51 761.427 -304.201C803.676 -365.196 830.263 -401.039 830.263 -401.039M1089.4 -75.2094C1089.4 -75.2094 1019.17 -46.8189 960.158 -15.4404C902.326 16.3952 887.394 4.9248 828.183 41.2856C740.679 96.0497 658.902 220.266 587.319 239.591C529.586 257.095 562.488 170.538 510.516 177.953C441.886 182.24 289.786 392.44 257.297 347.755C227.603 306.689 329.52 199.869 405.435 86.4386C494.061 -45.7956 549.186 -49.6829 641.808 -153.491C690.809 -206.16 729.706 -254.563 766.929 -295.562C807.898 -352.256 839.319 -394.616 839.319 -394.616M1082.33 -81.7209C1082.33 -81.7209 1015.93 -61.456 957.663 -30.9611C901.867 -0.726904 884.788 -6.46829 827.035 29.8035C740.917 84.8853 661.049 204.592 591.661 222.376C537.167 238.207 567.568 157.378 518.55 163.7C449.933 167.051 295.356 381.806 262.56 336.77C233.505 296.662 325.518 194.04 399.774 83.1628C488.41 -49.0035 545.629 -47.6107 640.414 -149.541C690.945 -201.808 729.593 -247.09 769.679 -291.242C810.009 -345.786 843.847 -391.404 843.847 -391.404M1068.21 -94.7439C1068.21 -94.7439 1009.46 -90.7302 952.673 -62.0026C900.949 -34.9711 879.576 -29.2545 824.741 6.8395C741.393 62.5565 665.341 173.245 600.346 187.945C552.329 200.43 577.729 131.058 534.617 135.195C466.027 136.674 306.496 360.538 273.086 314.801C245.308 276.607 317.513 182.382 388.453 76.6114C477.109 -55.4193 538.515 -43.4664 637.625 -141.64C691.216 -193.105 729.368 -232.143 775.18 -282.603C814.231 -332.845 852.903 -384.981 852.903 -384.981M1061.15 -101.255C1061.15 -101.255 1006.22 -105.367 950.178 -77.5234C900.489 -52.0932 876.97 -40.6475 823.593 -4.64249C741.631 51.3921 667.488 157.572 604.688 170.73C559.91 181.542 582.809 117.898 542.651 120.943C474.074 121.485 312.066 349.904 278.348 303.817C251.209 266.58 313.511 176.553 382.792 73.3356C471.458 -58.6272 534.958 -41.3942 636.231 -137.689C691.351 -188.753 729.255 -224.669 777.931 -278.283C816.342 -326.375 857.431 -381.77 857.431 -381.77M1054.09 -107.767C1054.09 -107.767 1002.99 -120.004 947.683 -93.0441C900.03 -69.2153 874.364 -52.0407 822.446 -16.1245C741.868 40.2277 669.634 141.898 609.03 153.515C567.492 162.653 587.889 104.737 550.685 106.69C482.121 106.296 317.636 339.27 283.611 292.832C257.11 256.552 309.508 170.724 377.131 70.0598C465.807 -61.8352 531.401 -39.3221 634.837 -133.739C691.486 -184.401 729.142 -217.196 780.681 -273.963C818.453 -319.905 861.959 -378.558 861.959 -378.558M1047.03 -114.278C1047.03 -114.278 999.755 -134.641 945.188 -108.565C899.571 -86.3374 871.758 -63.4337 821.299 -27.6065C742.106 29.0633 671.78 126.225 613.372 136.3C575.073 143.765 592.969 91.5774 558.718 92.4375C490.167 91.107 323.206 328.636 288.874 281.848C263.012 246.525 305.506 164.895 371.47 66.7842C460.157 -65.043 527.844 -37.2498 633.443 -129.788C691.622 -180.05 729.03 -209.722 783.432 -269.643C820.564 -313.435 866.487 -375.347 866.487 -375.347M1039.97 -120.79C1039.97 -120.79 996.52 -149.279 942.693 -124.086C899.111 -103.459 869.152 -74.8268 820.151 -39.0885C742.344 17.8988 673.927 110.551 617.714 119.084C582.654 124.876 598.049 78.4172 566.752 78.1848C498.214 75.9181 328.776 318.001 294.137 270.863C268.913 236.497 301.503 159.066 365.809 63.5084C454.506 -68.251 524.287 -35.1777 632.049 -125.838C691.757 -175.698 728.917 -202.249 786.182 -265.324C822.676 -306.965 871.015 -372.135 871.015 -372.135" stroke="white" stroke-opacity="0.25" stroke-width="2"/>
</svg>
