<svg width="662" height="440" viewBox="0 0 662 440" fill="none" xmlns="http://www.w3.org/2000/svg">
<path d="M740.496 431.416C740.496 431.416 650.196 447.365 606.235 434.423C552.236 418.525 578.269 370.16 530.767 348.033C466.655 318.168 371.911 373.956 313.046 339.947C254.35 306.035 323.61 239.931 273.651 200.155C235.615 169.871 141.485 196.932 136.419 153.744C129.664 96.1593 281.368 128.354 363.326 90.7686C437.735 56.6461 468.155 25.9446 529.494 -19.2934C557.184 -39.7149 598.434 -72.6827 598.434 -72.6827L642.266 -98.5501M697.727 253.737C697.727 253.737 686.314 206.208 654.322 190.421C629.285 178.065 605.461 181.349 573.652 176.27C522.518 168.105 469.305 185.981 440.792 158.334C423.996 142.047 439.694 123.149 425.87 105.383C392.448 62.4299 250.62 120.91 244.014 69.073C239.367 32.6046 267.345 -1.67084 319.74 -25.0231C393.93 -58.0892 421.02 9.806 496.017 17.4025C537.796 21.6345 561.526 28.3516 606.57 20.9756C633.43 16.5773 674.304 2.17693 674.304 2.17693M736.766 423.425C736.766 423.425 650.223 436.351 606.832 423.273C554.212 407.545 577.871 361.639 531.116 340.324C467.622 311.492 374.855 365.475 317.436 331.769C260.735 298.696 327.445 234.84 279.206 196.112C241.39 165.225 144.989 193.782 139.849 150.182C133.194 93.6029 279.006 122.632 359.558 85.7247C433.956 51.6525 464.218 25.6461 526.206 -17.076C554.567 -36.3236 594.983 -67.4016 597.128 -67.7528C640.152 -92.5979 642.099 -93.2836 642.099 -93.2836M734.729 414.964C734.729 414.964 651.943 424.867 609.121 411.654C557.881 396.094 579.166 352.648 533.158 332.144C470.282 304.346 379.493 356.524 323.519 323.12C268.814 290.887 332.973 229.279 286.455 191.599C248.858 160.108 150.186 190.162 144.973 146.15C138.418 90.5765 278.339 116.44 357.482 80.2108C431.87 46.1889 461.973 24.8776 524.612 -15.3286C553.644 -33.4022 593.226 -62.5905 597.516 -63.2929C639.731 -87.1157 643.624 -88.4871 643.624 -88.4871M732.692 406.503C732.692 406.503 653.663 413.384 611.411 400.035C561.55 384.644 580.461 343.657 535.2 323.965C472.942 297.201 384.131 347.572 329.603 314.472C276.892 283.078 338.5 223.718 293.703 187.086C256.326 154.992 155.383 186.542 150.096 142.118C143.642 87.5501 277.671 110.249 355.407 74.6969C429.784 40.7253 459.728 24.1091 523.018 -13.5811C552.721 -30.4807 591.468 -57.7792 597.903 -58.833C639.311 -81.6334 645.15 -83.6906 645.15 -83.6906M730.656 398.043C730.656 398.043 655.383 401.9 613.701 388.416C565.219 373.193 581.756 334.666 537.242 315.786C475.602 290.055 388.769 338.621 335.686 305.824C284.97 275.269 344.028 218.157 300.952 182.573C263.794 149.876 160.58 182.922 155.22 138.086C148.866 84.5236 277.003 104.057 353.331 69.183C427.698 35.2617 457.484 23.3406 521.424 -11.8337C551.797 -27.5593 589.711 -52.9681 598.291 -54.3731C638.89 -76.1511 646.675 -78.8941 646.675 -78.8941M728.619 389.582C728.619 389.582 657.102 390.417 615.991 376.797C568.888 361.743 583.05 325.675 539.285 307.607C478.263 282.909 393.407 329.67 341.769 297.176C293.049 267.46 349.556 212.596 308.2 178.06C271.262 144.76 165.776 179.302 160.343 134.054C154.09 81.4973 276.335 97.8655 351.255 63.6692C425.612 29.7982 455.239 22.5721 519.83 -10.0863C550.874 -24.6379 587.953 -48.157 598.678 -49.9132C638.469 -70.6689 648.201 -74.0975 648.201 -74.0975M726.583 381.121C726.583 381.121 658.822 378.933 618.281 365.178C572.557 350.292 584.345 316.684 541.327 299.428C480.923 275.763 398.044 320.719 347.852 288.527C301.127 259.651 355.084 207.035 315.449 173.547C278.731 139.643 170.973 175.681 165.467 130.022C159.314 78.4708 275.668 91.6738 349.18 58.1552C423.526 24.3346 452.995 21.8036 518.236 -8.33887C549.951 -21.7165 586.196 -43.3458 599.065 -45.4532C638.048 -65.1866 649.727 -69.301 649.727 -69.301M724.546 372.66C724.546 372.66 660.542 367.449 620.571 353.559C576.226 338.842 585.64 307.693 543.369 291.249C483.583 268.617 402.682 311.768 353.935 279.879C309.205 251.842 360.612 201.474 322.697 169.034C286.199 134.527 176.17 172.061 170.591 125.99C164.538 75.4444 275 85.4822 347.104 52.6414C421.44 18.871 450.75 21.0351 516.642 -6.59142C549.028 -18.7951 584.438 -38.5346 599.453 -40.9933C637.627 -59.7043 651.252 -64.5044 651.252 -64.5044M720.473 355.738C720.473 355.738 663.982 344.482 625.15 330.32C583.564 315.941 588.23 289.711 547.453 274.89C488.903 254.325 411.958 293.865 366.101 262.583C325.362 236.224 371.667 190.352 337.194 160.008C301.135 124.295 186.564 164.821 180.838 117.926C174.986 69.3916 273.665 73.0989 342.953 41.6136C417.268 7.94383 446.261 19.498 513.453 -3.09661C547.181 -12.9524 580.923 -28.9123 600.228 -32.0735C636.786 -48.7398 654.303 -54.9114 654.303 -54.9114M700.786 352.203C700.786 352.203 630.58 342.756 580.04 331.851C526.847 321.229 532.359 296.552 479.388 286.119C402.651 271.786 296.992 318.049 239.779 290.596C189.716 268.197 253.563 218.977 212.021 192.098C166.994 158.304 4.00881 213.138 0.902692 165.055C-2.11584 116.738 123.891 108.076 219.224 69.6421C323.568 27.6779 361.103 41.5268 455.301 14.1328C502.912 1.78467 549.04 -15.9578 578.537 -21.702C628.685 -41.3456 655.821 -50.3331 655.821 -50.3331M716.399 338.816C716.399 338.816 667.422 321.515 629.73 307.082C590.902 293.04 590.82 271.729 551.537 258.532C494.223 240.034 421.234 275.963 378.268 245.286C341.519 220.607 382.723 179.23 351.691 150.982C316.072 114.062 196.958 157.581 191.085 109.863C185.434 63.3388 272.329 60.7156 338.802 30.5858C413.096 -2.98337 441.772 17.961 510.265 0.398284C545.335 -7.10954 577.408 -19.29 601.003 -23.1536C635.944 -37.7753 657.355 -45.3183 657.355 -45.3183M712.326 321.894C712.326 321.894 670.861 298.548 634.31 283.844C598.24 270.139 593.409 253.747 555.621 242.173C499.544 225.742 430.509 258.061 390.434 227.99C357.675 204.989 393.779 168.108 366.188 141.956C331.008 103.83 207.351 150.341 201.332 101.799C195.882 57.2859 270.994 48.3323 334.651 19.558C408.924 -13.9105 437.283 16.424 507.077 3.89314C543.488 -1.26674 573.893 -9.66766 601.778 -14.2338C635.103 -26.8108 660.406 -35.7253 660.406 -35.7253M710.29 313.433C710.29 313.433 672.581 287.064 636.6 272.225C601.909 258.688 594.704 244.756 557.664 233.994C502.204 218.596 435.147 249.11 396.517 219.342C365.754 197.18 399.306 162.546 373.437 137.443C338.477 98.7135 212.548 146.721 206.456 97.7666C201.106 54.2595 270.326 42.1406 332.576 14.0441C406.839 -19.3741 435.039 15.6555 505.482 5.64053C542.565 1.65463 572.135 -4.85655 602.165 -9.77391C634.682 -21.3285 661.931 -30.9288 661.931 -30.9288M706.216 296.512C706.216 296.512 676.021 264.097 641.18 248.986C609.247 235.787 597.294 226.774 561.748 217.636C507.524 204.304 444.423 231.207 408.683 202.045C381.911 181.562 410.362 151.424 387.934 128.417C353.413 88.4811 222.942 139.481 216.703 89.7027C211.554 48.2067 268.99 29.7574 328.425 3.01637C402.667 -30.3013 430.55 14.1185 502.294 9.1354C540.719 7.49745 568.62 4.76582 602.94 -0.854048C633.84 -10.364 664.983 -21.3357 664.983 -21.3357M704.18 288.051C704.18 288.051 677.741 252.613 643.469 237.367C612.916 224.337 598.589 217.783 563.79 209.457C510.184 197.159 449.06 222.256 414.766 193.397C389.989 173.753 415.89 145.863 395.183 123.904C360.881 83.3648 228.139 135.861 221.826 85.6708C216.778 45.1802 268.323 23.5657 326.349 -2.49751C400.581 -35.7649 428.305 13.35 500.7 10.8828C539.796 10.4188 566.863 9.57697 603.327 3.60586C633.419 -4.88176 666.508 -16.5392 666.508 -16.5392M702.143 279.59C702.143 279.59 679.461 241.129 645.759 225.748C616.585 212.886 599.884 208.792 565.832 201.278C512.845 190.013 453.698 213.305 420.85 184.749C398.067 165.944 421.418 140.302 402.431 119.391C368.35 78.2486 233.336 132.24 226.95 81.6388C222.002 42.1538 267.655 17.374 324.273 -8.01146C398.495 -41.2285 426.061 12.5815 499.106 12.6302C538.872 13.3402 565.105 14.3881 603.715 8.06576C632.999 0.600495 668.034 -11.7427 668.034 -11.7427M700.106 271.129C700.106 271.129 681.181 229.646 648.049 214.129C620.254 201.436 601.178 199.801 567.874 193.098C515.505 182.867 458.336 204.354 426.933 176.101C406.146 158.135 426.945 134.741 409.68 114.879C375.818 73.1324 238.532 128.62 232.073 77.6069C227.225 39.1274 266.987 11.1825 322.198 -13.5253C396.409 -46.692 423.816 11.813 497.512 14.3777C537.949 16.2617 563.348 19.1993 604.102 12.5257C632.578 6.08279 669.559 -6.94612 669.559 -6.94612M698.07 262.668C698.07 262.668 682.901 218.162 650.339 202.51C623.923 189.985 602.473 190.81 569.916 184.919C518.165 175.721 462.974 195.403 433.016 167.452C414.224 150.326 432.473 129.18 416.928 110.366C383.286 68.0161 243.729 125 237.197 73.5749C232.449 36.101 266.319 4.99075 320.122 -19.0392C394.323 -52.1556 421.571 11.0445 495.917 16.1251C537.026 19.183 561.59 24.0104 604.49 16.9856C632.157 11.565 671.085 -2.14961 671.085 -2.14961" stroke="#0D2666"/>
</svg>
