<svg width="683" height="537" viewBox="0 0 683 537" fill="none" xmlns="http://www.w3.org/2000/svg">
	<path d="M-22.9468 0.999878C-22.9468 0.999878 77.5232 9.47368 120.251 32.8537C172.735 61.572 130.697 99.8276 174.434 132.662C233.465 176.979 350.546 149.554 402.777 196.37C454.859 243.052 361.707 286.647 402.777 336.527C434.046 374.504 541.894 373.633 534.364 415.1C524.324 470.39 373.153 401.302 275.06 415.1C186.004 427.627 144.592 448.324 66.0682 474.56C30.6208 486.404 -22.9468 506.414 -22.9468 506.414L-77.1298 519.156M-30.6872 177.258C-30.6872 177.258 -32.7873 224.399 -3.59567 247.336C19.25 265.287 45.4813 268.381 77.6789 281.314C129.435 302.102 191.174 299.213 213.136 332.28C226.074 351.759 203.791 365.281 213.136 385.37C235.731 433.936 403.519 416.159 395.037 466.066C389.069 501.176 349.178 525.828 286.671 534.021C198.162 545.622 189.729 475.496 112.511 449.077C69.4937 434.36 46.349 421.989 -3.59567 417.223C-33.3769 414.382 -81 417.223 -81 417.223M-21.3802 9.39311C-21.3802 9.39311 74.2054 19.7082 116.289 43.0672C167.362 71.2727 128.574 107.854 171.762 139.741C230.447 182.937 344.892 156.681 395.682 202.842C445.9 248.229 356.122 290.391 395.682 338.853C426.537 377.334 537.24 375.658 529.665 417.527C519.819 471.856 373.946 407.232 277.548 420.763C188.518 433.245 148.676 449.618 70.2149 473.347C34.407 483.926 -17.7118 502.394 -20.0902 502.167C-73.1112 514.166 -75.379 514.302 -75.379 514.302M-21.7488 17.7864C-21.7488 17.7864 68.9526 29.9428 110.391 53.2806C160.053 80.9734 124.516 115.88 167.155 146.82C225.493 188.895 337.303 163.807 386.651 209.314C435.005 253.405 348.603 294.136 386.651 341.179C417.094 380.164 530.651 377.683 523.03 419.954C513.378 473.322 372.805 413.162 278.101 426.426C189.097 438.864 150.826 450.912 72.4264 472.133C36.2581 481.447 -14.412 498.374 -19.1687 497.92C-71.0277 509.177 -75.5633 509.448 -75.5633 509.448M-22.1174 26.1796C-22.1174 26.1796 63.6997 40.1773 104.494 63.4941C152.744 90.6742 120.458 123.907 162.547 153.898C220.539 194.854 329.714 170.934 377.621 215.786C424.111 258.582 341.083 297.88 377.621 343.504C407.65 382.994 524.061 379.708 516.396 422.381C506.937 474.788 371.663 419.091 278.654 432.088C189.676 444.483 152.975 452.206 74.638 470.92C38.1092 478.969 -11.1123 494.353 -18.2472 493.673C-68.9443 504.188 -75.7476 504.594 -75.7476 504.594M-22.486 34.5728C-22.486 34.5728 58.4468 50.4118 98.5965 73.7075C145.435 100.375 116.401 131.933 157.94 160.977C215.585 200.812 322.125 178.061 368.59 222.258C413.216 263.758 333.563 301.625 368.59 345.83C398.207 385.824 517.472 381.733 509.761 424.808C500.497 476.254 370.521 425.021 279.207 437.751C190.255 450.102 155.124 453.5 76.8496 469.706C39.9603 476.491 -7.81244 490.333 -17.3257 489.425C-66.8608 499.199 -75.9319 499.74 -75.9319 499.74M-22.8546 42.966C-22.8546 42.966 53.1939 60.6464 92.699 83.921C138.126 110.076 112.343 139.959 153.332 168.056C210.631 206.77 314.535 185.187 359.56 228.73C402.322 268.935 326.043 305.369 359.56 348.156C388.763 388.654 510.883 383.758 503.126 427.235C494.056 477.72 369.38 430.951 279.76 443.414C190.834 455.721 157.274 454.794 79.0611 468.493C41.8114 474.012 -4.51263 486.313 -16.4042 485.178C-64.7773 494.209 -76.1161 494.886 -76.1161 494.886M-23.2232 51.3593C-23.2232 51.3593 47.941 70.8809 86.8016 94.1344C130.817 119.776 108.285 147.986 148.725 175.134C205.678 212.728 306.946 192.314 350.529 235.201C391.427 274.111 318.523 309.114 350.529 350.482C379.319 391.484 504.294 385.783 496.492 429.662C487.615 479.186 368.238 436.881 280.312 449.077C191.413 461.339 159.423 456.088 81.2727 467.279C43.6625 471.534 -1.21283 482.293 -15.4827 480.931C-62.6938 489.22 -76.3004 490.032 -76.3004 490.032M-23.5918 59.7525C-23.5918 59.7525 42.6882 81.1155 80.9041 104.348C123.509 129.477 104.227 156.012 144.118 182.213C200.724 218.687 299.357 199.44 341.499 241.673C380.532 279.288 311.004 312.858 341.499 352.808C369.876 394.314 497.704 387.808 489.857 432.088C481.175 480.652 367.096 442.811 280.865 454.74C191.992 466.958 161.573 457.382 83.4842 466.066C45.5136 469.056 2.08695 478.273 -14.5613 476.684C-60.6104 484.231 -76.4847 485.178 -76.4847 485.178M-24.329 76.539C-24.329 76.539 32.1824 101.585 69.1091 124.775C108.891 148.878 96.1111 172.065 134.903 196.37C190.816 230.603 284.179 213.694 323.438 254.617C358.743 289.641 295.964 320.347 323.438 357.46C350.989 399.975 484.526 391.858 476.588 436.942C468.293 483.584 364.813 454.67 281.971 466.066C193.149 478.196 165.871 459.969 87.9073 463.639C49.2157 464.099 8.68654 470.232 -12.7183 468.19C-56.4435 474.252 -76.8534 475.47 -76.8534 475.47M-4.51884 84.907C-4.51884 84.907 67.0683 111.81 117.378 134.993C170.583 158.598 157.37 180.123 210.398 203.494C287.448 236.627 413.252 220.876 465.691 261.169C512.062 294.918 429.69 324.209 465.691 359.924C503.321 402.969 692.444 394.042 681.374 439.556C670.141 485.264 534.002 460.799 421.481 471.934C298.355 484.027 262.708 461.463 154.688 462.626C100.538 461.82 46.3478 466.414 13.3696 464.143C-45.6494 469.467 -77.0947 470.821 -77.0947 470.821M-25.0662 93.3254C-25.0662 93.3254 21.6766 122.054 57.3142 145.202C94.2733 168.28 87.9953 188.117 125.688 210.527C180.908 242.52 269.001 227.947 305.377 267.561C336.954 299.994 280.924 327.836 305.377 362.111C332.102 405.635 471.347 395.908 463.318 441.796C455.412 486.516 362.53 466.53 283.077 477.392C194.307 489.433 170.17 462.557 92.3304 461.212C52.9179 459.143 15.2861 462.192 -10.8754 459.695C-52.2765 464.274 -77.2219 465.763 -77.2219 465.763M-25.8033 110.112C-25.8033 110.112 11.1709 142.523 45.5192 165.629C79.6557 187.681 79.8796 204.17 116.473 224.685C171.001 254.436 253.822 242.2 287.316 280.505C315.165 310.347 265.885 335.325 287.316 366.763C313.214 411.295 458.168 399.958 450.049 446.65C442.53 489.448 360.246 478.39 284.183 488.718C195.465 500.671 174.469 465.145 96.7535 458.785C56.6201 454.186 21.8857 454.151 -9.0324 451.201C-48.1096 454.295 -77.5905 456.055 -77.5905 456.055M-26.1719 118.505C-26.1719 118.505 5.91799 152.757 39.6217 175.842C72.3468 197.382 75.8217 212.197 111.866 231.763C166.047 260.395 246.233 249.327 278.285 286.977C304.271 315.524 258.365 339.069 278.285 369.089C303.771 414.125 451.579 401.983 443.414 449.077C436.09 490.914 359.105 484.319 284.735 494.38C196.044 506.29 176.618 466.439 98.9651 457.572C58.4712 451.708 25.1855 450.131 -8.11093 446.954C-46.0261 449.306 -77.7748 451.201 -77.7748 451.201M-26.9091 135.292C-26.9091 135.292 -4.58776 173.226 27.8268 196.269C57.7292 216.783 67.7059 228.249 102.651 245.921C156.139 272.311 231.055 263.58 260.224 299.92C282.482 325.877 243.325 346.558 260.224 373.74C284.884 419.785 438.4 406.033 430.145 453.931C423.208 493.846 356.822 496.179 285.841 505.706C197.202 517.527 180.917 469.027 103.388 455.145C62.1734 446.751 31.7851 442.091 -6.26796 438.459C-41.8592 439.328 -78.1434 441.493 -78.1434 441.493M-27.2777 143.685C-27.2777 143.685 -9.84063 183.461 21.9293 206.482C50.4204 226.484 63.648 236.276 98.0436 252.999C151.186 278.269 223.466 270.706 251.194 306.392C271.587 331.053 235.805 350.303 251.194 376.066C275.44 422.616 431.811 408.059 423.51 456.358C416.767 495.312 355.68 502.109 286.394 511.369C197.781 523.146 183.067 470.32 105.6 453.931C64.0244 444.273 35.0849 438.07 -5.34648 434.212C-39.7757 434.338 -78.3277 436.639 -78.3277 436.639M-27.6463 152.078C-27.6463 152.078 -15.0935 193.695 16.0319 216.696C43.1115 236.185 59.5901 244.302 93.4362 260.078C146.232 284.228 215.877 277.833 242.163 312.864C260.693 336.23 228.285 354.047 242.163 378.392C265.996 425.446 425.222 410.084 416.876 458.785C410.327 496.778 354.538 508.039 286.947 517.032C198.36 528.765 185.216 471.614 107.811 452.718C65.8755 441.795 38.3847 434.05 -4.425 429.965C-37.6922 429.349 -78.512 431.785 -78.512 431.785M-28.0149 160.471C-28.0149 160.471 -20.3464 203.93 10.1344 226.909C35.8027 245.886 55.5322 252.328 88.8288 267.156C141.278 290.186 208.288 284.959 233.133 319.336C249.798 341.406 220.766 357.792 233.133 380.718C256.553 428.276 418.632 412.109 410.241 461.212C403.886 498.244 353.397 513.968 287.5 522.695C198.939 534.384 187.365 472.908 110.023 451.504C67.7266 439.316 41.6845 430.03 -3.50351 425.718C-35.6087 424.36 -78.6963 426.931 -78.6963 426.931M-28.3835 168.865C-28.3835 168.865 -25.5993 214.165 4.23691 237.123C28.4939 255.586 51.4743 260.355 84.2214 274.235C136.324 296.144 200.698 292.086 224.102 325.808C238.904 346.583 213.246 361.536 224.102 383.044C247.109 431.106 412.043 414.134 403.606 463.639C397.445 499.71 352.255 519.898 288.053 528.358C199.518 540.003 189.515 474.202 112.234 450.291C69.5777 436.838 44.9843 426.01 -2.58204 421.471C-33.5253 419.371 -78.8806 422.077 -78.8806 422.077" stroke="url(#paint0_linear_187_616)" stroke-opacity="0.5" stroke-width="2" />
	<defs>
		<linearGradient id="paint0_linear_187_616" x1="-363" y1="473.305" x2="453" y2="268.305" gradientUnits="userSpaceOnUse">
			<stop stop-color="#264796" />
			<stop offset="1" stop-color="#0A85C9" />
		</linearGradient>
	</defs>
</svg>
