<svg width="1440" height="730" viewBox="0 0 1440 730" fill="none" xmlns="http://www.w3.org/2000/svg">
<path d="M-63.5727 173.968C-63.5727 173.968 14.0777 176.025 48.8799 197.328C91.6283 223.495 62.8981 265.813 99.3231 296.815C148.485 338.658 235.618 302.527 279.801 347.405C323.857 392.155 256.491 443.393 292.408 492.181C319.753 529.325 402.21 521.238 400.177 564.573C397.467 622.355 275.563 561.064 201.735 581.854C134.709 600.728 104.879 624.868 47.1456 657.201C21.0835 671.797 -18.1111 696.036 -18.1111 696.036L-58.4305 712.809M-53.6421 356.549C-53.6421 356.549 -51.0089 405.384 -26.6058 427.132C-7.50774 444.152 12.845 445.599 38.6486 456.813C80.1269 474.837 127.115 467.738 146.897 500.431C158.55 519.691 142.713 535.143 151.672 555.27C173.332 603.931 300.138 574.387 298.136 626.504C296.728 663.169 268.417 691.291 221.318 703.92C154.627 721.801 141.865 649.926 80.3952 627.783C46.151 615.447 27.326 604.212 -11.3246 602.617C-34.3714 601.666 -70.561 607.775 -70.561 607.775M-61.6189 182.533C-61.6189 182.533 12.4592 186.818 46.7662 208.142C88.3885 233.874 61.9955 274.245 97.9147 304.305C146.711 345.014 231.932 310.265 274.953 354.563C317.467 398.099 252.554 447.633 287.187 495.056C314.262 532.748 398.83 523.64 396.799 567.393C394.151 624.169 276.704 567.136 204.149 587.537C137.138 606.364 108.121 625.932 50.2098 655.671C23.7581 668.985 -14.4665 691.535 -16.307 691.459C-55.8039 707.387 -57.5272 707.678 -57.5272 707.678M-61.146 191.227C-61.146 191.227 9.35988 197.74 43.1717 219.085C83.6677 244.381 59.612 282.807 95.0255 311.924C143.456 351.498 226.765 318.133 268.624 361.85C309.595 404.172 247.136 452.002 280.485 498.06C307.289 536.301 393.97 526.171 391.94 570.343C389.354 626.113 276.364 573.338 205.081 593.35C138.087 612.13 109.882 627.125 51.7931 654.27C24.9518 666.301 -12.3028 687.162 -15.9838 687.01C-54.6582 702.095 -58.1048 702.676 -58.1048 702.676M-60.6731 199.922C-60.6731 199.922 6.26051 208.662 39.5771 230.028C78.9469 254.889 57.2286 291.368 92.1362 319.543C140.2 357.983 221.599 326 262.296 369.137C301.723 410.245 241.718 456.371 273.784 501.064C300.317 539.854 389.109 528.702 387.081 573.292C384.557 628.056 276.023 579.539 206.014 599.163C139.035 617.895 111.643 628.318 53.3764 652.869C26.1455 663.618 -10.1392 682.79 -15.6607 682.562C-53.5126 696.802 -58.6825 697.675 -58.6825 697.675M-60.2002 208.616C-60.2002 208.616 3.16114 219.584 35.9826 240.971C74.2261 265.396 54.8451 299.929 89.2469 327.162C136.945 364.468 216.432 333.867 255.967 376.424C293.851 416.318 236.3 460.74 267.082 504.069C293.344 543.407 384.249 531.233 382.222 576.241C379.76 630 275.683 585.74 206.946 604.975C139.984 623.661 113.405 629.512 54.9597 651.469C27.3392 660.935 -7.97548 678.417 -15.3375 678.113C-52.3669 691.51 -59.2601 692.673 -59.2601 692.673M-59.7273 217.311C-59.7273 217.311 0.0618162 230.506 32.388 251.914C69.5054 275.904 52.4616 308.49 86.3577 334.781C133.69 370.953 211.265 341.734 249.638 383.711C285.979 422.391 230.882 465.109 260.38 507.073C286.372 546.959 379.388 533.764 377.363 579.19C374.963 631.943 275.343 591.942 207.879 610.788C140.932 629.426 115.166 630.705 56.5431 650.068C28.5329 658.251 -5.8118 674.044 -15.0143 673.665C-51.2212 686.217 -59.8378 687.672 -59.8378 687.672M-59.2545 226.005C-59.2545 226.005 -3.03757 241.427 28.7934 262.857C64.7846 286.411 50.0781 317.052 83.4684 342.4C130.435 377.437 206.098 349.601 243.309 390.998C278.108 428.465 225.464 469.478 253.679 510.077C279.399 550.512 374.528 536.294 372.504 582.139C370.165 633.887 275.002 598.143 208.811 616.601C141.881 635.191 116.927 631.898 58.1264 648.667C29.7266 655.568 -3.64813 669.672 -14.6912 669.216C-50.0755 680.925 -60.4154 682.67 -60.4154 682.67M-58.7816 234.699C-58.7816 234.699 -6.13693 252.349 25.1989 273.8C60.0639 296.918 47.6947 325.613 80.5792 350.019C127.18 383.922 200.931 357.469 236.98 398.285C270.236 434.538 220.046 473.847 246.977 513.081C272.427 554.065 369.667 538.825 367.645 585.088C365.368 635.83 274.662 604.344 209.744 622.413C142.829 640.957 118.688 633.092 59.7097 647.266C30.9202 652.885 -1.48447 665.299 -14.368 664.768C-48.9299 675.632 -60.9931 677.669 -60.9931 677.669M-57.8358 252.088C-57.8358 252.088 -12.3357 274.193 18.0098 295.687C50.6223 317.933 42.9277 342.735 74.8006 365.256C120.67 396.892 190.598 373.203 224.323 412.859C254.492 446.684 209.21 482.585 233.573 519.09C258.482 561.17 359.946 543.887 357.926 590.986C355.774 639.718 273.981 616.747 211.609 634.039C144.726 652.487 122.211 635.478 62.8763 644.464C33.3076 647.518 2.84286 656.554 -13.7217 655.871C-46.6385 665.047 -62.1484 667.665 -62.1484 667.665M-41.9227 259.412C-41.9227 259.412 15.2818 282.43 55.8683 303.025C98.7087 323.862 90.5332 346.976 133.217 367.584C195.162 396.674 290.022 372.02 333.776 410.147C372.299 441.917 311.896 477.663 342.659 512.156C375.329 554.112 519.259 532.287 514.881 580.038C510.397 628.001 404.01 611.803 318.901 630.803C225.763 651.5 196.453 630.567 113.891 638.967C72.3785 641.744 31.3211 650.1 5.87903 649.952C-38.8084 659.385 -62.7512 662.879 -62.7512 662.879M-56.89 269.477C-56.89 269.477 -18.5344 296.037 10.8207 317.573C41.1808 338.948 38.1607 359.858 69.0221 380.494C114.159 409.861 180.264 388.937 211.665 427.433C238.749 458.83 198.374 491.323 220.17 525.099C244.537 568.275 350.225 548.949 348.208 596.884C346.18 643.605 273.301 629.149 213.474 645.664C146.623 664.018 125.734 637.865 66.043 641.663C35.695 642.151 7.1702 647.809 -13.0754 646.973C-44.3472 654.462 -63.3037 657.662 -63.3037 657.662M-55.9443 286.866C-55.9443 286.866 -24.7331 317.88 3.63153 339.459C31.7393 359.963 33.3938 376.98 63.2436 395.732C107.649 422.83 169.93 404.672 199.008 442.007C223.005 470.976 187.538 500.061 206.767 531.107C230.592 575.381 340.504 554.011 338.49 602.782C336.586 647.492 272.62 641.552 215.339 657.289C148.52 675.549 129.256 640.251 69.2096 638.861C38.0824 636.785 11.4976 639.064 -12.429 638.076C-42.0559 643.877 -64.4589 647.659 -64.4589 647.659M-55.4714 295.56C-55.4714 295.56 -27.8325 328.802 0.0369717 350.402C27.0185 370.471 31.0103 385.542 60.3544 403.351C104.394 429.315 164.764 412.539 192.679 449.294C215.133 477.05 182.12 504.431 200.065 534.111C223.62 578.934 335.643 556.542 333.631 605.731C331.788 649.435 272.28 647.753 216.271 663.102C149.468 681.314 131.017 641.445 70.7929 637.46C39.2761 634.102 13.6612 634.691 -12.1059 633.628C-40.9102 638.585 -65.0366 642.657 -65.0366 642.657M-54.5256 312.949C-54.5256 312.949 -34.0312 350.646 -7.15214 372.288C17.577 391.485 26.2433 402.664 54.5758 418.589C97.8835 442.285 154.43 428.273 180.021 463.867C199.39 489.196 171.284 513.168 186.662 540.12C209.675 586.039 325.922 561.603 323.913 611.63C322.194 653.322 271.599 660.156 218.136 674.727C151.365 692.845 134.54 643.831 73.9595 634.658C41.6634 628.735 17.9886 625.946 -11.4595 624.731C-38.6188 628 -66.1919 632.654 -66.1919 632.654M-54.0527 321.643C-54.0527 321.643 -37.1306 361.568 -10.7467 383.231C12.8562 401.993 23.8599 411.225 51.6866 426.208C94.6284 448.769 149.263 436.14 173.693 471.154C191.518 495.269 165.866 517.538 179.96 543.124C202.702 589.592 321.061 564.134 319.054 614.579C317.397 655.266 271.259 666.357 219.069 680.54C152.314 698.61 136.301 645.024 75.5429 633.258C42.8571 626.052 20.1522 621.573 -11.1364 620.282C-37.4732 622.707 -66.7695 627.653 -66.7695 627.653M-53.5798 330.337C-53.5798 330.337 -40.2299 372.49 -14.3413 394.174C8.13545 412.5 21.4764 419.787 48.7973 433.827C91.3732 455.254 144.096 444.008 167.364 478.441C183.646 501.342 160.448 521.907 173.258 546.129C195.73 593.144 316.201 566.665 314.194 617.528C312.6 657.209 270.919 672.558 220.001 686.353C153.262 704.376 138.063 646.218 77.1262 631.857C44.0508 623.368 22.3159 617.201 -10.8132 615.834C-36.3275 617.415 -67.3472 622.651 -67.3472 622.651M-53.1069 339.032C-53.1069 339.032 -43.3293 383.411 -17.9358 405.117C3.4147 423.008 19.0929 428.348 45.9081 441.446C88.1181 461.739 138.929 451.875 161.035 485.728C175.774 507.415 155.03 526.276 166.556 549.133C188.757 596.697 311.34 569.196 309.335 620.477C307.803 659.153 270.578 678.76 220.934 692.165C154.211 710.141 139.824 647.411 78.7095 630.456C45.2445 620.685 24.4796 612.828 -10.49 611.385C-35.1818 612.122 -67.9248 617.65 -67.9248 617.65M-52.6341 347.726C-52.6341 347.726 -46.4286 394.333 -21.5304 416.06C-1.30607 433.515 16.7094 436.909 43.0188 449.065C84.8629 468.224 133.763 459.742 154.706 493.015C167.903 513.488 149.612 530.645 159.855 552.137C181.785 600.25 306.48 571.727 304.476 623.426C303.006 661.097 270.238 684.961 221.866 697.978C155.159 715.907 141.585 648.604 80.2928 629.055C46.4382 618.002 26.6432 608.455 -10.1669 606.937C-34.0362 606.83 -68.5025 612.648 -68.5025 612.648" stroke="#0E2666"/>
<path d="M1518.5 431.416C1518.5 431.416 1428.2 447.365 1384.24 434.423C1330.24 418.525 1356.27 370.16 1308.77 348.033C1244.66 318.168 1149.91 373.956 1091.05 339.947C1032.35 306.035 1101.61 239.931 1051.65 200.155C1013.61 169.871 919.485 196.932 914.419 153.744C907.664 96.1593 1059.37 128.354 1141.33 90.7686C1215.73 56.6461 1246.16 25.9446 1307.49 -19.2934C1335.18 -39.7149 1376.43 -72.6827 1376.43 -72.6827L1420.27 -98.5501M1475.73 253.737C1475.73 253.737 1464.31 206.208 1432.32 190.421C1407.29 178.065 1383.46 181.349 1351.65 176.27C1300.52 168.105 1247.31 185.981 1218.79 158.334C1202 142.047 1217.69 123.149 1203.87 105.383C1170.45 62.4299 1028.62 120.91 1022.01 69.073C1017.37 32.6046 1045.34 -1.67084 1097.74 -25.0231C1171.93 -58.0892 1199.02 9.806 1274.02 17.4025C1315.8 21.6345 1339.53 28.3516 1384.57 20.9756C1411.43 16.5773 1452.3 2.17693 1452.3 2.17693M1514.77 423.425C1514.77 423.425 1428.22 436.351 1384.83 423.273C1332.21 407.545 1355.87 361.639 1309.12 340.324C1245.62 311.492 1152.86 365.475 1095.44 331.769C1038.74 298.696 1105.44 234.84 1057.21 196.112C1019.39 165.225 922.989 193.782 917.849 150.182C911.194 93.6029 1057.01 122.632 1137.56 85.7247C1211.96 51.6525 1242.22 25.6461 1304.21 -17.076C1332.57 -36.3236 1372.98 -67.4016 1375.13 -67.7528C1418.15 -92.5979 1420.1 -93.2836 1420.1 -93.2836M1512.73 414.964C1512.73 414.964 1429.94 424.867 1387.12 411.654C1335.88 396.094 1357.17 352.648 1311.16 332.144C1248.28 304.346 1157.49 356.524 1101.52 323.12C1046.81 290.887 1110.97 229.279 1064.45 191.599C1026.86 160.108 928.186 190.162 922.973 146.15C916.418 90.5765 1056.34 116.44 1135.48 80.2108C1209.87 46.1889 1239.97 24.8776 1302.61 -15.3286C1331.64 -33.4022 1371.23 -62.5905 1375.52 -63.2929C1417.73 -87.1157 1421.62 -88.4871 1421.62 -88.4871M1510.69 406.503C1510.69 406.503 1431.66 413.384 1389.41 400.035C1339.55 384.644 1358.46 343.657 1313.2 323.965C1250.94 297.201 1162.13 347.572 1107.6 314.472C1054.89 283.078 1116.5 223.718 1071.7 187.086C1034.33 154.992 933.383 186.542 928.096 142.118C921.642 87.5501 1055.67 110.249 1133.41 74.6969C1207.78 40.7253 1237.73 24.1091 1301.02 -13.5811C1330.72 -30.4807 1369.47 -57.7792 1375.9 -58.833C1417.31 -81.6334 1423.15 -83.6906 1423.15 -83.6906M1508.66 398.043C1508.66 398.043 1433.38 401.9 1391.7 388.416C1343.22 373.193 1359.76 334.666 1315.24 315.786C1253.6 290.055 1166.77 338.621 1113.69 305.824C1062.97 275.269 1122.03 218.157 1078.95 182.573C1041.79 149.876 938.58 182.922 933.22 138.086C926.866 84.5236 1055 104.057 1131.33 69.183C1205.7 35.2617 1235.48 23.3406 1299.42 -11.8337C1329.8 -27.5593 1367.71 -52.9681 1376.29 -54.3731C1416.89 -76.1511 1424.68 -78.8941 1424.68 -78.8941M1506.62 389.582C1506.62 389.582 1435.1 390.417 1393.99 376.797C1346.89 361.743 1361.05 325.675 1317.28 307.607C1256.26 282.909 1171.41 329.67 1119.77 297.176C1071.05 267.46 1127.56 212.596 1086.2 178.06C1049.26 144.76 943.776 179.302 938.343 134.054C932.09 81.4973 1054.34 97.8655 1129.26 63.6692C1203.61 29.7982 1233.24 22.5721 1297.83 -10.0863C1328.87 -24.6379 1365.95 -48.157 1376.68 -49.9132C1416.47 -70.6689 1426.2 -74.0975 1426.2 -74.0975M1504.58 381.121C1504.58 381.121 1436.82 378.933 1396.28 365.178C1350.56 350.292 1362.35 316.684 1319.33 299.428C1258.92 275.763 1176.04 320.719 1125.85 288.527C1079.13 259.651 1133.08 207.035 1093.45 173.547C1056.73 139.643 948.973 175.681 943.467 130.022C937.314 78.4708 1053.67 91.6738 1127.18 58.1552C1201.53 24.3346 1230.99 21.8036 1296.24 -8.33887C1327.95 -21.7165 1364.2 -43.3458 1377.07 -45.4532C1416.05 -65.1866 1427.73 -69.301 1427.73 -69.301M1502.55 372.66C1502.55 372.66 1438.54 367.449 1398.57 353.559C1354.23 338.842 1363.64 307.693 1321.37 291.249C1261.58 268.617 1180.68 311.768 1131.94 279.879C1087.21 251.842 1138.61 201.474 1100.7 169.034C1064.2 134.527 954.17 172.061 948.591 125.99C942.538 75.4444 1053 85.4822 1125.1 52.6414C1199.44 18.871 1228.75 21.0351 1294.64 -6.59142C1327.03 -18.7951 1362.44 -38.5346 1377.45 -40.9933C1415.63 -59.7043 1429.25 -64.5044 1429.25 -64.5044M1498.47 355.738C1498.47 355.738 1441.98 344.482 1403.15 330.32C1361.56 315.941 1366.23 289.711 1325.45 274.89C1266.9 254.325 1189.96 293.865 1144.1 262.583C1103.36 236.224 1149.67 190.352 1115.19 160.008C1079.14 124.295 964.564 164.821 958.838 117.926C952.986 69.3916 1051.66 73.0989 1120.95 41.6136C1195.27 7.94383 1224.26 19.498 1291.45 -3.09661C1325.18 -12.9524 1358.92 -28.9123 1378.23 -32.0735C1414.79 -48.7398 1432.3 -54.9114 1432.3 -54.9114M1478.79 352.203C1478.79 352.203 1408.58 342.756 1358.04 331.851C1304.85 321.229 1310.36 296.552 1257.39 286.119C1180.65 271.786 1074.99 318.049 1017.78 290.596C967.716 268.197 1031.56 218.977 990.021 192.098C944.994 158.304 782.009 213.138 778.903 165.055C775.884 116.738 901.891 108.076 997.224 69.6421C1101.57 27.6779 1139.1 41.5268 1233.3 14.1328C1280.91 1.78467 1327.04 -15.9578 1356.54 -21.702C1406.69 -41.3456 1433.82 -50.3331 1433.82 -50.3331M1494.4 338.816C1494.4 338.816 1445.42 321.515 1407.73 307.082C1368.9 293.04 1368.82 271.729 1329.54 258.532C1272.22 240.034 1199.23 275.963 1156.27 245.286C1119.52 220.607 1160.72 179.23 1129.69 150.982C1094.07 114.062 974.958 157.581 969.085 109.863C963.434 63.3388 1050.33 60.7156 1116.8 30.5858C1191.1 -2.98337 1219.77 17.961 1288.26 0.398284C1323.33 -7.10954 1355.41 -19.29 1379 -23.1536C1413.94 -37.7753 1435.35 -45.3183 1435.35 -45.3183M1490.33 321.894C1490.33 321.894 1448.86 298.548 1412.31 283.844C1376.24 270.139 1371.41 253.747 1333.62 242.173C1277.54 225.742 1208.51 258.061 1168.43 227.99C1135.68 204.989 1171.78 168.108 1144.19 141.956C1109.01 103.83 985.351 150.341 979.332 101.799C973.882 57.2859 1048.99 48.3323 1112.65 19.558C1186.92 -13.9105 1215.28 16.424 1285.08 3.89314C1321.49 -1.26674 1351.89 -9.66766 1379.78 -14.2338C1413.1 -26.8108 1438.41 -35.7253 1438.41 -35.7253M1488.29 313.433C1488.29 313.433 1450.58 287.064 1414.6 272.225C1379.91 258.688 1372.7 244.756 1335.66 233.994C1280.2 218.596 1213.15 249.11 1174.52 219.342C1143.75 197.18 1177.31 162.546 1151.44 137.443C1116.48 98.7135 990.548 146.721 984.456 97.7666C979.106 54.2595 1048.33 42.1406 1110.58 14.0441C1184.84 -19.3741 1213.04 15.6555 1283.48 5.64053C1320.57 1.65463 1350.14 -4.85655 1380.17 -9.77391C1412.68 -21.3285 1439.93 -30.9288 1439.93 -30.9288M1484.22 296.512C1484.22 296.512 1454.02 264.097 1419.18 248.986C1387.25 235.787 1375.29 226.774 1339.75 217.636C1285.52 204.304 1222.42 231.207 1186.68 202.045C1159.91 181.562 1188.36 151.424 1165.93 128.417C1131.41 88.4811 1000.94 139.481 994.703 89.7027C989.554 48.2067 1046.99 29.7574 1106.42 3.01637C1180.67 -30.3013 1208.55 14.1185 1280.29 9.1354C1318.72 7.49745 1346.62 4.76582 1380.94 -0.854048C1411.84 -10.364 1442.98 -21.3357 1442.98 -21.3357M1482.18 288.051C1482.18 288.051 1455.74 252.613 1421.47 237.367C1390.92 224.337 1376.59 217.783 1341.79 209.457C1288.18 197.159 1227.06 222.256 1192.77 193.397C1167.99 173.753 1193.89 145.863 1173.18 123.904C1138.88 83.3648 1006.14 135.861 999.826 85.6708C994.778 45.1802 1046.32 23.5657 1104.35 -2.49751C1178.58 -35.7649 1206.31 13.35 1278.7 10.8828C1317.8 10.4188 1344.86 9.57697 1381.33 3.60586C1411.42 -4.88176 1444.51 -16.5392 1444.51 -16.5392M1480.14 279.59C1480.14 279.59 1457.46 241.129 1423.76 225.748C1394.58 212.886 1377.88 208.792 1343.83 201.278C1290.84 190.013 1231.7 213.305 1198.85 184.749C1176.07 165.944 1199.42 140.302 1180.43 119.391C1146.35 78.2486 1011.34 132.24 1004.95 81.6388C1000 42.1538 1045.65 17.374 1102.27 -8.01146C1176.49 -41.2285 1204.06 12.5815 1277.11 12.6302C1316.87 13.3402 1343.11 14.3881 1381.71 8.06576C1411 0.600495 1446.03 -11.7427 1446.03 -11.7427M1478.11 271.129C1478.11 271.129 1459.18 229.646 1426.05 214.129C1398.25 201.436 1379.18 199.801 1345.87 193.098C1293.5 182.867 1236.34 204.354 1204.93 176.101C1184.15 158.135 1204.95 134.741 1187.68 114.879C1153.82 73.1324 1016.53 128.62 1010.07 77.6069C1005.23 39.1274 1044.99 11.1825 1100.2 -13.5253C1174.41 -46.692 1201.82 11.813 1275.51 14.3777C1315.95 16.2617 1341.35 19.1993 1382.1 12.5257C1410.58 6.08279 1447.56 -6.94612 1447.56 -6.94612M1476.07 262.668C1476.07 262.668 1460.9 218.162 1428.34 202.51C1401.92 189.985 1380.47 190.81 1347.92 184.919C1296.16 175.721 1240.97 195.403 1211.02 167.452C1192.22 150.326 1210.47 129.18 1194.93 110.366C1161.29 68.0161 1021.73 125 1015.2 73.5749C1010.45 36.101 1044.32 4.99075 1098.12 -19.0392C1172.32 -52.1556 1199.57 11.0445 1273.92 16.1251C1315.03 19.183 1339.59 24.0104 1382.49 16.9856C1410.16 11.565 1449.09 -2.14961 1449.09 -2.14961" stroke="#0D2666"/>
</svg>
